<svg width="339" height="104" viewBox="0 0 339 104" fill="none" xmlns="http://www.w3.org/2000/svg">
<rect x="0.382812" width="338.181" height="103.207" rx="12" fill="white"/>
<g style="mix-blend-mode:multiply">
<rect x="260.023" y="38.9458" width="57.9113" height="25.982" rx="10.3856" fill="#ECFDF3"/>
<path d="M271.706 55.7232V48.1504M271.706 48.1504L267.919 51.9368M271.706 48.1504L275.492 51.9368" stroke="#12B76A" stroke-width="1.62275" stroke-linecap="round" stroke-linejoin="round"/>
<path d="M286.923 46.1073V57.437H285.208V47.8222H285.142L282.431 49.5925V47.955L285.258 46.1073H286.923ZM289.988 57.437V56.1978L293.822 52.2258C294.231 51.7943 294.568 51.4162 294.834 51.0917C295.103 50.7634 295.304 50.4518 295.437 50.1568C295.57 49.8617 295.636 49.5482 295.636 49.2163C295.636 48.8401 295.548 48.5156 295.371 48.2427C295.194 47.966 294.952 47.754 294.646 47.6065C294.34 47.4553 293.995 47.3796 293.611 47.3796C293.206 47.3796 292.852 47.4626 292.549 47.6286C292.247 47.7946 292.014 48.0287 291.852 48.3312C291.69 48.6336 291.609 48.9876 291.609 49.3933H289.977C289.977 48.7037 290.135 48.1007 290.453 47.5843C290.77 47.068 291.205 46.6678 291.758 46.3839C292.311 46.0962 292.94 45.9524 293.645 45.9524C294.356 45.9524 294.983 46.0944 295.526 46.3783C296.071 46.6586 296.497 47.0422 296.803 47.529C297.11 48.0122 297.263 48.558 297.263 49.1665C297.263 49.587 297.183 49.9982 297.025 50.4002C296.87 50.8022 296.599 51.2503 296.212 51.7445C295.824 52.235 295.286 52.8306 294.596 53.5313L292.345 55.888V55.971H297.445V57.437H289.988ZM305.456 55.3127V54.7152C305.456 54.2874 305.544 53.8965 305.721 53.5424C305.902 53.1847 306.164 52.8988 306.507 52.6849C306.853 52.4673 307.272 52.3585 307.763 52.3585C308.264 52.3585 308.685 52.4655 309.024 52.6794C309.363 52.8933 309.619 53.1791 309.793 53.5369C309.97 53.8946 310.058 54.2874 310.058 54.7152V55.3127C310.058 55.7405 309.97 56.1333 309.793 56.491C309.616 56.8451 309.356 57.1309 309.013 57.3485C308.673 57.5624 308.257 57.6694 307.763 57.6694C307.265 57.6694 306.844 57.5624 306.501 57.3485C306.158 57.1309 305.898 56.8451 305.721 56.491C305.544 56.1333 305.456 55.7405 305.456 55.3127ZM306.745 54.7152V55.3127C306.745 55.6299 306.82 55.9175 306.971 56.1757C307.123 56.4339 307.386 56.5629 307.763 56.5629C308.135 56.5629 308.395 56.4339 308.543 56.1757C308.69 55.9175 308.764 55.6299 308.764 55.3127V54.7152C308.764 54.398 308.692 54.1104 308.548 53.8522C308.408 53.594 308.146 53.465 307.763 53.465C307.394 53.465 307.132 53.594 306.977 53.8522C306.822 54.1104 306.745 54.398 306.745 54.7152ZM299.758 48.8291V48.2316C299.758 47.8038 299.846 47.411 300.023 47.0533C300.204 46.6955 300.466 46.4097 300.809 46.1958C301.155 45.9819 301.574 45.8749 302.064 45.8749C302.566 45.8749 302.986 45.9819 303.326 46.1958C303.665 46.4097 303.921 46.6955 304.095 47.0533C304.268 47.411 304.355 47.8038 304.355 48.2316V48.8291C304.355 49.2569 304.266 49.6497 304.089 50.0074C303.916 50.3615 303.658 50.6473 303.315 50.8649C302.975 51.0788 302.559 51.1857 302.064 51.1857C301.563 51.1857 301.141 51.0788 300.798 50.8649C300.458 50.6473 300.2 50.3615 300.023 50.0074C299.846 49.6497 299.758 49.2569 299.758 48.8291ZM301.052 48.2316V48.8291C301.052 49.1462 301.126 49.4339 301.273 49.6921C301.425 49.9502 301.688 50.0793 302.064 50.0793C302.433 50.0793 302.691 49.9502 302.839 49.6921C302.99 49.4339 303.066 49.1462 303.066 48.8291V48.2316C303.066 47.9144 302.994 47.6267 302.85 47.3686C302.706 47.1104 302.444 46.9813 302.064 46.9813C301.696 46.9813 301.434 47.1104 301.279 47.3686C301.128 47.6267 301.052 47.9144 301.052 48.2316ZM300.283 57.437L308.072 46.1073H309.395L301.605 57.437H300.283Z" fill="#027A48"/>
</g>
<path d="M29.895 27.28H28.7517C28.6841 26.9511 28.5658 26.6622 28.3967 26.4133C28.2308 26.1644 28.0279 25.9554 27.7882 25.7863C27.5516 25.6142 27.2888 25.4851 26.9999 25.3991C26.711 25.313 26.4098 25.27 26.0963 25.27C25.5247 25.27 25.0068 25.4144 24.5427 25.7033C24.0817 25.9922 23.7144 26.4179 23.4409 26.9803C23.1704 27.5428 23.0352 28.2327 23.0352 29.0503C23.0352 29.8678 23.1704 30.5578 23.4409 31.1202C23.7144 31.6826 24.0817 32.1083 24.5427 32.3972C25.0068 32.6861 25.5247 32.8305 26.0963 32.8305C26.4098 32.8305 26.711 32.7875 26.9999 32.7015C27.2888 32.6154 27.5516 32.4879 27.7882 32.3188C28.0279 32.1467 28.2308 31.9362 28.3967 31.6872C28.5658 31.4352 28.6841 31.1463 28.7517 30.8205H29.895C29.809 31.3031 29.6522 31.7349 29.4248 32.116C29.1974 32.4971 28.9146 32.8213 28.5765 33.0887C28.2385 33.353 27.8589 33.5543 27.4378 33.6926C27.0199 33.8309 26.5727 33.9001 26.0963 33.9001C25.2911 33.9001 24.575 33.7034 23.948 33.31C23.321 32.9166 22.8278 32.3572 22.4682 31.6319C22.1086 30.9066 21.9288 30.046 21.9288 29.0503C21.9288 28.0545 22.1086 27.1939 22.4682 26.4686C22.8278 25.7433 23.321 25.1839 23.948 24.7905C24.575 24.3972 25.2911 24.2005 26.0963 24.2005C26.5727 24.2005 27.0199 24.2696 27.4378 24.4079C27.8589 24.5462 28.2385 24.7491 28.5765 25.0164C28.9146 25.2808 29.1974 25.6035 29.4248 25.9846C29.6522 26.3626 29.809 26.7944 29.895 27.28ZM33.6788 33.937C33.23 33.937 32.8228 33.8524 32.4571 33.6834C32.0913 33.5113 31.8009 33.2639 31.5858 32.9412C31.3706 32.6154 31.2631 32.222 31.2631 31.761C31.2631 31.3553 31.343 31.0265 31.5028 30.7744C31.6626 30.5193 31.8762 30.3196 32.1436 30.1751C32.411 30.0307 32.706 29.9231 33.0287 29.8524C33.3545 29.7787 33.6818 29.7203 34.0107 29.6772C34.441 29.6219 34.7898 29.5804 35.0572 29.5528C35.3276 29.522 35.5243 29.4713 35.6473 29.4006C35.7733 29.3299 35.8363 29.207 35.8363 29.0318V28.9949C35.8363 28.5401 35.7118 28.1866 35.4629 27.9346C35.217 27.6826 34.8436 27.5566 34.3426 27.5566C33.8232 27.5566 33.416 27.6703 33.1209 27.8977C32.8259 28.1252 32.6184 28.368 32.4986 28.6261L31.4659 28.2573C31.6503 27.8271 31.8962 27.4921 32.2035 27.2523C32.5139 27.0095 32.852 26.8405 33.2177 26.7452C33.5865 26.6469 33.9492 26.5977 34.3057 26.5977C34.5332 26.5977 34.7944 26.6254 35.0894 26.6807C35.3876 26.7329 35.6749 26.842 35.9515 27.008C36.2312 27.174 36.4632 27.4244 36.6476 27.7594C36.8321 28.0944 36.9243 28.5432 36.9243 29.1056V33.771H35.8363V32.8121H35.781C35.7072 32.9658 35.5843 33.1302 35.4121 33.3054C35.24 33.4806 35.0111 33.6296 34.7252 33.7526C34.4394 33.8755 34.0906 33.937 33.6788 33.937ZM33.8447 32.9596C34.275 32.9596 34.6376 32.8751 34.9327 32.7061C35.2308 32.537 35.4552 32.3188 35.6058 32.0514C35.7594 31.784 35.8363 31.5028 35.8363 31.2078V30.212C35.7902 30.2673 35.6887 30.318 35.532 30.3641C35.3783 30.4072 35.2001 30.4456 34.9972 30.4794C34.7975 30.5101 34.6023 30.5378 34.4118 30.5624C34.2243 30.5839 34.0721 30.6023 33.9554 30.6177C33.6726 30.6546 33.4083 30.7145 33.1624 30.7975C32.9196 30.8774 32.7229 30.9988 32.5723 31.1617C32.4248 31.3215 32.351 31.5397 32.351 31.8163C32.351 32.1943 32.4909 32.4802 32.7706 32.6738C33.0533 32.8643 33.4114 32.9596 33.8447 32.9596ZM38.91 33.771V26.6899H39.9611V27.7594H40.0349C40.164 27.4091 40.3976 27.1248 40.7356 26.9066C41.0737 26.6884 41.4548 26.5793 41.8789 26.5793C41.9589 26.5793 42.0587 26.5808 42.1786 26.5839C42.2985 26.5869 42.3891 26.5916 42.4506 26.5977V27.7041C42.4137 27.6949 42.3292 27.6811 42.197 27.6626C42.068 27.6411 41.9312 27.6304 41.7867 27.6304C41.4425 27.6304 41.1352 27.7026 40.8647 27.847C40.5973 27.9884 40.3853 28.1851 40.2285 28.4371C40.0749 28.6861 39.998 28.9704 39.998 29.29V33.771H38.91ZM46.1986 33.9185C45.6085 33.9185 45.0876 33.7695 44.6358 33.4713C44.184 33.1701 43.8305 32.746 43.5755 32.199C43.3204 31.6488 43.1928 30.9988 43.1928 30.2489C43.1928 29.5051 43.3204 28.8597 43.5755 28.3127C43.8305 27.7656 44.1855 27.343 44.6404 27.0449C45.0952 26.7468 45.6208 26.5977 46.217 26.5977C46.678 26.5977 47.0422 26.6745 47.3096 26.8282C47.5801 26.9788 47.786 27.1509 47.9274 27.3445C48.0718 27.5351 48.184 27.6918 48.2639 27.8148H48.3561V24.3295H49.4441V33.771H48.393V32.683H48.2639C48.184 32.8121 48.0703 32.975 47.9228 33.1717C47.7752 33.3653 47.5647 33.539 47.2912 33.6926C47.0177 33.8432 46.6535 33.9185 46.1986 33.9185ZM46.3461 32.9412C46.7825 32.9412 47.1513 32.8275 47.4525 32.6C47.7537 32.3695 47.9827 32.0514 48.1394 31.6457C48.2962 31.237 48.3746 30.7652 48.3746 30.2304C48.3746 29.7018 48.2977 29.2393 48.1441 28.8428C47.9904 28.4433 47.763 28.1329 47.4618 27.9116C47.1606 27.6872 46.7887 27.575 46.3461 27.575C45.8851 27.575 45.5009 27.6934 45.1936 27.93C44.8893 28.1636 44.6604 28.4817 44.5067 28.8843C44.3561 29.2838 44.2808 29.7326 44.2808 30.2304C44.2808 30.7345 44.3576 31.1924 44.5113 31.6043C44.668 32.013 44.8985 32.3388 45.2028 32.5816C45.5102 32.8213 45.8913 32.9412 46.3461 32.9412ZM55.3865 33.771V24.3295H58.6873C59.345 24.3295 59.8875 24.4433 60.3147 24.6707C60.7419 24.895 61.06 25.1978 61.269 25.5789C61.478 25.9569 61.5825 26.3764 61.5825 26.8374C61.5825 27.2431 61.5102 27.5781 61.3658 27.8424C61.2244 28.1067 61.0369 28.3157 60.8034 28.4694C60.5728 28.6231 60.3224 28.7368 60.0519 28.8105V28.9027C60.3408 28.9212 60.6312 29.0226 60.9232 29.207C61.2152 29.3914 61.4595 29.6557 61.6562 29.9999C61.8529 30.3442 61.9513 30.7652 61.9513 31.2631C61.9513 31.7364 61.8437 32.1621 61.6286 32.5401C61.4134 32.9181 61.0738 33.2178 60.6097 33.4391C60.1456 33.6604 59.5417 33.771 58.798 33.771H55.3865ZM56.5298 32.7568H58.798C59.5448 32.7568 60.075 32.6123 60.3884 32.3234C60.705 32.0315 60.8633 31.678 60.8633 31.2631C60.8633 30.9435 60.7818 30.6484 60.6189 30.378C60.4561 30.1044 60.224 29.8862 59.9228 29.7233C59.6216 29.5574 59.2651 29.4744 58.8533 29.4744H56.5298V32.7568ZM56.5298 28.4786H58.6504C58.9947 28.4786 59.3051 28.411 59.5817 28.2758C59.8614 28.1405 60.0826 27.95 60.2455 27.7041C60.4115 27.4582 60.4945 27.1694 60.4945 26.8374C60.4945 26.4225 60.35 26.0706 60.0611 25.7817C59.7722 25.4897 59.3143 25.3438 58.6873 25.3438H56.5298V28.4786ZM65.7661 33.937C65.3174 33.937 64.9102 33.8524 64.5444 33.6834C64.1787 33.5113 63.8883 33.2639 63.6731 32.9412C63.458 32.6154 63.3504 32.222 63.3504 31.761C63.3504 31.3553 63.4303 31.0265 63.5902 30.7744C63.75 30.5193 63.9636 30.3196 64.231 30.1751C64.4983 30.0307 64.7934 29.9231 65.1161 29.8524C65.4419 29.7787 65.7692 29.7203 66.098 29.6772C66.5283 29.6219 66.8771 29.5804 67.1445 29.5528C67.415 29.522 67.6117 29.4713 67.7346 29.4006C67.8606 29.3299 67.9236 29.207 67.9236 29.0318V28.9949C67.9236 28.5401 67.7992 28.1866 67.5502 27.9346C67.3043 27.6826 66.9309 27.5566 66.43 27.5566C65.9106 27.5566 65.5033 27.6703 65.2083 27.8977C64.9132 28.1252 64.7058 28.368 64.5859 28.6261L63.5533 28.2573C63.7377 27.8271 63.9835 27.4921 64.2909 27.2523C64.6013 27.0095 64.9394 26.8405 65.3051 26.7452C65.6739 26.6469 66.0366 26.5977 66.3931 26.5977C66.6205 26.5977 66.8818 26.6254 67.1768 26.6807C67.4749 26.7329 67.7623 26.842 68.0389 27.008C68.3186 27.174 68.5506 27.4244 68.735 27.7594C68.9194 28.0944 69.0116 28.5432 69.0116 29.1056V33.771H67.9236V32.8121H67.8683C67.7945 32.9658 67.6716 33.1302 67.4995 33.3054C67.3274 33.4806 67.0984 33.6296 66.8126 33.7526C66.5268 33.8755 66.1779 33.937 65.7661 33.937ZM65.9321 32.9596C66.3623 32.9596 66.725 32.8751 67.0201 32.7061C67.3182 32.537 67.5425 32.3188 67.6931 32.0514C67.8468 31.784 67.9236 31.5028 67.9236 31.2078V30.212C67.8775 30.2673 67.7761 30.318 67.6194 30.3641C67.4657 30.4072 67.2874 30.4456 67.0846 30.4794C66.8848 30.5101 66.6897 30.5378 66.4991 30.5624C66.3116 30.5839 66.1595 30.6023 66.0427 30.6177C65.76 30.6546 65.4957 30.7145 65.2498 30.7975C65.007 30.8774 64.8103 30.9988 64.6597 31.1617C64.5122 31.3215 64.4384 31.5397 64.4384 31.8163C64.4384 32.1943 64.5782 32.4802 64.8579 32.6738C65.1407 32.8643 65.4987 32.9596 65.9321 32.9596ZM72.0854 24.3295V33.771H70.9974V24.3295H72.0854ZM76.1619 33.937C75.7131 33.937 75.3059 33.8524 74.9402 33.6834C74.5744 33.5113 74.284 33.2639 74.0689 32.9412C73.8537 32.6154 73.7462 32.222 73.7462 31.761C73.7462 31.3553 73.8261 31.0265 73.9859 30.7744C74.1457 30.5193 74.3593 30.3196 74.6267 30.1751C74.8941 30.0307 75.1891 29.9231 75.5118 29.8524C75.8376 29.7787 76.1649 29.7203 76.4938 29.6772C76.9241 29.6219 77.2729 29.5804 77.5403 29.5528C77.8107 29.522 78.0074 29.4713 78.1304 29.4006C78.2564 29.3299 78.3194 29.207 78.3194 29.0318V28.9949C78.3194 28.5401 78.1949 28.1866 77.946 27.9346C77.7001 27.6826 77.3267 27.5566 76.8257 27.5566C76.3063 27.5566 75.8991 27.6703 75.604 27.8977C75.309 28.1252 75.1015 28.368 74.9817 28.6261L73.949 28.2573C74.1334 27.8271 74.3793 27.4921 74.6866 27.2523C74.997 27.0095 75.3351 26.8405 75.7008 26.7452C76.0697 26.6469 76.4323 26.5977 76.7888 26.5977C77.0163 26.5977 77.2775 26.6254 77.5725 26.6807C77.8707 26.7329 78.158 26.842 78.4346 27.008C78.7143 27.174 78.9463 27.4244 79.1308 27.7594C79.3152 28.0944 79.4074 28.5432 79.4074 29.1056V33.771H78.3194V32.8121H78.2641C78.1903 32.9658 78.0674 33.1302 77.8952 33.3054C77.7231 33.4806 77.4942 33.6296 77.2083 33.7526C76.9225 33.8755 76.5737 33.937 76.1619 33.937ZM76.3278 32.9596C76.7581 32.9596 77.1208 32.8751 77.4158 32.7061C77.7139 32.537 77.9383 32.3188 78.0889 32.0514C78.2425 31.784 78.3194 31.5028 78.3194 31.2078V30.212C78.2733 30.2673 78.1719 30.318 78.0151 30.3641C77.8614 30.4072 77.6832 30.4456 77.4803 30.4794C77.2806 30.5101 77.0854 30.5378 76.8949 30.5624C76.7074 30.5839 76.5552 30.6023 76.4385 30.6177C76.1557 30.6546 75.8914 30.7145 75.6455 30.7975C75.4027 30.8774 75.206 30.9988 75.0554 31.1617C74.9079 31.3215 74.8342 31.5397 74.8342 31.8163C74.8342 32.1943 74.974 32.4802 75.2537 32.6738C75.5364 32.8643 75.8945 32.9596 76.3278 32.9596ZM82.4811 29.5113V33.771H81.3932V26.6899H82.4443V27.7963H82.5365C82.7024 27.4367 82.9544 27.1478 83.2925 26.9296C83.6306 26.7083 84.067 26.5977 84.6018 26.5977C85.0812 26.5977 85.5007 26.696 85.8603 26.8927C86.2199 27.0864 86.4996 27.3814 86.6994 27.7779C86.8991 28.1713 86.999 28.6692 86.999 29.2716V33.771H85.911V29.3453C85.911 28.789 85.7666 28.3557 85.4777 28.0453C85.1888 27.7318 84.7923 27.575 84.2883 27.575C83.941 27.575 83.6306 27.6503 83.357 27.8009C83.0866 27.9515 82.873 28.1713 82.7162 28.4602C82.5595 28.7491 82.4811 29.0994 82.4811 29.5113ZM91.8638 33.9185C91.2 33.9185 90.6283 33.7618 90.1489 33.4483C89.6694 33.1348 89.3006 32.703 89.0424 32.1529C88.7843 31.6027 88.6552 30.9742 88.6552 30.2673C88.6552 29.5482 88.7873 28.9135 89.0517 28.3634C89.319 27.8102 89.6909 27.3783 90.1673 27.0679C90.6468 26.7544 91.2061 26.5977 91.8454 26.5977C92.3433 26.5977 92.792 26.6899 93.1915 26.8743C93.5911 27.0587 93.9184 27.3169 94.1735 27.6488C94.4286 27.9807 94.5868 28.368 94.6483 28.8105H93.5603C93.4773 28.4878 93.2929 28.202 93.0071 27.9531C92.7244 27.701 92.3433 27.575 91.8638 27.575C91.4397 27.575 91.0678 27.6857 90.7482 27.907C90.4316 28.1252 90.1842 28.4341 90.0059 28.8336C89.8308 29.2301 89.7432 29.6957 89.7432 30.2304C89.7432 30.7775 89.8292 31.2539 90.0013 31.6596C90.1765 32.0653 90.4224 32.3803 90.739 32.6046C91.0586 32.829 91.4335 32.9412 91.8638 32.9412C92.1466 32.9412 92.4032 32.892 92.6337 32.7937C92.8642 32.6953 93.0594 32.5539 93.2192 32.3695C93.379 32.1851 93.4927 31.9638 93.5603 31.7057H94.6483C94.5868 32.1237 94.4347 32.5001 94.1919 32.8351C93.9522 33.1671 93.6341 33.4314 93.2376 33.6281C92.8442 33.8217 92.3863 33.9185 91.8638 33.9185ZM99.2077 33.9185C98.5254 33.9185 97.9368 33.7679 97.442 33.4667C96.9503 33.1625 96.5707 32.7383 96.3033 32.1943C96.039 31.6473 95.9069 31.0111 95.9069 30.2858C95.9069 29.5604 96.039 28.9212 96.3033 28.368C96.5707 27.8117 96.9426 27.3783 97.419 27.0679C97.8984 26.7544 98.4578 26.5977 99.097 26.5977C99.4658 26.5977 99.83 26.6592 100.19 26.7821C100.549 26.905 100.877 27.1048 101.172 27.3814C101.467 27.6549 101.702 28.0176 101.877 28.4694C102.052 28.9212 102.14 29.4775 102.14 30.1382V30.5993H96.6814V29.6588H101.033C101.033 29.2593 100.953 28.9027 100.794 28.5893C100.637 28.2758 100.412 28.0284 100.12 27.847C99.8316 27.6657 99.4904 27.575 99.097 27.575C98.6637 27.575 98.2887 27.6826 97.9722 27.8977C97.6587 28.1098 97.4174 28.3864 97.2484 28.7276C97.0794 29.0687 96.9948 29.4344 96.9948 29.8248V30.4517C96.9948 30.9865 97.087 31.4398 97.2714 31.8117C97.4589 32.1805 97.7186 32.4617 98.0505 32.6554C98.3825 32.8459 98.7682 32.9412 99.2077 32.9412C99.4935 32.9412 99.7517 32.9012 99.9822 32.8213C100.216 32.7383 100.417 32.6154 100.586 32.4525C100.755 32.2865 100.886 32.0806 100.978 31.8348L102.029 32.1298C101.918 32.4863 101.732 32.7998 101.471 33.0703C101.21 33.3376 100.887 33.5466 100.503 33.6972C100.119 33.8448 99.6871 33.9185 99.2077 33.9185Z" fill="#777777"/>
<path d="M23.273 74.2622V52.4524H27.261L37.5116 67.8127V52.4524H41.4997V74.2622H37.5116L27.261 58.9331V74.2622H23.273ZM52.8627 74.6361C51.4295 74.6361 50.1313 74.3868 48.9681 73.8883C47.8049 73.369 46.8702 72.5797 46.164 71.5204C45.4577 70.4611 45.0839 69.1317 45.0423 67.5323H48.9681C48.9889 68.5917 49.3316 69.4848 49.9963 70.2118C50.6817 70.918 51.6372 71.2712 52.8627 71.2712C54.0259 71.2712 54.919 70.9492 55.5422 70.3053C56.1653 69.6614 56.4769 68.8513 56.4769 67.8751C56.4769 66.7326 56.0614 65.8706 55.2306 65.289C54.4205 64.6867 53.3716 64.3855 52.0838 64.3855H50.4636V61.114H52.1149C53.1742 61.114 54.057 60.8648 54.7632 60.3663C55.4695 59.8678 55.8226 59.1304 55.8226 58.1541C55.8226 57.3441 55.5526 56.7001 55.0125 56.2224C54.4932 55.7239 53.7662 55.4746 52.8315 55.4746C51.8137 55.4746 51.014 55.7758 50.4324 56.3782C49.8716 56.9806 49.5601 57.7179 49.4977 58.5903H45.6031C45.6862 56.5755 46.3821 54.9865 47.6907 53.8233C49.02 52.6602 50.7336 52.0786 52.8315 52.0786C54.3271 52.0786 55.5837 52.3486 56.6015 52.8886C57.6401 53.4079 58.419 54.1038 58.9383 54.9761C59.4783 55.8485 59.7483 56.8144 59.7483 57.8737C59.7483 59.0992 59.4056 60.1378 58.7202 60.9894C58.0555 61.8203 57.2246 62.3811 56.2276 62.6719C57.4531 62.9211 58.4501 63.5235 59.2187 64.479C59.9872 65.4137 60.3715 66.5976 60.3715 68.0308C60.3715 69.2356 60.0807 70.3364 59.4991 71.3335C58.9175 72.3305 58.0659 73.1302 56.9442 73.7325C55.8433 74.3349 54.4828 74.6361 52.8627 74.6361ZM63.7583 74.2622V71.3646C65.0877 70.2637 66.3755 69.1733 67.6218 68.0932C68.8888 67.0131 70.0105 65.9433 70.9867 64.884C71.9837 63.8247 72.773 62.7965 73.3546 61.7995C73.957 60.7817 74.2582 59.7951 74.2582 58.8396C74.2582 57.9464 74.0089 57.1571 73.5104 56.4717C73.0327 55.7862 72.233 55.4435 71.1113 55.4435C69.9689 55.4435 69.1069 55.8174 68.5253 56.5651C67.9437 57.3129 67.6529 58.2164 67.6529 59.2758H63.7895C63.831 57.6764 64.1841 56.347 64.8488 55.2877C65.5135 54.2076 66.3963 53.4079 67.4971 52.8886C68.598 52.3486 69.8339 52.0786 71.2048 52.0786C73.4273 52.0786 75.1513 52.6913 76.3768 53.9168C77.6231 55.1215 78.2462 56.6898 78.2462 58.6215C78.2462 59.8262 77.9658 60.9998 77.405 62.1422C76.8649 63.2846 76.1483 64.3855 75.2552 65.4448C74.362 66.5042 73.3962 67.5012 72.3576 68.4359C71.319 69.3498 70.3116 70.2014 69.3354 70.9907H78.7759V74.2622H63.7583ZM80.4051 77.8764L82.181 70.1184H86.0444L83.0222 77.8764H80.4051ZM96.9944 74.6361C95.4988 74.6361 94.1487 74.3764 92.944 73.8572C91.7392 73.3171 90.7734 72.559 90.0464 71.5827C89.3402 70.6065 88.9871 69.4744 88.9871 68.1866C88.9871 66.8573 89.3298 65.6941 90.0152 64.6971C90.7215 63.7 91.6458 62.9834 92.7882 62.5472C91.7912 62.1111 91.0019 61.4879 90.4203 60.6778C89.8387 59.847 89.5479 58.9227 89.5479 57.9049C89.5479 56.8663 89.8283 55.9108 90.3891 55.0385C90.9499 54.1453 91.7808 53.4287 92.8817 52.8886C94.0033 52.3486 95.3742 52.0786 96.9944 52.0786C98.6145 52.0786 99.975 52.3486 101.076 52.8886C102.177 53.4287 103.008 54.1453 103.568 55.0385C104.129 55.9108 104.41 56.8663 104.41 57.9049C104.41 58.9019 104.108 59.8262 103.506 60.6778C102.925 61.5087 102.146 62.1318 101.169 62.5472C102.333 62.9834 103.257 63.7 103.942 64.6971C104.628 65.6941 104.971 66.8573 104.971 68.1866C104.971 69.4744 104.617 70.6065 103.911 71.5827C103.205 72.559 102.239 73.3171 101.014 73.8572C99.8089 74.3764 98.4691 74.6361 96.9944 74.6361ZM96.9944 61.3633C98.0745 61.3633 98.9261 61.0829 99.5492 60.5221C100.172 59.9612 100.484 59.2446 100.484 58.3722C100.484 57.4168 100.172 56.669 99.5492 56.1289C98.9469 55.5889 98.0952 55.3189 96.9944 55.3189C95.8727 55.3189 95.0107 55.5889 94.4083 56.1289C93.806 56.669 93.5048 57.4168 93.5048 58.3722C93.5048 59.2654 93.806 59.9924 94.4083 60.5532C95.0315 61.0933 95.8935 61.3633 96.9944 61.3633ZM96.9944 71.3023C98.3237 71.3023 99.3311 70.9804 100.017 70.3364C100.702 69.6718 101.045 68.8409 101.045 67.8439C101.045 66.743 100.681 65.881 99.9543 65.2579C99.248 64.6348 98.2614 64.3232 96.9944 64.3232C95.7273 64.3232 94.7199 64.6348 93.9721 65.2579C93.2452 65.881 92.8817 66.743 92.8817 67.8439C92.8817 68.8409 93.2244 69.6718 93.9098 70.3364C94.6161 70.9804 95.6442 71.3023 96.9944 71.3023ZM117.835 74.6361C115.821 74.6361 114.097 74.1687 112.663 73.234C111.23 72.2786 110.119 70.9596 109.33 69.2771C108.561 67.5739 108.177 65.6006 108.177 63.3573C108.177 61.1348 108.561 59.1719 109.33 57.4687C110.119 55.7654 111.23 54.4465 112.663 53.5118C114.097 52.5563 115.821 52.0786 117.835 52.0786C119.85 52.0786 121.574 52.5563 123.007 53.5118C124.441 54.4465 125.541 55.7654 126.31 57.4687C127.099 59.1719 127.494 61.1348 127.494 63.3573C127.494 65.6006 127.099 67.5739 126.31 69.2771C125.541 70.9596 124.441 72.2786 123.007 73.234C121.574 74.1687 119.85 74.6361 117.835 74.6361ZM117.835 71.0531C119.476 71.0531 120.816 70.3676 121.855 68.9967C122.893 67.6258 123.412 65.746 123.412 63.3573C123.412 60.9686 122.893 59.0888 121.855 57.7179C120.816 56.347 119.476 55.6616 117.835 55.6616C116.174 55.6616 114.824 56.347 113.785 57.7179C112.767 59.0888 112.258 60.9686 112.258 63.3573C112.258 65.746 112.767 67.6258 113.785 68.9967C114.824 70.3676 116.174 71.0531 117.835 71.0531ZM140.984 74.2622V70.2118H130.235V67.0338L140.454 52.4524H144.972V66.7534H147.838V70.2118H144.972V74.2622H140.984ZM134.503 66.7534H141.233V56.8455L134.503 66.7534ZM149.291 77.8764L151.067 70.1184H154.93L151.908 77.8764H149.291ZM167.126 74.6361C165.112 74.6361 163.388 74.1687 161.954 73.234C160.521 72.2786 159.41 70.9596 158.621 69.2771C157.852 67.5739 157.468 65.6006 157.468 63.3573C157.468 61.1348 157.852 59.1719 158.621 57.4687C159.41 55.7654 160.521 54.4465 161.954 53.5118C163.388 52.5563 165.112 52.0786 167.126 52.0786C169.141 52.0786 170.865 52.5563 172.298 53.5118C173.732 54.4465 174.833 55.7654 175.601 57.4687C176.39 59.1719 176.785 61.1348 176.785 63.3573C176.785 65.6006 176.39 67.5739 175.601 69.2771C174.833 70.9596 173.732 72.2786 172.298 73.234C170.865 74.1687 169.141 74.6361 167.126 74.6361ZM167.126 71.0531C168.767 71.0531 170.107 70.3676 171.146 68.9967C172.184 67.6258 172.703 65.746 172.703 63.3573C172.703 60.9686 172.184 59.0888 171.146 57.7179C170.107 56.347 168.767 55.6616 167.126 55.6616C165.465 55.6616 164.115 56.347 163.076 57.7179C162.058 59.0888 161.549 60.9686 161.549 63.3573C161.549 65.746 162.058 67.6258 163.076 68.9967C164.115 70.3676 165.465 71.0531 167.126 71.0531ZM189.247 74.6361C187.232 74.6361 185.508 74.1687 184.074 73.234C182.641 72.2786 181.53 70.9596 180.741 69.2771C179.972 67.5739 179.588 65.6006 179.588 63.3573C179.588 61.1348 179.972 59.1719 180.741 57.4687C181.53 55.7654 182.641 54.4465 184.074 53.5118C185.508 52.5563 187.232 52.0786 189.247 52.0786C191.261 52.0786 192.985 52.5563 194.419 53.5118C195.852 54.4465 196.953 55.7654 197.721 57.4687C198.51 59.1719 198.905 61.1348 198.905 63.3573C198.905 65.6006 198.51 67.5739 197.721 69.2771C196.953 70.9596 195.852 72.2786 194.419 73.234C192.985 74.1687 191.261 74.6361 189.247 74.6361ZM189.247 71.0531C190.887 71.0531 192.227 70.3676 193.266 68.9967C194.304 67.6258 194.824 65.746 194.824 63.3573C194.824 60.9686 194.304 59.0888 193.266 57.7179C192.227 56.347 190.887 55.6616 189.247 55.6616C187.585 55.6616 186.235 56.347 185.196 57.7179C184.178 59.0888 183.669 60.9686 183.669 63.3573C183.669 65.746 184.178 67.6258 185.196 68.9967C186.235 70.3676 187.585 71.0531 189.247 71.0531ZM211.367 74.6361C209.352 74.6361 207.628 74.1687 206.195 73.234C204.761 72.2786 203.65 70.9596 202.861 69.2771C202.092 67.5739 201.708 65.6006 201.708 63.3573C201.708 61.1348 202.092 59.1719 202.861 57.4687C203.65 55.7654 204.761 54.4465 206.195 53.5118C207.628 52.5563 209.352 52.0786 211.367 52.0786C213.381 52.0786 215.105 52.5563 216.539 53.5118C217.972 54.4465 219.073 55.7654 219.841 57.4687C220.631 59.1719 221.025 61.1348 221.025 63.3573C221.025 65.6006 220.631 67.5739 219.841 69.2771C219.073 70.9596 217.972 72.2786 216.539 73.234C215.105 74.1687 213.381 74.6361 211.367 74.6361ZM211.367 71.0531C213.008 71.0531 214.347 70.3676 215.386 68.9967C216.424 67.6258 216.944 65.746 216.944 63.3573C216.944 60.9686 216.424 59.0888 215.386 57.7179C214.347 56.347 213.008 55.6616 211.367 55.6616C209.705 55.6616 208.355 56.347 207.316 57.7179C206.298 59.0888 205.79 60.9686 205.79 63.3573C205.79 65.746 206.298 67.6258 207.316 68.9967C208.355 70.3676 209.705 71.0531 211.367 71.0531Z" fill="#121212"/>
<path d="M21.1543 64.9775H43.6184V66.5353H21.1543V64.9775Z" fill="#121212"/>
</svg>
