<svg width="353" height="462" viewBox="0 0 353 462" fill="none" xmlns="http://www.w3.org/2000/svg">
<rect x="0.382812" width="352" height="462" fill="#F4F1F7"/>
<path d="M39.7748 224V204.896H33.2468V201.6H50.4308V204.896H43.8708V224H39.7748ZM51.8066 224V208.128H55.4546L55.8386 211.104C56.4146 210.08 57.1932 209.269 58.1746 208.672C59.1772 208.053 60.3506 207.744 61.6946 207.744V212.064H60.5426C59.6466 212.064 58.8466 212.203 58.1426 212.48C57.4386 212.757 56.8839 213.237 56.4786 213.92C56.0946 214.603 55.9026 215.552 55.9026 216.768V224H51.8066ZM69.9661 224.384C68.6007 224.384 67.4807 224.171 66.6061 223.744C65.7314 223.296 65.0807 222.709 64.6541 221.984C64.2274 221.259 64.0141 220.459 64.0141 219.584C64.0141 218.112 64.5901 216.917 65.7421 216C66.8941 215.083 68.6221 214.624 70.9261 214.624H74.9581V214.24C74.9581 213.152 74.6487 212.352 74.0301 211.84C73.4114 211.328 72.6434 211.072 71.7261 211.072C70.8941 211.072 70.1687 211.275 69.5501 211.68C68.9314 212.064 68.5474 212.64 68.3981 213.408H64.3981C64.5047 212.256 64.8887 211.253 65.5501 210.4C66.2327 209.547 67.1074 208.896 68.1741 208.448C69.2407 207.979 70.4354 207.744 71.7581 207.744C74.0194 207.744 75.8007 208.309 77.1021 209.44C78.4034 210.571 79.0541 212.171 79.0541 214.24V224H75.5661L75.1821 221.44C74.7127 222.293 74.0514 222.997 73.1981 223.552C72.3661 224.107 71.2887 224.384 69.9661 224.384ZM70.8941 221.184C72.0674 221.184 72.9741 220.8 73.6141 220.032C74.2754 219.264 74.6914 218.315 74.8621 217.184H71.3741C70.2861 217.184 69.5074 217.387 69.0381 217.792C68.5687 218.176 68.3341 218.656 68.3341 219.232C68.3341 219.851 68.5687 220.331 69.0381 220.672C69.5074 221.013 70.1261 221.184 70.8941 221.184ZM86.7821 224L80.9581 208.128H85.2461L89.2781 220.128L93.3101 208.128H97.5981L91.7421 224H86.7821ZM107.112 224.384C105.512 224.384 104.094 224.043 102.856 223.36C101.619 222.677 100.648 221.717 99.9443 220.48C99.2403 219.243 98.8883 217.813 98.8883 216.192C98.8883 214.549 99.2296 213.088 99.9123 211.808C100.616 210.528 101.576 209.536 102.792 208.832C104.03 208.107 105.48 207.744 107.144 207.744C108.702 207.744 110.078 208.085 111.272 208.768C112.467 209.451 113.395 210.389 114.056 211.584C114.739 212.757 115.08 214.069 115.08 215.52C115.08 215.755 115.07 216 115.048 216.256C115.048 216.512 115.038 216.779 115.016 217.056H102.952C103.038 218.293 103.464 219.264 104.232 219.968C105.022 220.672 105.971 221.024 107.08 221.024C107.912 221.024 108.606 220.843 109.16 220.48C109.736 220.096 110.163 219.605 110.44 219.008H114.6C114.302 220.011 113.8 220.928 113.096 221.76C112.414 222.571 111.56 223.211 110.536 223.68C109.534 224.149 108.392 224.384 107.112 224.384ZM107.144 211.072C106.142 211.072 105.256 211.36 104.488 211.936C103.72 212.491 103.23 213.344 103.016 214.496H110.92C110.856 213.451 110.472 212.619 109.768 212C109.064 211.381 108.19 211.072 107.144 211.072ZM118.525 224V200.96H122.621V224H118.525ZM137.536 224L132.896 208.128H136.96L139.712 219.552L142.912 208.128H147.456L150.656 219.552L153.44 208.128H157.504L152.832 224H148.576L145.184 212.128L141.792 224H137.536ZM162.296 205.664C161.549 205.664 160.93 205.44 160.44 204.992C159.97 204.544 159.736 203.979 159.736 203.296C159.736 202.613 159.97 202.059 160.44 201.632C160.93 201.184 161.549 200.96 162.296 200.96C163.042 200.96 163.65 201.184 164.12 201.632C164.61 202.059 164.856 202.613 164.856 203.296C164.856 203.979 164.61 204.544 164.12 204.992C163.65 205.44 163.042 205.664 162.296 205.664ZM160.248 224V208.128H164.344V224H160.248ZM175.691 224C174.027 224 172.694 223.595 171.691 222.784C170.688 221.973 170.187 220.533 170.187 218.464V211.552H167.467V208.128H170.187L170.667 203.872H174.283V208.128H178.571V211.552H174.283V218.496C174.283 219.264 174.443 219.797 174.763 220.096C175.104 220.373 175.68 220.512 176.491 220.512H178.475V224H175.691ZM182.088 224V200.96H186.184V210.56C186.717 209.685 187.432 209.003 188.328 208.512C189.245 208 190.29 207.744 191.464 207.744C193.426 207.744 194.941 208.363 196.008 209.6C197.096 210.837 197.64 212.651 197.64 215.04V224H193.576V215.424C193.576 214.059 193.298 213.013 192.744 212.288C192.21 211.563 191.357 211.2 190.184 211.2C189.032 211.2 188.072 211.605 187.304 212.416C186.557 213.227 186.184 214.357 186.184 215.808V224H182.088ZM44.7028 266.384C42.4415 266.384 40.5001 265.904 38.8788 264.944C37.2575 263.963 36.0095 262.608 35.1348 260.88C34.2601 259.131 33.8228 257.115 33.8228 254.832C33.8228 252.549 34.2601 250.533 35.1348 248.784C36.0095 247.035 37.2575 245.669 38.8788 244.688C40.5001 243.707 42.4415 243.216 44.7028 243.216C47.3908 243.216 49.5881 243.888 51.2948 245.232C53.0228 246.555 54.1001 248.421 54.5268 250.832H50.0148C49.7375 249.616 49.1401 248.667 48.2228 247.984C47.3268 247.28 46.1321 246.928 44.6388 246.928C42.5695 246.928 40.9481 247.632 39.7748 249.04C38.6015 250.448 38.0148 252.379 38.0148 254.832C38.0148 257.285 38.6015 259.216 39.7748 260.624C40.9481 262.011 42.5695 262.704 44.6388 262.704C46.1321 262.704 47.3268 262.384 48.2228 261.744C49.1401 261.083 49.7375 260.176 50.0148 259.024H54.5268C54.1001 261.328 53.0228 263.131 51.2948 264.432C49.5881 265.733 47.3908 266.384 44.7028 266.384ZM58.0566 266V250.128H61.7046L62.0886 253.104C62.6646 252.08 63.4432 251.269 64.4246 250.672C65.4272 250.053 66.6006 249.744 67.9446 249.744V254.064H66.7926C65.8966 254.064 65.0966 254.203 64.3926 254.48C63.6886 254.757 63.1339 255.237 62.7286 255.92C62.3446 256.603 62.1526 257.552 62.1526 258.768V266H58.0566ZM78.1748 266.384C76.5748 266.384 75.1561 266.043 73.9188 265.36C72.6815 264.677 71.7108 263.717 71.0068 262.48C70.3028 261.243 69.9508 259.813 69.9508 258.192C69.9508 256.549 70.2921 255.088 70.9748 253.808C71.6788 252.528 72.6388 251.536 73.8548 250.832C75.0921 250.107 76.5428 249.744 78.2068 249.744C79.7641 249.744 81.1401 250.085 82.3348 250.768C83.5295 251.451 84.4575 252.389 85.1188 253.584C85.8015 254.757 86.1428 256.069 86.1428 257.52C86.1428 257.755 86.1321 258 86.1108 258.256C86.1108 258.512 86.1001 258.779 86.0788 259.056H74.0148C74.1001 260.293 74.5268 261.264 75.2948 261.968C76.0841 262.672 77.0335 263.024 78.1428 263.024C78.9748 263.024 79.6681 262.843 80.2228 262.48C80.7988 262.096 81.2255 261.605 81.5028 261.008H85.6628C85.3641 262.011 84.8628 262.928 84.1588 263.76C83.4761 264.571 82.6228 265.211 81.5988 265.68C80.5961 266.149 79.4548 266.384 78.1748 266.384ZM78.2068 253.072C77.2041 253.072 76.3188 253.36 75.5508 253.936C74.7828 254.491 74.2921 255.344 74.0788 256.496H81.9828C81.9188 255.451 81.5348 254.619 80.8308 254C80.1268 253.381 79.2521 253.072 78.2068 253.072ZM96.8838 266.384C95.3905 266.384 94.0571 266.021 92.8838 265.296C91.7105 264.571 90.7825 263.579 90.0998 262.32C89.4171 261.061 89.0758 259.632 89.0758 258.032C89.0758 256.432 89.4171 255.013 90.0998 253.776C90.7825 252.517 91.7105 251.536 92.8838 250.832C94.0571 250.107 95.3905 249.744 96.8838 249.744C98.0785 249.744 99.1238 249.968 100.02 250.416C100.916 250.864 101.641 251.493 102.196 252.304V242.96H106.292V266H102.644L102.196 263.728C101.684 264.432 101.001 265.051 100.148 265.584C99.3158 266.117 98.2278 266.384 96.8838 266.384ZM97.7478 262.8C99.0705 262.8 100.148 262.363 100.98 261.488C101.833 260.592 102.26 259.451 102.26 258.064C102.26 256.677 101.833 255.547 100.98 254.672C100.148 253.776 99.0705 253.328 97.7478 253.328C96.4465 253.328 95.3691 253.765 94.5158 254.64C93.6625 255.515 93.2358 256.645 93.2358 258.032C93.2358 259.419 93.6625 260.56 94.5158 261.456C95.3691 262.352 96.4465 262.8 97.7478 262.8ZM110.559 266V243.6H118.847C120.639 243.6 122.121 243.899 123.295 244.496C124.468 245.093 125.343 245.915 125.919 246.96C126.495 248.005 126.783 249.179 126.783 250.48C126.783 251.717 126.505 252.859 125.951 253.904C125.396 254.928 124.532 255.76 123.359 256.4C122.185 257.019 120.681 257.328 118.847 257.328H114.655V266H110.559ZM114.655 254H118.591C120.02 254 121.044 253.691 121.663 253.072C122.303 252.432 122.623 251.568 122.623 250.48C122.623 249.371 122.303 248.507 121.663 247.888C121.044 247.248 120.02 246.928 118.591 246.928H114.655V254ZM134.372 266.384C133.007 266.384 131.887 266.171 131.012 265.744C130.138 265.296 129.487 264.709 129.06 263.984C128.634 263.259 128.42 262.459 128.42 261.584C128.42 260.112 128.996 258.917 130.148 258C131.3 257.083 133.028 256.624 135.332 256.624H139.364V256.24C139.364 255.152 139.055 254.352 138.436 253.84C137.818 253.328 137.05 253.072 136.132 253.072C135.3 253.072 134.575 253.275 133.956 253.68C133.338 254.064 132.954 254.64 132.804 255.408H128.804C128.911 254.256 129.295 253.253 129.956 252.4C130.639 251.547 131.514 250.896 132.58 250.448C133.647 249.979 134.842 249.744 136.164 249.744C138.426 249.744 140.207 250.309 141.508 251.44C142.81 252.571 143.46 254.171 143.46 256.24V266H139.972L139.588 263.44C139.119 264.293 138.458 264.997 137.604 265.552C136.772 266.107 135.695 266.384 134.372 266.384ZM135.3 263.184C136.474 263.184 137.38 262.8 138.02 262.032C138.682 261.264 139.098 260.315 139.268 259.184H135.78C134.692 259.184 133.914 259.387 133.444 259.792C132.975 260.176 132.74 260.656 132.74 261.232C132.74 261.851 132.975 262.331 133.444 262.672C133.914 263.013 134.532 263.184 135.3 263.184ZM147.369 266V242.96H151.465V266H147.369Z" fill="#141416"/>
<path d="M32.9848 298.114C32.9848 297.162 33.1995 296.308 33.6288 295.552C34.0581 294.787 34.6415 294.189 35.3788 293.76C36.1255 293.331 36.9515 293.116 37.8568 293.116C38.9208 293.116 39.8495 293.373 40.6428 293.886C41.4361 294.399 42.0148 295.127 42.3788 296.07H40.8528C40.5821 295.482 40.1901 295.029 39.6768 294.712C39.1728 294.395 38.5661 294.236 37.8568 294.236C37.1755 294.236 36.5641 294.395 36.0228 294.712C35.4815 295.029 35.0568 295.482 34.7488 296.07C34.4408 296.649 34.2868 297.33 34.2868 298.114C34.2868 298.889 34.4408 299.57 34.7488 300.158C35.0568 300.737 35.4815 301.185 36.0228 301.502C36.5641 301.819 37.1755 301.978 37.8568 301.978C38.5661 301.978 39.1728 301.824 39.6768 301.516C40.1901 301.199 40.5821 300.746 40.8528 300.158H42.3788C42.0148 301.091 41.4361 301.815 40.6428 302.328C39.8495 302.832 38.9208 303.084 37.8568 303.084C36.9515 303.084 36.1255 302.874 35.3788 302.454C34.6415 302.025 34.0581 301.432 33.6288 300.676C33.1995 299.92 32.9848 299.066 32.9848 298.114ZM45.5493 296.574C45.7733 296.135 46.0906 295.795 46.5013 295.552C46.9213 295.309 47.4299 295.188 48.0273 295.188V296.504H47.6913C46.2633 296.504 45.5493 297.279 45.5493 298.828V303H44.2753V295.328H45.5493V296.574ZM56.4979 298.87C56.4979 299.113 56.4839 299.369 56.4559 299.64H50.3239C50.3706 300.396 50.6273 300.989 51.0939 301.418C51.5699 301.838 52.1439 302.048 52.8159 302.048C53.3666 302.048 53.8239 301.922 54.1879 301.67C54.5613 301.409 54.8226 301.063 54.9719 300.634H56.3439C56.1386 301.371 55.7279 301.973 55.1119 302.44C54.4959 302.897 53.7306 303.126 52.8159 303.126C52.0879 303.126 51.4346 302.963 50.8559 302.636C50.2866 302.309 49.8386 301.847 49.5119 301.25C49.1853 300.643 49.0219 299.943 49.0219 299.15C49.0219 298.357 49.1806 297.661 49.4979 297.064C49.8153 296.467 50.2586 296.009 50.8279 295.692C51.4066 295.365 52.0693 295.202 52.8159 295.202C53.5439 295.202 54.1879 295.361 54.7479 295.678C55.3079 295.995 55.7373 296.434 56.0359 296.994C56.3439 297.545 56.4979 298.17 56.4979 298.87ZM55.1819 298.604C55.1819 298.119 55.0746 297.703 54.8599 297.358C54.6453 297.003 54.3513 296.737 53.9779 296.56C53.6139 296.373 53.2079 296.28 52.7599 296.28C52.1159 296.28 51.5653 296.485 51.1079 296.896C50.6599 297.307 50.4033 297.876 50.3379 298.604H55.1819ZM57.7036 299.136C57.7036 298.352 57.8622 297.666 58.1796 297.078C58.4969 296.481 58.9309 296.019 59.4816 295.692C60.0416 295.365 60.6669 295.202 61.3576 295.202C61.9549 295.202 62.5102 295.342 63.0236 295.622C63.5369 295.893 63.9289 296.252 64.1996 296.7V292.64H65.4876V303H64.1996V301.558C63.9476 302.015 63.5742 302.393 63.0796 302.692C62.5849 302.981 62.0062 303.126 61.3436 303.126C60.6622 303.126 60.0416 302.958 59.4816 302.622C58.9309 302.286 58.4969 301.815 58.1796 301.208C57.8622 300.601 57.7036 299.911 57.7036 299.136ZM64.1996 299.15C64.1996 298.571 64.0829 298.067 63.8496 297.638C63.6162 297.209 63.2989 296.882 62.8976 296.658C62.5056 296.425 62.0716 296.308 61.5956 296.308C61.1196 296.308 60.6856 296.42 60.2936 296.644C59.9016 296.868 59.5889 297.195 59.3556 297.624C59.1222 298.053 59.0056 298.557 59.0056 299.136C59.0056 299.724 59.1222 300.237 59.3556 300.676C59.5889 301.105 59.9016 301.437 60.2936 301.67C60.6856 301.894 61.1196 302.006 61.5956 302.006C62.0716 302.006 62.5056 301.894 62.8976 301.67C63.2989 301.437 63.6162 301.105 63.8496 300.676C64.0829 300.237 64.1996 299.729 64.1996 299.15ZM74.1645 296.098C74.1645 296.91 73.8845 297.587 73.3245 298.128C72.7738 298.66 71.9292 298.926 70.7905 298.926H68.9145V303H67.6405V293.242H70.7905C71.8918 293.242 72.7272 293.508 73.2965 294.04C73.8752 294.572 74.1645 295.258 74.1645 296.098ZM70.7905 297.876C71.4998 297.876 72.0225 297.722 72.3585 297.414C72.6945 297.106 72.8625 296.667 72.8625 296.098C72.8625 294.894 72.1718 294.292 70.7905 294.292H68.9145V297.876H70.7905ZM75.2719 299.136C75.2719 298.352 75.4306 297.666 75.7479 297.078C76.0653 296.481 76.4993 296.019 77.0499 295.692C77.6099 295.365 78.2306 295.202 78.9119 295.202C79.5839 295.202 80.1673 295.347 80.6619 295.636C81.1566 295.925 81.5253 296.289 81.7679 296.728V295.328H83.0559V303H81.7679V301.572C81.5159 302.02 81.1379 302.393 80.6339 302.692C80.1393 302.981 79.5606 303.126 78.8979 303.126C78.2166 303.126 77.6006 302.958 77.0499 302.622C76.4993 302.286 76.0653 301.815 75.7479 301.208C75.4306 300.601 75.2719 299.911 75.2719 299.136ZM81.7679 299.15C81.7679 298.571 81.6513 298.067 81.4179 297.638C81.1846 297.209 80.8673 296.882 80.4659 296.658C80.0739 296.425 79.6399 296.308 79.1639 296.308C78.6879 296.308 78.2539 296.42 77.8619 296.644C77.4699 296.868 77.1573 297.195 76.9239 297.624C76.6906 298.053 76.5739 298.557 76.5739 299.136C76.5739 299.724 76.6906 300.237 76.9239 300.676C77.1573 301.105 77.4699 301.437 77.8619 301.67C78.2539 301.894 78.6879 302.006 79.1639 302.006C79.6399 302.006 80.0739 301.894 80.4659 301.67C80.8673 301.437 81.1846 301.105 81.4179 300.676C81.6513 300.237 81.7679 299.729 81.7679 299.15ZM86.4829 292.64V303H85.2089V292.64H86.4829ZM99.1906 295.328V303H97.9166V301.866C97.6739 302.258 97.3333 302.566 96.8946 302.79C96.4653 303.005 95.9893 303.112 95.4666 303.112C94.8693 303.112 94.3326 302.991 93.8566 302.748C93.3806 302.496 93.0026 302.123 92.7226 301.628C92.4519 301.133 92.3166 300.531 92.3166 299.822V295.328H93.5766V299.654C93.5766 300.41 93.7679 300.993 94.1506 301.404C94.5333 301.805 95.0559 302.006 95.7186 302.006C96.3999 302.006 96.9366 301.796 97.3286 301.376C97.7206 300.956 97.9166 300.345 97.9166 299.542V295.328H99.1906ZM104.058 303.126C103.47 303.126 102.942 303.028 102.476 302.832C102.009 302.627 101.64 302.347 101.37 301.992C101.099 301.628 100.95 301.213 100.922 300.746H102.238C102.275 301.129 102.452 301.441 102.77 301.684C103.096 301.927 103.521 302.048 104.044 302.048C104.529 302.048 104.912 301.941 105.192 301.726C105.472 301.511 105.612 301.241 105.612 300.914C105.612 300.578 105.462 300.331 105.164 300.172C104.865 300.004 104.403 299.841 103.778 299.682C103.208 299.533 102.742 299.383 102.378 299.234C102.023 299.075 101.715 298.847 101.454 298.548C101.202 298.24 101.076 297.839 101.076 297.344C101.076 296.952 101.192 296.593 101.426 296.266C101.659 295.939 101.99 295.683 102.42 295.496C102.849 295.3 103.339 295.202 103.89 295.202C104.739 295.202 105.425 295.417 105.948 295.846C106.47 296.275 106.75 296.863 106.788 297.61H105.514C105.486 297.209 105.322 296.887 105.024 296.644C104.734 296.401 104.342 296.28 103.848 296.28C103.39 296.28 103.026 296.378 102.756 296.574C102.485 296.77 102.35 297.027 102.35 297.344C102.35 297.596 102.429 297.806 102.588 297.974C102.756 298.133 102.961 298.263 103.204 298.366C103.456 298.459 103.801 298.567 104.24 298.688C104.79 298.837 105.238 298.987 105.584 299.136C105.929 299.276 106.223 299.491 106.466 299.78C106.718 300.069 106.848 300.447 106.858 300.914C106.858 301.334 106.741 301.712 106.508 302.048C106.274 302.384 105.943 302.65 105.514 302.846C105.094 303.033 104.608 303.126 104.058 303.126ZM115.656 298.87C115.656 299.113 115.642 299.369 115.614 299.64H109.482C109.529 300.396 109.785 300.989 110.252 301.418C110.728 301.838 111.302 302.048 111.974 302.048C112.525 302.048 112.982 301.922 113.346 301.67C113.719 301.409 113.981 301.063 114.13 300.634H115.502C115.297 301.371 114.886 301.973 114.27 302.44C113.654 302.897 112.889 303.126 111.974 303.126C111.246 303.126 110.593 302.963 110.014 302.636C109.445 302.309 108.997 301.847 108.67 301.25C108.343 300.643 108.18 299.943 108.18 299.15C108.18 298.357 108.339 297.661 108.656 297.064C108.973 296.467 109.417 296.009 109.986 295.692C110.565 295.365 111.227 295.202 111.974 295.202C112.702 295.202 113.346 295.361 113.906 295.678C114.466 295.995 114.895 296.434 115.194 296.994C115.502 297.545 115.656 298.17 115.656 298.87ZM114.34 298.604C114.34 298.119 114.233 297.703 114.018 297.358C113.803 297.003 113.509 296.737 113.136 296.56C112.772 296.373 112.366 296.28 111.918 296.28C111.274 296.28 110.723 296.485 110.266 296.896C109.818 297.307 109.561 297.876 109.496 298.604H114.34ZM118.612 296.574C118.836 296.135 119.153 295.795 119.564 295.552C119.984 295.309 120.492 295.188 121.09 295.188V296.504H120.754C119.326 296.504 118.612 297.279 118.612 298.828V303H117.338V295.328H118.612V296.574ZM125.276 303.126C124.688 303.126 124.161 303.028 123.694 302.832C123.228 302.627 122.859 302.347 122.588 301.992C122.318 301.628 122.168 301.213 122.14 300.746H123.456C123.494 301.129 123.671 301.441 123.988 301.684C124.315 301.927 124.74 302.048 125.262 302.048C125.748 302.048 126.13 301.941 126.41 301.726C126.69 301.511 126.83 301.241 126.83 300.914C126.83 300.578 126.681 300.331 126.382 300.172C126.084 300.004 125.622 299.841 124.996 299.682C124.427 299.533 123.96 299.383 123.596 299.234C123.242 299.075 122.934 298.847 122.672 298.548C122.42 298.24 122.294 297.839 122.294 297.344C122.294 296.952 122.411 296.593 122.644 296.266C122.878 295.939 123.209 295.683 123.638 295.496C124.068 295.3 124.558 295.202 125.108 295.202C125.958 295.202 126.644 295.417 127.166 295.846C127.689 296.275 127.969 296.863 128.006 297.61H126.732C126.704 297.209 126.541 296.887 126.242 296.644C125.953 296.401 125.561 296.28 125.066 296.28C124.609 296.28 124.245 296.378 123.974 296.574C123.704 296.77 123.568 297.027 123.568 297.344C123.568 297.596 123.648 297.806 123.806 297.974C123.974 298.133 124.18 298.263 124.422 298.366C124.674 298.459 125.02 298.567 125.458 298.688C126.009 298.837 126.457 298.987 126.802 299.136C127.148 299.276 127.442 299.491 127.684 299.78C127.936 300.069 128.067 300.447 128.076 300.914C128.076 301.334 127.96 301.712 127.726 302.048C127.493 302.384 127.162 302.65 126.732 302.846C126.312 303.033 125.827 303.126 125.276 303.126ZM133.131 299.15C133.131 298.357 133.29 297.666 133.607 297.078C133.925 296.481 134.363 296.019 134.923 295.692C135.493 295.365 136.141 295.202 136.869 295.202C137.812 295.202 138.587 295.431 139.193 295.888C139.809 296.345 140.215 296.98 140.411 297.792H139.039C138.909 297.325 138.652 296.957 138.269 296.686C137.896 296.415 137.429 296.28 136.869 296.28C136.141 296.28 135.553 296.532 135.105 297.036C134.657 297.531 134.433 298.235 134.433 299.15C134.433 300.074 134.657 300.788 135.105 301.292C135.553 301.796 136.141 302.048 136.869 302.048C137.429 302.048 137.896 301.917 138.269 301.656C138.643 301.395 138.899 301.021 139.039 300.536H140.411C140.206 301.32 139.795 301.95 139.179 302.426C138.563 302.893 137.793 303.126 136.869 303.126C136.141 303.126 135.493 302.963 134.923 302.636C134.363 302.309 133.925 301.847 133.607 301.25C133.29 300.653 133.131 299.953 133.131 299.15ZM141.635 299.136C141.635 298.352 141.794 297.666 142.111 297.078C142.429 296.481 142.863 296.019 143.413 295.692C143.973 295.365 144.594 295.202 145.275 295.202C145.947 295.202 146.531 295.347 147.025 295.636C147.52 295.925 147.889 296.289 148.131 296.728V295.328H149.419V303H148.131V301.572C147.879 302.02 147.501 302.393 146.997 302.692C146.503 302.981 145.924 303.126 145.261 303.126C144.58 303.126 143.964 302.958 143.413 302.622C142.863 302.286 142.429 301.815 142.111 301.208C141.794 300.601 141.635 299.911 141.635 299.136ZM148.131 299.15C148.131 298.571 148.015 298.067 147.781 297.638C147.548 297.209 147.231 296.882 146.829 296.658C146.437 296.425 146.003 296.308 145.527 296.308C145.051 296.308 144.617 296.42 144.225 296.644C143.833 296.868 143.521 297.195 143.287 297.624C143.054 298.053 142.937 298.557 142.937 299.136C142.937 299.724 143.054 300.237 143.287 300.676C143.521 301.105 143.833 301.437 144.225 301.67C144.617 301.894 145.051 302.006 145.527 302.006C146.003 302.006 146.437 301.894 146.829 301.67C147.231 301.437 147.548 301.105 147.781 300.676C148.015 300.237 148.131 299.729 148.131 299.15ZM155.31 295.188C156.243 295.188 156.999 295.473 157.578 296.042C158.157 296.602 158.446 297.414 158.446 298.478V303H157.186V298.66C157.186 297.895 156.995 297.311 156.612 296.91C156.229 296.499 155.707 296.294 155.044 296.294C154.372 296.294 153.835 296.504 153.434 296.924C153.042 297.344 152.846 297.955 152.846 298.758V303H151.572V295.328H152.846V296.42C153.098 296.028 153.439 295.725 153.868 295.51C154.307 295.295 154.787 295.188 155.31 295.188ZM165.534 296.742C165.786 296.303 166.159 295.939 166.654 295.65C167.158 295.351 167.741 295.202 168.404 295.202C169.085 295.202 169.701 295.365 170.252 295.692C170.812 296.019 171.25 296.481 171.568 297.078C171.885 297.666 172.044 298.352 172.044 299.136C172.044 299.911 171.885 300.601 171.568 301.208C171.25 301.815 170.812 302.286 170.252 302.622C169.701 302.958 169.085 303.126 168.404 303.126C167.75 303.126 167.172 302.981 166.668 302.692C166.173 302.393 165.795 302.025 165.534 301.586V306.64H164.26V295.328H165.534V296.742ZM170.742 299.136C170.742 298.557 170.625 298.053 170.392 297.624C170.158 297.195 169.841 296.868 169.44 296.644C169.048 296.42 168.614 296.308 168.138 296.308C167.671 296.308 167.237 296.425 166.836 296.658C166.444 296.882 166.126 297.213 165.884 297.652C165.65 298.081 165.534 298.581 165.534 299.15C165.534 299.729 165.65 300.237 165.884 300.676C166.126 301.105 166.444 301.437 166.836 301.67C167.237 301.894 167.671 302.006 168.138 302.006C168.614 302.006 169.048 301.894 169.44 301.67C169.841 301.437 170.158 301.105 170.392 300.676C170.625 300.237 170.742 299.724 170.742 299.136ZM173.245 299.136C173.245 298.352 173.403 297.666 173.721 297.078C174.038 296.481 174.472 296.019 175.023 295.692C175.583 295.365 176.203 295.202 176.885 295.202C177.557 295.202 178.14 295.347 178.635 295.636C179.129 295.925 179.498 296.289 179.741 296.728V295.328H181.029V303H179.741V301.572C179.489 302.02 179.111 302.393 178.607 302.692C178.112 302.981 177.533 303.126 176.871 303.126C176.189 303.126 175.573 302.958 175.023 302.622C174.472 302.286 174.038 301.815 173.721 301.208C173.403 300.601 173.245 299.911 173.245 299.136ZM179.741 299.15C179.741 298.571 179.624 298.067 179.391 297.638C179.157 297.209 178.84 296.882 178.439 296.658C178.047 296.425 177.613 296.308 177.137 296.308C176.661 296.308 176.227 296.42 175.835 296.644C175.443 296.868 175.13 297.195 174.897 297.624C174.663 298.053 174.547 298.557 174.547 299.136C174.547 299.724 174.663 300.237 174.897 300.676C175.13 301.105 175.443 301.437 175.835 301.67C176.227 301.894 176.661 302.006 177.137 302.006C177.613 302.006 178.047 301.894 178.439 301.67C178.84 301.437 179.157 301.105 179.391 300.676C179.624 300.237 179.741 299.729 179.741 299.15ZM189.79 295.328L185.17 306.612H183.854L185.366 302.916L182.272 295.328H183.686L186.094 301.544L188.474 295.328H189.79ZM197.925 296.378H196.315V303H195.041V296.378H194.047V295.328H195.041V294.782C195.041 293.923 195.26 293.298 195.699 292.906C196.147 292.505 196.861 292.304 197.841 292.304V293.368C197.281 293.368 196.884 293.48 196.651 293.704C196.427 293.919 196.315 294.278 196.315 294.782V295.328H197.925V296.378ZM202.756 303.126C202.037 303.126 201.384 302.963 200.796 302.636C200.217 302.309 199.76 301.847 199.424 301.25C199.097 300.643 198.934 299.943 198.934 299.15C198.934 298.366 199.102 297.675 199.438 297.078C199.783 296.471 200.25 296.009 200.838 295.692C201.426 295.365 202.084 295.202 202.812 295.202C203.54 295.202 204.198 295.365 204.786 295.692C205.374 296.009 205.836 296.467 206.172 297.064C206.517 297.661 206.69 298.357 206.69 299.15C206.69 299.943 206.513 300.643 206.158 301.25C205.813 301.847 205.341 302.309 204.744 302.636C204.147 302.963 203.484 303.126 202.756 303.126ZM202.756 302.006C203.213 302.006 203.643 301.899 204.044 301.684C204.445 301.469 204.767 301.147 205.01 300.718C205.262 300.289 205.388 299.766 205.388 299.15C205.388 298.534 205.267 298.011 205.024 297.582C204.781 297.153 204.464 296.835 204.072 296.63C203.68 296.415 203.255 296.308 202.798 296.308C202.331 296.308 201.902 296.415 201.51 296.63C201.127 296.835 200.819 297.153 200.586 297.582C200.353 298.011 200.236 298.534 200.236 299.15C200.236 299.775 200.348 300.303 200.572 300.732C200.805 301.161 201.113 301.483 201.496 301.698C201.879 301.903 202.299 302.006 202.756 302.006ZM209.639 296.574C209.863 296.135 210.18 295.795 210.591 295.552C211.011 295.309 211.52 295.188 212.117 295.188V296.504H211.781C210.353 296.504 209.639 297.279 209.639 298.828V303H208.365V295.328H209.639V296.574ZM218.594 296.756C218.856 296.299 219.238 295.925 219.742 295.636C220.246 295.347 220.82 295.202 221.464 295.202C222.155 295.202 222.776 295.365 223.326 295.692C223.877 296.019 224.311 296.481 224.628 297.078C224.946 297.666 225.104 298.352 225.104 299.136C225.104 299.911 224.946 300.601 224.628 301.208C224.311 301.815 223.872 302.286 223.312 302.622C222.762 302.958 222.146 303.126 221.464 303.126C220.802 303.126 220.218 302.981 219.714 302.692C219.22 302.403 218.846 302.034 218.594 301.586V303H217.32V292.64H218.594V296.756ZM223.802 299.136C223.802 298.557 223.686 298.053 223.452 297.624C223.219 297.195 222.902 296.868 222.5 296.644C222.108 296.42 221.674 296.308 221.198 296.308C220.732 296.308 220.298 296.425 219.896 296.658C219.504 296.882 219.187 297.213 218.944 297.652C218.711 298.081 218.594 298.581 218.594 299.15C218.594 299.729 218.711 300.237 218.944 300.676C219.187 301.105 219.504 301.437 219.896 301.67C220.298 301.894 220.732 302.006 221.198 302.006C221.674 302.006 222.108 301.894 222.5 301.67C222.902 301.437 223.219 301.105 223.452 300.676C223.686 300.237 223.802 299.724 223.802 299.136ZM227.439 294.082C227.196 294.082 226.991 293.998 226.823 293.83C226.655 293.662 226.571 293.457 226.571 293.214C226.571 292.971 226.655 292.766 226.823 292.598C226.991 292.43 227.196 292.346 227.439 292.346C227.672 292.346 227.868 292.43 228.027 292.598C228.195 292.766 228.279 292.971 228.279 293.214C228.279 293.457 228.195 293.662 228.027 293.83C227.868 293.998 227.672 294.082 227.439 294.082ZM228.055 295.328V303H226.781V295.328H228.055ZM231.5 292.64V303H230.226V292.64H231.5ZM234.946 292.64V303H233.672V292.64H234.946ZM239.833 303.126C239.245 303.126 238.718 303.028 238.251 302.832C237.784 302.627 237.416 302.347 237.145 301.992C236.874 301.628 236.725 301.213 236.697 300.746H238.013C238.05 301.129 238.228 301.441 238.545 301.684C238.872 301.927 239.296 302.048 239.819 302.048C240.304 302.048 240.687 301.941 240.967 301.726C241.247 301.511 241.387 301.241 241.387 300.914C241.387 300.578 241.238 300.331 240.939 300.172C240.64 300.004 240.178 299.841 239.553 299.682C238.984 299.533 238.517 299.383 238.153 299.234C237.798 299.075 237.49 298.847 237.229 298.548C236.977 298.24 236.851 297.839 236.851 297.344C236.851 296.952 236.968 296.593 237.201 296.266C237.434 295.939 237.766 295.683 238.195 295.496C238.624 295.3 239.114 295.202 239.665 295.202C240.514 295.202 241.2 295.417 241.723 295.846C242.246 296.275 242.526 296.863 242.563 297.61H241.289C241.261 297.209 241.098 296.887 240.799 296.644C240.51 296.401 240.118 296.28 239.623 296.28C239.166 296.28 238.802 296.378 238.531 296.574C238.26 296.77 238.125 297.027 238.125 297.344C238.125 297.596 238.204 297.806 238.363 297.974C238.531 298.133 238.736 298.263 238.979 298.366C239.231 298.459 239.576 298.567 240.015 298.688C240.566 298.837 241.014 298.987 241.359 299.136C241.704 299.276 241.998 299.491 242.241 299.78C242.493 300.069 242.624 300.447 242.633 300.914C242.633 301.334 242.516 301.712 242.283 302.048C242.05 302.384 241.718 302.65 241.289 302.846C240.869 303.033 240.384 303.126 239.833 303.126ZM247.688 299.136C247.688 298.352 247.847 297.666 248.164 297.078C248.481 296.481 248.915 296.019 249.466 295.692C250.026 295.365 250.647 295.202 251.328 295.202C252 295.202 252.583 295.347 253.078 295.636C253.573 295.925 253.941 296.289 254.184 296.728V295.328H255.472V303H254.184V301.572C253.932 302.02 253.554 302.393 253.05 302.692C252.555 302.981 251.977 303.126 251.314 303.126C250.633 303.126 250.017 302.958 249.466 302.622C248.915 302.286 248.481 301.815 248.164 301.208C247.847 300.601 247.688 299.911 247.688 299.136ZM254.184 299.15C254.184 298.571 254.067 298.067 253.834 297.638C253.601 297.209 253.283 296.882 252.882 296.658C252.49 296.425 252.056 296.308 251.58 296.308C251.104 296.308 250.67 296.42 250.278 296.644C249.886 296.868 249.573 297.195 249.34 297.624C249.107 298.053 248.99 298.557 248.99 299.136C248.99 299.724 249.107 300.237 249.34 300.676C249.573 301.105 249.886 301.437 250.278 301.67C250.67 301.894 251.104 302.006 251.58 302.006C252.056 302.006 252.49 301.894 252.882 301.67C253.283 301.437 253.601 301.105 253.834 300.676C254.067 300.237 254.184 299.729 254.184 299.15ZM261.363 295.188C262.296 295.188 263.052 295.473 263.631 296.042C264.21 296.602 264.499 297.414 264.499 298.478V303H263.239V298.66C263.239 297.895 263.048 297.311 262.665 296.91C262.282 296.499 261.76 296.294 261.097 296.294C260.425 296.294 259.888 296.504 259.487 296.924C259.095 297.344 258.899 297.955 258.899 298.758V303H257.625V295.328H258.899V296.42C259.151 296.028 259.492 295.725 259.921 295.51C260.36 295.295 260.84 295.188 261.363 295.188ZM266.104 299.136C266.104 298.352 266.263 297.666 266.58 297.078C266.897 296.481 267.331 296.019 267.882 295.692C268.442 295.365 269.067 295.202 269.758 295.202C270.355 295.202 270.911 295.342 271.424 295.622C271.937 295.893 272.329 296.252 272.6 296.7V292.64H273.888V303H272.6V301.558C272.348 302.015 271.975 302.393 271.48 302.692C270.985 302.981 270.407 303.126 269.744 303.126C269.063 303.126 268.442 302.958 267.882 302.622C267.331 302.286 266.897 301.815 266.58 301.208C266.263 300.601 266.104 299.911 266.104 299.136ZM272.6 299.15C272.6 298.571 272.483 298.067 272.25 297.638C272.017 297.209 271.699 296.882 271.298 296.658C270.906 296.425 270.472 296.308 269.996 296.308C269.52 296.308 269.086 296.42 268.694 296.644C268.302 296.868 267.989 297.195 267.756 297.624C267.523 298.053 267.406 298.557 267.406 299.136C267.406 299.724 267.523 300.237 267.756 300.676C267.989 301.105 268.302 301.437 268.694 301.67C269.086 301.894 269.52 302.006 269.996 302.006C270.472 302.006 270.906 301.894 271.298 301.67C271.699 301.437 272.017 301.105 272.25 300.676C272.483 300.237 272.6 299.729 272.6 299.15ZM36.1768 327.126C35.5888 327.126 35.0615 327.028 34.5948 326.832C34.1281 326.627 33.7595 326.347 33.4888 325.992C33.2181 325.628 33.0688 325.213 33.0408 324.746H34.3568C34.3941 325.129 34.5715 325.441 34.8888 325.684C35.2155 325.927 35.6401 326.048 36.1628 326.048C36.6481 326.048 37.0308 325.941 37.3108 325.726C37.5908 325.511 37.7308 325.241 37.7308 324.914C37.7308 324.578 37.5815 324.331 37.2828 324.172C36.9841 324.004 36.5221 323.841 35.8968 323.682C35.3275 323.533 34.8608 323.383 34.4968 323.234C34.1421 323.075 33.8341 322.847 33.5728 322.548C33.3208 322.24 33.1948 321.839 33.1948 321.344C33.1948 320.952 33.3115 320.593 33.5448 320.266C33.7781 319.939 34.1095 319.683 34.5388 319.496C34.9681 319.3 35.4581 319.202 36.0088 319.202C36.8581 319.202 37.5441 319.417 38.0668 319.846C38.5895 320.275 38.8695 320.863 38.9068 321.61H37.6328C37.6048 321.209 37.4415 320.887 37.1428 320.644C36.8535 320.401 36.4615 320.28 35.9668 320.28C35.5095 320.28 35.1455 320.378 34.8748 320.574C34.6041 320.77 34.4688 321.027 34.4688 321.344C34.4688 321.596 34.5481 321.806 34.7068 321.974C34.8748 322.133 35.0801 322.263 35.3228 322.366C35.5748 322.459 35.9201 322.567 36.3588 322.688C36.9095 322.837 37.3575 322.987 37.7028 323.136C38.0481 323.276 38.3421 323.491 38.5848 323.78C38.8368 324.069 38.9675 324.447 38.9768 324.914C38.9768 325.334 38.8601 325.712 38.6268 326.048C38.3935 326.384 38.0621 326.65 37.6328 326.846C37.2128 327.033 36.7275 327.126 36.1768 327.126ZM47.7753 322.87C47.7753 323.113 47.7613 323.369 47.7333 323.64H41.6013C41.6479 324.396 41.9046 324.989 42.3713 325.418C42.8473 325.838 43.4213 326.048 44.0933 326.048C44.6439 326.048 45.1013 325.922 45.4653 325.67C45.8386 325.409 46.0999 325.063 46.2493 324.634H47.6213C47.4159 325.371 47.0053 325.973 46.3893 326.44C45.7733 326.897 45.0079 327.126 44.0933 327.126C43.3653 327.126 42.7119 326.963 42.1333 326.636C41.5639 326.309 41.1159 325.847 40.7893 325.25C40.4626 324.643 40.2993 323.943 40.2993 323.15C40.2993 322.357 40.4579 321.661 40.7753 321.064C41.0926 320.467 41.5359 320.009 42.1053 319.692C42.6839 319.365 43.3466 319.202 44.0933 319.202C44.8213 319.202 45.4653 319.361 46.0253 319.678C46.5853 319.995 47.0146 320.434 47.3133 320.994C47.6213 321.545 47.7753 322.17 47.7753 322.87ZM46.4593 322.604C46.4593 322.119 46.3519 321.703 46.1373 321.358C45.9226 321.003 45.6286 320.737 45.2553 320.56C44.8913 320.373 44.4853 320.28 44.0373 320.28C43.3933 320.28 42.8426 320.485 42.3853 320.896C41.9373 321.307 41.6806 321.876 41.6153 322.604H46.4593ZM50.7309 320.574C50.9549 320.135 51.2722 319.795 51.6829 319.552C52.1029 319.309 52.6116 319.188 53.2089 319.188V320.504H52.8729C51.4449 320.504 50.7309 321.279 50.7309 322.828V327H49.4569V319.328H50.7309V320.574ZM57.5356 325.824L59.9156 319.328H61.2736L58.2636 327H56.7796L53.7696 319.328H55.1416L57.5356 325.824ZM63.1852 318.082C62.9426 318.082 62.7372 317.998 62.5692 317.83C62.4012 317.662 62.3172 317.457 62.3172 317.214C62.3172 316.971 62.4012 316.766 62.5692 316.598C62.7372 316.43 62.9426 316.346 63.1852 316.346C63.4186 316.346 63.6146 316.43 63.7732 316.598C63.9412 316.766 64.0252 316.971 64.0252 317.214C64.0252 317.457 63.9412 317.662 63.7732 317.83C63.6146 317.998 63.4186 318.082 63.1852 318.082ZM63.8012 319.328V327H62.5272V319.328H63.8012ZM65.4965 323.15C65.4965 322.357 65.6552 321.666 65.9725 321.078C66.2899 320.481 66.7285 320.019 67.2885 319.692C67.8579 319.365 68.5065 319.202 69.2345 319.202C70.1772 319.202 70.9519 319.431 71.5585 319.888C72.1745 320.345 72.5805 320.98 72.7765 321.792H71.4045C71.2739 321.325 71.0172 320.957 70.6345 320.686C70.2612 320.415 69.7945 320.28 69.2345 320.28C68.5065 320.28 67.9185 320.532 67.4705 321.036C67.0225 321.531 66.7985 322.235 66.7985 323.15C66.7985 324.074 67.0225 324.788 67.4705 325.292C67.9185 325.796 68.5065 326.048 69.2345 326.048C69.7945 326.048 70.2612 325.917 70.6345 325.656C71.0079 325.395 71.2645 325.021 71.4045 324.536H72.7765C72.5712 325.32 72.1605 325.95 71.5445 326.426C70.9285 326.893 70.1585 327.126 69.2345 327.126C68.5065 327.126 67.8579 326.963 67.2885 326.636C66.7285 326.309 66.2899 325.847 65.9725 325.25C65.6552 324.653 65.4965 323.953 65.4965 323.15ZM81.4764 322.87C81.4764 323.113 81.4624 323.369 81.4344 323.64H75.3024C75.3491 324.396 75.6058 324.989 76.0724 325.418C76.5484 325.838 77.1224 326.048 77.7944 326.048C78.3451 326.048 78.8024 325.922 79.1664 325.67C79.5398 325.409 79.8011 325.063 79.9504 324.634H81.3224C81.1171 325.371 80.7064 325.973 80.0904 326.44C79.4744 326.897 78.7091 327.126 77.7944 327.126C77.0664 327.126 76.4131 326.963 75.8344 326.636C75.2651 326.309 74.8171 325.847 74.4904 325.25C74.1638 324.643 74.0004 323.943 74.0004 323.15C74.0004 322.357 74.1591 321.661 74.4764 321.064C74.7938 320.467 75.2371 320.009 75.8064 319.692C76.3851 319.365 77.0478 319.202 77.7944 319.202C78.5224 319.202 79.1664 319.361 79.7264 319.678C80.2864 319.995 80.7158 320.434 81.0144 320.994C81.3224 321.545 81.4764 322.17 81.4764 322.87ZM80.1604 322.604C80.1604 322.119 80.0531 321.703 79.8384 321.358C79.6238 321.003 79.3298 320.737 78.9564 320.56C78.5924 320.373 78.1864 320.28 77.7384 320.28C77.0944 320.28 76.5438 320.485 76.0864 320.896C75.6384 321.307 75.3818 321.876 75.3164 322.604H80.1604ZM85.8741 327.126C85.2861 327.126 84.7587 327.028 84.2921 326.832C83.8254 326.627 83.4567 326.347 83.1861 325.992C82.9154 325.628 82.7661 325.213 82.7381 324.746H84.0541C84.0914 325.129 84.2687 325.441 84.5861 325.684C84.9127 325.927 85.3374 326.048 85.8601 326.048C86.3454 326.048 86.7281 325.941 87.0081 325.726C87.2881 325.511 87.4281 325.241 87.4281 324.914C87.4281 324.578 87.2787 324.331 86.9801 324.172C86.6814 324.004 86.2194 323.841 85.5941 323.682C85.0247 323.533 84.5581 323.383 84.1941 323.234C83.8394 323.075 83.5314 322.847 83.2701 322.548C83.0181 322.24 82.8921 321.839 82.8921 321.344C82.8921 320.952 83.0087 320.593 83.2421 320.266C83.4754 319.939 83.8067 319.683 84.2361 319.496C84.6654 319.3 85.1554 319.202 85.7061 319.202C86.5554 319.202 87.2414 319.417 87.7641 319.846C88.2867 320.275 88.5667 320.863 88.6041 321.61H87.3301C87.3021 321.209 87.1387 320.887 86.8401 320.644C86.5507 320.401 86.1587 320.28 85.6641 320.28C85.2067 320.28 84.8427 320.378 84.5721 320.574C84.3014 320.77 84.1661 321.027 84.1661 321.344C84.1661 321.596 84.2454 321.806 84.4041 321.974C84.5721 322.133 84.7774 322.263 85.0201 322.366C85.2721 322.459 85.6174 322.567 86.0561 322.688C86.6067 322.837 87.0547 322.987 87.4001 323.136C87.7454 323.276 88.0394 323.491 88.2821 323.78C88.5341 324.069 88.6647 324.447 88.6741 324.914C88.6741 325.334 88.5574 325.712 88.3241 326.048C88.0907 326.384 87.7594 326.65 87.3301 326.846C86.9101 327.033 86.4247 327.126 85.8741 327.126ZM104.425 319.328L102.031 327H100.715L98.867 320.91L97.019 327H95.703L93.295 319.328H94.597L96.361 325.768L98.265 319.328H99.567L101.429 325.782L103.165 319.328H104.425ZM106.347 318.082C106.105 318.082 105.899 317.998 105.731 317.83C105.563 317.662 105.479 317.457 105.479 317.214C105.479 316.971 105.563 316.766 105.731 316.598C105.899 316.43 106.105 316.346 106.347 316.346C106.581 316.346 106.777 316.43 106.935 316.598C107.103 316.766 107.187 316.971 107.187 317.214C107.187 317.457 107.103 317.662 106.935 317.83C106.777 317.998 106.581 318.082 106.347 318.082ZM106.963 319.328V327H105.689V319.328H106.963ZM110.689 320.378V324.9C110.689 325.273 110.768 325.539 110.927 325.698C111.085 325.847 111.361 325.922 111.753 325.922H112.691V327H111.543C110.833 327 110.301 326.837 109.947 326.51C109.592 326.183 109.415 325.647 109.415 324.9V320.378H108.421V319.328H109.415V317.396H110.689V319.328H112.691V320.378H110.689ZM118.042 319.188C118.621 319.188 119.144 319.314 119.61 319.566C120.077 319.809 120.441 320.177 120.702 320.672C120.973 321.167 121.108 321.769 121.108 322.478V327H119.848V322.66C119.848 321.895 119.657 321.311 119.274 320.91C118.892 320.499 118.369 320.294 117.706 320.294C117.034 320.294 116.498 320.504 116.096 320.924C115.704 321.344 115.508 321.955 115.508 322.758V327H114.234V316.64H115.508V320.42C115.76 320.028 116.106 319.725 116.544 319.51C116.992 319.295 117.492 319.188 118.042 319.188ZM128.476 320.378V324.9C128.476 325.273 128.555 325.539 128.714 325.698C128.872 325.847 129.148 325.922 129.54 325.922H130.478V327H129.33C128.62 327 128.088 326.837 127.734 326.51C127.379 326.183 127.202 325.647 127.202 324.9V320.378H126.208V319.328H127.202V317.396H128.476V319.328H130.478V320.378H128.476ZM135.829 319.188C136.408 319.188 136.931 319.314 137.397 319.566C137.864 319.809 138.228 320.177 138.489 320.672C138.76 321.167 138.895 321.769 138.895 322.478V327H137.635V322.66C137.635 321.895 137.444 321.311 137.061 320.91C136.679 320.499 136.156 320.294 135.493 320.294C134.821 320.294 134.285 320.504 133.883 320.924C133.491 321.344 133.295 321.955 133.295 322.758V327H132.021V316.64H133.295V320.42C133.547 320.028 133.893 319.725 134.331 319.51C134.779 319.295 135.279 319.188 135.829 319.188ZM147.976 322.87C147.976 323.113 147.962 323.369 147.934 323.64H141.802C141.849 324.396 142.106 324.989 142.572 325.418C143.048 325.838 143.622 326.048 144.294 326.048C144.845 326.048 145.302 325.922 145.666 325.67C146.04 325.409 146.301 325.063 146.45 324.634H147.822C147.617 325.371 147.206 325.973 146.59 326.44C145.974 326.897 145.209 327.126 144.294 327.126C143.566 327.126 142.913 326.963 142.334 326.636C141.765 326.309 141.317 325.847 140.99 325.25C140.664 324.643 140.5 323.943 140.5 323.15C140.5 322.357 140.659 321.661 140.976 321.064C141.294 320.467 141.737 320.009 142.306 319.692C142.885 319.365 143.548 319.202 144.294 319.202C145.022 319.202 145.666 319.361 146.226 319.678C146.786 319.995 147.216 320.434 147.514 320.994C147.822 321.545 147.976 322.17 147.976 322.87ZM146.66 322.604C146.66 322.119 146.553 321.703 146.338 321.358C146.124 321.003 145.83 320.737 145.456 320.56C145.092 320.373 144.686 320.28 144.238 320.28C143.594 320.28 143.044 320.485 142.586 320.896C142.138 321.307 141.882 321.876 141.816 322.604H146.66ZM156.737 327.126C156.018 327.126 155.365 326.963 154.777 326.636C154.198 326.309 153.741 325.847 153.405 325.25C153.078 324.643 152.915 323.943 152.915 323.15C152.915 322.366 153.083 321.675 153.419 321.078C153.764 320.471 154.231 320.009 154.819 319.692C155.407 319.365 156.065 319.202 156.793 319.202C157.521 319.202 158.179 319.365 158.767 319.692C159.355 320.009 159.817 320.467 160.153 321.064C160.498 321.661 160.671 322.357 160.671 323.15C160.671 323.943 160.493 324.643 160.139 325.25C159.793 325.847 159.322 326.309 158.725 326.636C158.127 326.963 157.465 327.126 156.737 327.126ZM156.737 326.006C157.194 326.006 157.623 325.899 158.025 325.684C158.426 325.469 158.748 325.147 158.991 324.718C159.243 324.289 159.369 323.766 159.369 323.15C159.369 322.534 159.247 322.011 159.005 321.582C158.762 321.153 158.445 320.835 158.053 320.63C157.661 320.415 157.236 320.308 156.779 320.308C156.312 320.308 155.883 320.415 155.491 320.63C155.108 320.835 154.8 321.153 154.567 321.582C154.333 322.011 154.217 322.534 154.217 323.15C154.217 323.775 154.329 324.303 154.553 324.732C154.786 325.161 155.094 325.483 155.477 325.698C155.859 325.903 156.279 326.006 156.737 326.006ZM163.62 320.742C163.872 320.303 164.245 319.939 164.74 319.65C165.244 319.351 165.827 319.202 166.49 319.202C167.171 319.202 167.787 319.365 168.338 319.692C168.898 320.019 169.336 320.481 169.654 321.078C169.971 321.666 170.13 322.352 170.13 323.136C170.13 323.911 169.971 324.601 169.654 325.208C169.336 325.815 168.898 326.286 168.338 326.622C167.787 326.958 167.171 327.126 166.49 327.126C165.836 327.126 165.258 326.981 164.754 326.692C164.259 326.393 163.881 326.025 163.62 325.586V330.64H162.346V319.328H163.62V320.742ZM168.828 323.136C168.828 322.557 168.711 322.053 168.478 321.624C168.244 321.195 167.927 320.868 167.526 320.644C167.134 320.42 166.7 320.308 166.224 320.308C165.757 320.308 165.323 320.425 164.922 320.658C164.53 320.882 164.212 321.213 163.97 321.652C163.736 322.081 163.62 322.581 163.62 323.15C163.62 323.729 163.736 324.237 163.97 324.676C164.212 325.105 164.53 325.437 164.922 325.67C165.323 325.894 165.757 326.006 166.224 326.006C166.7 326.006 167.134 325.894 167.526 325.67C167.927 325.437 168.244 325.105 168.478 324.676C168.711 324.237 168.828 323.724 168.828 323.136ZM173.361 320.378V324.9C173.361 325.273 173.44 325.539 173.599 325.698C173.757 325.847 174.033 325.922 174.425 325.922H175.363V327H174.215C173.505 327 172.973 326.837 172.619 326.51C172.264 326.183 172.087 325.647 172.087 324.9V320.378H171.093V319.328H172.087V317.396H173.361V319.328H175.363V320.378H173.361ZM177.564 318.082C177.321 318.082 177.116 317.998 176.948 317.83C176.78 317.662 176.696 317.457 176.696 317.214C176.696 316.971 176.78 316.766 176.948 316.598C177.116 316.43 177.321 316.346 177.564 316.346C177.797 316.346 177.993 316.43 178.152 316.598C178.32 316.766 178.404 316.971 178.404 317.214C178.404 317.457 178.32 317.662 178.152 317.83C177.993 317.998 177.797 318.082 177.564 318.082ZM178.18 319.328V327H176.906V319.328H178.18ZM183.697 327.126C182.979 327.126 182.325 326.963 181.737 326.636C181.159 326.309 180.701 325.847 180.365 325.25C180.039 324.643 179.875 323.943 179.875 323.15C179.875 322.366 180.043 321.675 180.379 321.078C180.725 320.471 181.191 320.009 181.779 319.692C182.367 319.365 183.025 319.202 183.753 319.202C184.481 319.202 185.139 319.365 185.727 319.692C186.315 320.009 186.777 320.467 187.113 321.064C187.459 321.661 187.631 322.357 187.631 323.15C187.631 323.943 187.454 324.643 187.099 325.25C186.754 325.847 186.283 326.309 185.685 326.636C185.088 326.963 184.425 327.126 183.697 327.126ZM183.697 326.006C184.155 326.006 184.584 325.899 184.985 325.684C185.387 325.469 185.709 325.147 185.951 324.718C186.203 324.289 186.329 323.766 186.329 323.15C186.329 322.534 186.208 322.011 185.965 321.582C185.723 321.153 185.405 320.835 185.013 320.63C184.621 320.415 184.197 320.308 183.739 320.308C183.273 320.308 182.843 320.415 182.451 320.63C182.069 320.835 181.761 321.153 181.527 321.582C181.294 322.011 181.177 322.534 181.177 323.15C181.177 323.775 181.289 324.303 181.513 324.732C181.747 325.161 182.055 325.483 182.437 325.698C182.82 325.903 183.24 326.006 183.697 326.006ZM193.045 319.188C193.978 319.188 194.734 319.473 195.313 320.042C195.891 320.602 196.181 321.414 196.181 322.478V327H194.921V322.66C194.921 321.895 194.729 321.311 194.347 320.91C193.964 320.499 193.441 320.294 192.779 320.294C192.107 320.294 191.57 320.504 191.169 320.924C190.777 321.344 190.581 321.955 190.581 322.758V327H189.307V319.328H190.581V320.42C190.833 320.028 191.173 319.725 191.603 319.51C192.041 319.295 192.522 319.188 193.045 319.188ZM203.548 320.378V324.9C203.548 325.273 203.627 325.539 203.786 325.698C203.945 325.847 204.22 325.922 204.612 325.922H205.55V327H204.402C203.693 327 203.161 326.837 202.806 326.51C202.451 326.183 202.274 325.647 202.274 324.9V320.378H201.28V319.328H202.274V317.396H203.548V319.328H205.55V320.378H203.548ZM210.44 327.126C209.721 327.126 209.068 326.963 208.48 326.636C207.901 326.309 207.444 325.847 207.108 325.25C206.781 324.643 206.618 323.943 206.618 323.15C206.618 322.366 206.786 321.675 207.122 321.078C207.467 320.471 207.934 320.009 208.522 319.692C209.11 319.365 209.768 319.202 210.496 319.202C211.224 319.202 211.882 319.365 212.47 319.692C213.058 320.009 213.52 320.467 213.856 321.064C214.201 321.661 214.374 322.357 214.374 323.15C214.374 323.943 214.196 324.643 213.842 325.25C213.496 325.847 213.025 326.309 212.428 326.636C211.83 326.963 211.168 327.126 210.44 327.126ZM210.44 326.006C210.897 326.006 211.326 325.899 211.728 325.684C212.129 325.469 212.451 325.147 212.694 324.718C212.946 324.289 213.072 323.766 213.072 323.15C213.072 322.534 212.95 322.011 212.708 321.582C212.465 321.153 212.148 320.835 211.756 320.63C211.364 320.415 210.939 320.308 210.482 320.308C210.015 320.308 209.586 320.415 209.194 320.63C208.811 320.835 208.503 321.153 208.27 321.582C208.036 322.011 207.92 322.534 207.92 323.15C207.92 323.775 208.032 324.303 208.256 324.732C208.489 325.161 208.797 325.483 209.18 325.698C209.562 325.903 209.982 326.006 210.44 326.006ZM221.055 320.742C221.307 320.303 221.68 319.939 222.175 319.65C222.679 319.351 223.262 319.202 223.925 319.202C224.606 319.202 225.222 319.365 225.773 319.692C226.333 320.019 226.772 320.481 227.089 321.078C227.406 321.666 227.565 322.352 227.565 323.136C227.565 323.911 227.406 324.601 227.089 325.208C226.772 325.815 226.333 326.286 225.773 326.622C225.222 326.958 224.606 327.126 223.925 327.126C223.272 327.126 222.693 326.981 222.189 326.692C221.694 326.393 221.316 326.025 221.055 325.586V330.64H219.781V319.328H221.055V320.742ZM226.263 323.136C226.263 322.557 226.146 322.053 225.913 321.624C225.68 321.195 225.362 320.868 224.961 320.644C224.569 320.42 224.135 320.308 223.659 320.308C223.192 320.308 222.758 320.425 222.357 320.658C221.965 320.882 221.648 321.213 221.405 321.652C221.172 322.081 221.055 322.581 221.055 323.15C221.055 323.729 221.172 324.237 221.405 324.676C221.648 325.105 221.965 325.437 222.357 325.67C222.758 325.894 223.192 326.006 223.659 326.006C224.135 326.006 224.569 325.894 224.961 325.67C225.362 325.437 225.68 325.105 225.913 324.676C226.146 324.237 226.263 323.724 226.263 323.136ZM228.766 323.136C228.766 322.352 228.925 321.666 229.242 321.078C229.559 320.481 229.993 320.019 230.544 319.692C231.104 319.365 231.725 319.202 232.406 319.202C233.078 319.202 233.661 319.347 234.156 319.636C234.651 319.925 235.019 320.289 235.262 320.728V319.328H236.55V327H235.262V325.572C235.01 326.02 234.632 326.393 234.128 326.692C233.633 326.981 233.055 327.126 232.392 327.126C231.711 327.126 231.095 326.958 230.544 326.622C229.993 326.286 229.559 325.815 229.242 325.208C228.925 324.601 228.766 323.911 228.766 323.136ZM235.262 323.15C235.262 322.571 235.145 322.067 234.912 321.638C234.679 321.209 234.361 320.882 233.96 320.658C233.568 320.425 233.134 320.308 232.658 320.308C232.182 320.308 231.748 320.42 231.356 320.644C230.964 320.868 230.651 321.195 230.418 321.624C230.185 322.053 230.068 322.557 230.068 323.136C230.068 323.724 230.185 324.237 230.418 324.676C230.651 325.105 230.964 325.437 231.356 325.67C231.748 325.894 232.182 326.006 232.658 326.006C233.134 326.006 233.568 325.894 233.96 325.67C234.361 325.437 234.679 325.105 234.912 324.676C235.145 324.237 235.262 323.729 235.262 323.15ZM245.311 319.328L240.691 330.612H239.375L240.887 326.916L237.793 319.328H239.207L241.615 325.544L243.995 319.328H245.311ZM254.062 319.188C254.995 319.188 255.751 319.473 256.33 320.042C256.909 320.602 257.198 321.414 257.198 322.478V327H255.938V322.66C255.938 321.895 255.747 321.311 255.364 320.91C254.981 320.499 254.459 320.294 253.796 320.294C253.124 320.294 252.587 320.504 252.186 320.924C251.794 321.344 251.598 321.955 251.598 322.758V327H250.324V319.328H251.598V320.42C251.85 320.028 252.191 319.725 252.62 319.51C253.059 319.295 253.539 319.188 254.062 319.188ZM262.625 327.126C261.907 327.126 261.253 326.963 260.665 326.636C260.087 326.309 259.629 325.847 259.293 325.25C258.967 324.643 258.803 323.943 258.803 323.15C258.803 322.366 258.971 321.675 259.307 321.078C259.653 320.471 260.119 320.009 260.707 319.692C261.295 319.365 261.953 319.202 262.681 319.202C263.409 319.202 264.067 319.365 264.655 319.692C265.243 320.009 265.705 320.467 266.041 321.064C266.387 321.661 266.559 322.357 266.559 323.15C266.559 323.943 266.382 324.643 266.027 325.25C265.682 325.847 265.211 326.309 264.613 326.636C264.016 326.963 263.353 327.126 262.625 327.126ZM262.625 326.006C263.083 326.006 263.512 325.899 263.913 325.684C264.315 325.469 264.637 325.147 264.879 324.718C265.131 324.289 265.257 323.766 265.257 323.15C265.257 322.534 265.136 322.011 264.893 321.582C264.651 321.153 264.333 320.835 263.941 320.63C263.549 320.415 263.125 320.308 262.667 320.308C262.201 320.308 261.771 320.415 261.379 320.63C260.997 320.835 260.689 321.153 260.455 321.582C260.222 322.011 260.105 322.534 260.105 323.15C260.105 323.775 260.217 324.303 260.441 324.732C260.675 325.161 260.983 325.483 261.365 325.698C261.748 325.903 262.168 326.006 262.625 326.006ZM278.454 319.328L276.06 327H274.744L272.896 320.91L271.048 327H269.732L267.324 319.328H268.626L270.39 325.768L272.294 319.328H273.596L275.458 325.782L277.194 319.328H278.454ZM286.797 327.126C286.078 327.126 285.425 326.963 284.837 326.636C284.258 326.309 283.801 325.847 283.465 325.25C283.138 324.643 282.975 323.943 282.975 323.15C282.975 322.366 283.143 321.675 283.479 321.078C283.824 320.471 284.291 320.009 284.879 319.692C285.467 319.365 286.125 319.202 286.853 319.202C287.581 319.202 288.239 319.365 288.827 319.692C289.415 320.009 289.877 320.467 290.213 321.064C290.558 321.661 290.731 322.357 290.731 323.15C290.731 323.943 290.554 324.643 290.199 325.25C289.854 325.847 289.382 326.309 288.785 326.636C288.188 326.963 287.525 327.126 286.797 327.126ZM286.797 326.006C287.254 326.006 287.684 325.899 288.085 325.684C288.486 325.469 288.808 325.147 289.051 324.718C289.303 324.289 289.429 323.766 289.429 323.15C289.429 322.534 289.308 322.011 289.065 321.582C288.822 321.153 288.505 320.835 288.113 320.63C287.721 320.415 287.296 320.308 286.839 320.308C286.372 320.308 285.943 320.415 285.551 320.63C285.168 320.835 284.86 321.153 284.627 321.582C284.394 322.011 284.277 322.534 284.277 323.15C284.277 323.775 284.389 324.303 284.613 324.732C284.846 325.161 285.154 325.483 285.537 325.698C285.92 325.903 286.34 326.006 286.797 326.006ZM293.68 320.574C293.904 320.135 294.221 319.795 294.632 319.552C295.052 319.309 295.561 319.188 296.158 319.188V320.504H295.822C294.394 320.504 293.68 321.279 293.68 322.828V327H292.406V319.328H293.68V320.574ZM34.7348 344.742C34.9868 344.303 35.3601 343.939 35.8548 343.65C36.3588 343.351 36.9421 343.202 37.6048 343.202C38.2861 343.202 38.9021 343.365 39.4528 343.692C40.0128 344.019 40.4515 344.481 40.7688 345.078C41.0861 345.666 41.2448 346.352 41.2448 347.136C41.2448 347.911 41.0861 348.601 40.7688 349.208C40.4515 349.815 40.0128 350.286 39.4528 350.622C38.9021 350.958 38.2861 351.126 37.6048 351.126C36.9515 351.126 36.3728 350.981 35.8688 350.692C35.3741 350.393 34.9961 350.025 34.7348 349.586V354.64H33.4608V343.328H34.7348V344.742ZM39.9428 347.136C39.9428 346.557 39.8261 346.053 39.5928 345.624C39.3595 345.195 39.0421 344.868 38.6408 344.644C38.2488 344.42 37.8148 344.308 37.3388 344.308C36.8721 344.308 36.4381 344.425 36.0368 344.658C35.6448 344.882 35.3275 345.213 35.0848 345.652C34.8515 346.081 34.7348 346.581 34.7348 347.15C34.7348 347.729 34.8515 348.237 35.0848 348.676C35.3275 349.105 35.6448 349.437 36.0368 349.67C36.4381 349.894 36.8721 350.006 37.3388 350.006C37.8148 350.006 38.2488 349.894 38.6408 349.67C39.0421 349.437 39.3595 349.105 39.5928 348.676C39.8261 348.237 39.9428 347.724 39.9428 347.136ZM42.4458 347.136C42.4458 346.352 42.6044 345.666 42.9218 345.078C43.2391 344.481 43.6731 344.019 44.2238 343.692C44.7838 343.365 45.4044 343.202 46.0858 343.202C46.7578 343.202 47.3411 343.347 47.8358 343.636C48.3304 343.925 48.6991 344.289 48.9418 344.728V343.328H50.2298V351H48.9418V349.572C48.6898 350.02 48.3118 350.393 47.8078 350.692C47.3131 350.981 46.7344 351.126 46.0718 351.126C45.3904 351.126 44.7744 350.958 44.2238 350.622C43.6731 350.286 43.2391 349.815 42.9218 349.208C42.6044 348.601 42.4458 347.911 42.4458 347.136ZM48.9418 347.15C48.9418 346.571 48.8251 346.067 48.5918 345.638C48.3584 345.209 48.0411 344.882 47.6398 344.658C47.2478 344.425 46.8138 344.308 46.3378 344.308C45.8618 344.308 45.4278 344.42 45.0358 344.644C44.6438 344.868 44.3311 345.195 44.0978 345.624C43.8644 346.053 43.7478 346.557 43.7478 347.136C43.7478 347.724 43.8644 348.237 44.0978 348.676C44.3311 349.105 44.6438 349.437 45.0358 349.67C45.4278 349.894 45.8618 350.006 46.3378 350.006C46.8138 350.006 47.2478 349.894 47.6398 349.67C48.0411 349.437 48.3584 349.105 48.5918 348.676C48.8251 348.237 48.9418 347.729 48.9418 347.15ZM58.9907 343.328L54.3707 354.612H53.0547L54.5667 350.916L51.4727 343.328H52.8867L55.2947 349.544L57.6747 343.328H58.9907ZM65.2778 340.64V351H64.0038V340.64H65.2778ZM66.9731 347.136C66.9731 346.352 67.1318 345.666 67.4491 345.078C67.7664 344.481 68.2004 344.019 68.7511 343.692C69.3111 343.365 69.9318 343.202 70.6131 343.202C71.2851 343.202 71.8684 343.347 72.3631 343.636C72.8578 343.925 73.2264 344.289 73.4691 344.728V343.328H74.7571V351H73.4691V349.572C73.2171 350.02 72.8391 350.393 72.3351 350.692C71.8404 350.981 71.2618 351.126 70.5991 351.126C69.9178 351.126 69.3018 350.958 68.7511 350.622C68.2004 350.286 67.7664 349.815 67.4491 349.208C67.1318 348.601 66.9731 347.911 66.9731 347.136ZM73.4691 347.15C73.4691 346.571 73.3524 346.067 73.1191 345.638C72.8858 345.209 72.5684 344.882 72.1671 344.658C71.7751 344.425 71.3411 344.308 70.8651 344.308C70.3891 344.308 69.9551 344.42 69.5631 344.644C69.1711 344.868 68.8584 345.195 68.6251 345.624C68.3918 346.053 68.2751 346.557 68.2751 347.136C68.2751 347.724 68.3918 348.237 68.6251 348.676C68.8584 349.105 69.1711 349.437 69.5631 349.67C69.9551 349.894 70.3891 350.006 70.8651 350.006C71.3411 350.006 71.7751 349.894 72.1671 349.67C72.5684 349.437 72.8858 349.105 73.1191 348.676C73.3524 348.237 73.4691 347.729 73.4691 347.15ZM78.464 344.378V348.9C78.464 349.273 78.5434 349.539 78.702 349.698C78.8607 349.847 79.136 349.922 79.528 349.922H80.466V351H79.318C78.6087 351 78.0767 350.837 77.722 350.51C77.3674 350.183 77.19 349.647 77.19 348.9V344.378H76.196V343.328H77.19V341.396H78.464V343.328H80.466V344.378H78.464ZM89.0096 346.87C89.0096 347.113 88.9956 347.369 88.9676 347.64H82.8356C82.8823 348.396 83.139 348.989 83.6056 349.418C84.0816 349.838 84.6556 350.048 85.3276 350.048C85.8783 350.048 86.3356 349.922 86.6996 349.67C87.073 349.409 87.3343 349.063 87.4836 348.634H88.8556C88.6503 349.371 88.2396 349.973 87.6236 350.44C87.0076 350.897 86.2423 351.126 85.3276 351.126C84.5996 351.126 83.9463 350.963 83.3676 350.636C82.7983 350.309 82.3503 349.847 82.0236 349.25C81.697 348.643 81.5336 347.943 81.5336 347.15C81.5336 346.357 81.6923 345.661 82.0096 345.064C82.327 344.467 82.7703 344.009 83.3396 343.692C83.9183 343.365 84.581 343.202 85.3276 343.202C86.0556 343.202 86.6996 343.361 87.2596 343.678C87.8196 343.995 88.249 344.434 88.5476 344.994C88.8556 345.545 89.0096 346.17 89.0096 346.87ZM87.6936 346.604C87.6936 346.119 87.5863 345.703 87.3716 345.358C87.157 345.003 86.863 344.737 86.4896 344.56C86.1256 344.373 85.7196 344.28 85.2716 344.28C84.6276 344.28 84.077 344.485 83.6196 344.896C83.1716 345.307 82.915 345.876 82.8496 346.604H87.6936ZM91.9653 344.574C92.1893 344.135 92.5066 343.795 92.9173 343.552C93.3373 343.309 93.8459 343.188 94.4433 343.188V344.504H94.1073C92.6793 344.504 91.9653 345.279 91.9653 346.828V351H90.6913V343.328H91.9653V344.574ZM97.2299 349.236L95.6619 353.002H94.8079L95.8299 349.236H97.2299ZM101.946 347.136C101.946 346.352 102.104 345.666 102.422 345.078C102.739 344.481 103.173 344.019 103.724 343.692C104.284 343.365 104.909 343.202 105.6 343.202C106.197 343.202 106.752 343.342 107.266 343.622C107.779 343.893 108.171 344.252 108.442 344.7V340.64H109.73V351H108.442V349.558C108.19 350.015 107.816 350.393 107.322 350.692C106.827 350.981 106.248 351.126 105.586 351.126C104.904 351.126 104.284 350.958 103.724 350.622C103.173 350.286 102.739 349.815 102.422 349.208C102.104 348.601 101.946 347.911 101.946 347.136ZM108.442 347.15C108.442 346.571 108.325 346.067 108.092 345.638C107.858 345.209 107.541 344.882 107.14 344.658C106.748 344.425 106.314 344.308 105.838 344.308C105.362 344.308 104.928 344.42 104.536 344.644C104.144 344.868 103.831 345.195 103.598 345.624C103.364 346.053 103.248 346.557 103.248 347.136C103.248 347.724 103.364 348.237 103.598 348.676C103.831 349.105 104.144 349.437 104.536 349.67C104.928 349.894 105.362 350.006 105.838 350.006C106.314 350.006 106.748 349.894 107.14 349.67C107.541 349.437 107.858 349.105 108.092 348.676C108.325 348.237 108.442 347.729 108.442 347.15ZM118.883 346.87C118.883 347.113 118.869 347.369 118.841 347.64H112.709C112.755 348.396 113.012 348.989 113.479 349.418C113.955 349.838 114.529 350.048 115.201 350.048C115.751 350.048 116.209 349.922 116.573 349.67C116.946 349.409 117.207 349.063 117.357 348.634H118.729C118.523 349.371 118.113 349.973 117.497 350.44C116.881 350.897 116.115 351.126 115.201 351.126C114.473 351.126 113.819 350.963 113.241 350.636C112.671 350.309 112.223 349.847 111.897 349.25C111.57 348.643 111.407 347.943 111.407 347.15C111.407 346.357 111.565 345.661 111.883 345.064C112.2 344.467 112.643 344.009 113.213 343.692C113.791 343.365 114.454 343.202 115.201 343.202C115.929 343.202 116.573 343.361 117.133 343.678C117.693 343.995 118.122 344.434 118.421 344.994C118.729 345.545 118.883 346.17 118.883 346.87ZM117.567 346.604C117.567 346.119 117.459 345.703 117.245 345.358C117.03 345.003 116.736 344.737 116.363 344.56C115.999 344.373 115.593 344.28 115.145 344.28C114.501 344.28 113.95 344.485 113.493 344.896C113.045 345.307 112.788 345.876 112.723 346.604H117.567ZM121.838 344.742C122.09 344.303 122.464 343.939 122.958 343.65C123.462 343.351 124.046 343.202 124.708 343.202C125.39 343.202 126.006 343.365 126.556 343.692C127.116 344.019 127.555 344.481 127.872 345.078C128.19 345.666 128.348 346.352 128.348 347.136C128.348 347.911 128.19 348.601 127.872 349.208C127.555 349.815 127.116 350.286 126.556 350.622C126.006 350.958 125.39 351.126 124.708 351.126C124.055 351.126 123.476 350.981 122.972 350.692C122.478 350.393 122.1 350.025 121.838 349.586V354.64H120.564V343.328H121.838V344.742ZM127.046 347.136C127.046 346.557 126.93 346.053 126.696 345.624C126.463 345.195 126.146 344.868 125.744 344.644C125.352 344.42 124.918 344.308 124.442 344.308C123.976 344.308 123.542 344.425 123.14 344.658C122.748 344.882 122.431 345.213 122.188 345.652C121.955 346.081 121.838 346.581 121.838 347.15C121.838 347.729 121.955 348.237 122.188 348.676C122.431 349.105 122.748 349.437 123.14 349.67C123.542 349.894 123.976 350.006 124.442 350.006C124.918 350.006 125.352 349.894 125.744 349.67C126.146 349.437 126.463 349.105 126.696 348.676C126.93 348.237 127.046 347.724 127.046 347.136ZM137.025 346.87C137.025 347.113 137.011 347.369 136.983 347.64H130.851C130.898 348.396 131.155 348.989 131.621 349.418C132.097 349.838 132.671 350.048 133.343 350.048C133.894 350.048 134.351 349.922 134.715 349.67C135.089 349.409 135.35 349.063 135.499 348.634H136.871C136.666 349.371 136.255 349.973 135.639 350.44C135.023 350.897 134.258 351.126 133.343 351.126C132.615 351.126 131.962 350.963 131.383 350.636C130.814 350.309 130.366 349.847 130.039 349.25C129.713 348.643 129.549 347.943 129.549 347.15C129.549 346.357 129.708 345.661 130.025 345.064C130.343 344.467 130.786 344.009 131.355 343.692C131.934 343.365 132.597 343.202 133.343 343.202C134.071 343.202 134.715 343.361 135.275 343.678C135.835 343.995 136.265 344.434 136.563 344.994C136.871 345.545 137.025 346.17 137.025 346.87ZM135.709 346.604C135.709 346.119 135.602 345.703 135.387 345.358C135.173 345.003 134.879 344.737 134.505 344.56C134.141 344.373 133.735 344.28 133.287 344.28C132.643 344.28 132.093 344.485 131.635 344.896C131.187 345.307 130.931 345.876 130.865 346.604H135.709ZM142.445 343.188C143.378 343.188 144.134 343.473 144.713 344.042C145.292 344.602 145.581 345.414 145.581 346.478V351H144.321V346.66C144.321 345.895 144.13 345.311 143.747 344.91C143.364 344.499 142.842 344.294 142.179 344.294C141.507 344.294 140.97 344.504 140.569 344.924C140.177 345.344 139.981 345.955 139.981 346.758V351H138.707V343.328H139.981V344.42C140.233 344.028 140.574 343.725 141.003 343.51C141.442 343.295 141.922 343.188 142.445 343.188ZM147.186 347.136C147.186 346.352 147.345 345.666 147.662 345.078C147.979 344.481 148.413 344.019 148.964 343.692C149.524 343.365 150.149 343.202 150.84 343.202C151.437 343.202 151.993 343.342 152.506 343.622C153.019 343.893 153.411 344.252 153.682 344.7V340.64H154.97V351H153.682V349.558C153.43 350.015 153.057 350.393 152.562 350.692C152.067 350.981 151.489 351.126 150.826 351.126C150.145 351.126 149.524 350.958 148.964 350.622C148.413 350.286 147.979 349.815 147.662 349.208C147.345 348.601 147.186 347.911 147.186 347.136ZM153.682 347.15C153.682 346.571 153.565 346.067 153.332 345.638C153.099 345.209 152.781 344.882 152.38 344.658C151.988 344.425 151.554 344.308 151.078 344.308C150.602 344.308 150.168 344.42 149.776 344.644C149.384 344.868 149.071 345.195 148.838 345.624C148.605 346.053 148.488 346.557 148.488 347.136C148.488 347.724 148.605 348.237 148.838 348.676C149.071 349.105 149.384 349.437 149.776 349.67C150.168 349.894 150.602 350.006 151.078 350.006C151.554 350.006 151.988 349.894 152.38 349.67C152.781 349.437 153.099 349.105 153.332 348.676C153.565 348.237 153.682 347.729 153.682 347.15ZM157.781 342.082C157.538 342.082 157.333 341.998 157.165 341.83C156.997 341.662 156.913 341.457 156.913 341.214C156.913 340.971 156.997 340.766 157.165 340.598C157.333 340.43 157.538 340.346 157.781 340.346C158.014 340.346 158.21 340.43 158.369 340.598C158.537 340.766 158.621 340.971 158.621 341.214C158.621 341.457 158.537 341.662 158.369 341.83C158.21 341.998 158.014 342.082 157.781 342.082ZM158.397 343.328V351H157.123V343.328H158.397ZM164.306 343.188C165.24 343.188 165.996 343.473 166.574 344.042C167.153 344.602 167.442 345.414 167.442 346.478V351H166.182V346.66C166.182 345.895 165.991 345.311 165.608 344.91C165.226 344.499 164.703 344.294 164.04 344.294C163.368 344.294 162.832 344.504 162.43 344.924C162.038 345.344 161.842 345.955 161.842 346.758V351H160.568V343.328H161.842V344.42C162.094 344.028 162.435 343.725 162.864 343.51C163.303 343.295 163.784 343.188 164.306 343.188ZM172.687 343.202C173.35 343.202 173.929 343.347 174.423 343.636C174.927 343.925 175.301 344.289 175.543 344.728V343.328H176.831V351.168C176.831 351.868 176.682 352.489 176.383 353.03C176.085 353.581 175.655 354.01 175.095 354.318C174.545 354.626 173.901 354.78 173.163 354.78C172.155 354.78 171.315 354.542 170.643 354.066C169.971 353.59 169.575 352.941 169.453 352.12H170.713C170.853 352.587 171.143 352.96 171.581 353.24C172.02 353.529 172.547 353.674 173.163 353.674C173.863 353.674 174.433 353.455 174.871 353.016C175.319 352.577 175.543 351.961 175.543 351.168V349.558C175.291 350.006 174.918 350.379 174.423 350.678C173.929 350.977 173.35 351.126 172.687 351.126C172.006 351.126 171.385 350.958 170.825 350.622C170.275 350.286 169.841 349.815 169.523 349.208C169.206 348.601 169.047 347.911 169.047 347.136C169.047 346.352 169.206 345.666 169.523 345.078C169.841 344.481 170.275 344.019 170.825 343.692C171.385 343.365 172.006 343.202 172.687 343.202ZM175.543 347.15C175.543 346.571 175.427 346.067 175.193 345.638C174.96 345.209 174.643 344.882 174.241 344.658C173.849 344.425 173.415 344.308 172.939 344.308C172.463 344.308 172.029 344.42 171.637 344.644C171.245 344.868 170.933 345.195 170.699 345.624C170.466 346.053 170.349 346.557 170.349 347.136C170.349 347.724 170.466 348.237 170.699 348.676C170.933 349.105 171.245 349.437 171.637 349.67C172.029 349.894 172.463 350.006 172.939 350.006C173.415 350.006 173.849 349.894 174.241 349.67C174.643 349.437 174.96 349.105 175.193 348.676C175.427 348.237 175.543 347.729 175.543 347.15ZM186.063 351.126C185.344 351.126 184.691 350.963 184.103 350.636C183.524 350.309 183.067 349.847 182.731 349.25C182.404 348.643 182.241 347.943 182.241 347.15C182.241 346.366 182.409 345.675 182.745 345.078C183.09 344.471 183.557 344.009 184.145 343.692C184.733 343.365 185.391 343.202 186.119 343.202C186.847 343.202 187.505 343.365 188.093 343.692C188.681 344.009 189.143 344.467 189.479 345.064C189.824 345.661 189.997 346.357 189.997 347.15C189.997 347.943 189.819 348.643 189.465 349.25C189.119 349.847 188.648 350.309 188.051 350.636C187.453 350.963 186.791 351.126 186.063 351.126ZM186.063 350.006C186.52 350.006 186.949 349.899 187.351 349.684C187.752 349.469 188.074 349.147 188.317 348.718C188.569 348.289 188.695 347.766 188.695 347.15C188.695 346.534 188.573 346.011 188.331 345.582C188.088 345.153 187.771 344.835 187.379 344.63C186.987 344.415 186.562 344.308 186.105 344.308C185.638 344.308 185.209 344.415 184.817 344.63C184.434 344.835 184.126 345.153 183.893 345.582C183.659 346.011 183.543 346.534 183.543 347.15C183.543 347.775 183.655 348.303 183.879 348.732C184.112 349.161 184.42 349.483 184.803 349.698C185.185 349.903 185.605 350.006 186.063 350.006ZM195.41 343.188C196.343 343.188 197.099 343.473 197.678 344.042C198.256 344.602 198.546 345.414 198.546 346.478V351H197.286V346.66C197.286 345.895 197.094 345.311 196.712 344.91C196.329 344.499 195.806 344.294 195.144 344.294C194.472 344.294 193.935 344.504 193.534 344.924C193.142 345.344 192.946 345.955 192.946 346.758V351H191.672V343.328H192.946V344.42C193.198 344.028 193.538 343.725 193.968 343.51C194.406 343.295 194.887 343.188 195.41 343.188ZM205.913 344.378V348.9C205.913 349.273 205.993 349.539 206.151 349.698C206.31 349.847 206.585 349.922 206.977 349.922H207.915V351H206.767C206.058 351 205.526 350.837 205.171 350.51C204.817 350.183 204.639 349.647 204.639 348.9V344.378H203.645V343.328H204.639V341.396H205.913V343.328H207.915V344.378H205.913ZM213.267 343.188C213.846 343.188 214.368 343.314 214.835 343.566C215.302 343.809 215.666 344.177 215.927 344.672C216.198 345.167 216.333 345.769 216.333 346.478V351H215.073V346.66C215.073 345.895 214.882 345.311 214.499 344.91C214.116 344.499 213.594 344.294 212.931 344.294C212.259 344.294 211.722 344.504 211.321 344.924C210.929 345.344 210.733 345.955 210.733 346.758V351H209.459V340.64H210.733V344.42C210.985 344.028 211.33 343.725 211.769 343.51C212.217 343.295 212.716 343.188 213.267 343.188ZM225.414 346.87C225.414 347.113 225.4 347.369 225.372 347.64H219.24C219.287 348.396 219.543 348.989 220.01 349.418C220.486 349.838 221.06 350.048 221.732 350.048C222.283 350.048 222.74 349.922 223.104 349.67C223.477 349.409 223.739 349.063 223.888 348.634H225.26C225.055 349.371 224.644 349.973 224.028 350.44C223.412 350.897 222.647 351.126 221.732 351.126C221.004 351.126 220.351 350.963 219.772 350.636C219.203 350.309 218.755 349.847 218.428 349.25C218.101 348.643 217.938 347.943 217.938 347.15C217.938 346.357 218.097 345.661 218.414 345.064C218.731 344.467 219.175 344.009 219.744 343.692C220.323 343.365 220.985 343.202 221.732 343.202C222.46 343.202 223.104 343.361 223.664 343.678C224.224 343.995 224.653 344.434 224.952 344.994C225.26 345.545 225.414 346.17 225.414 346.87ZM224.098 346.604C224.098 346.119 223.991 345.703 223.776 345.358C223.561 345.003 223.267 344.737 222.894 344.56C222.53 344.373 222.124 344.28 221.676 344.28C221.032 344.28 220.481 344.485 220.024 344.896C219.576 345.307 219.319 345.876 219.254 346.604H224.098ZM232.102 344.742C232.354 344.303 232.727 343.939 233.222 343.65C233.726 343.351 234.309 343.202 234.972 343.202C235.653 343.202 236.269 343.365 236.82 343.692C237.38 344.019 237.819 344.481 238.136 345.078C238.453 345.666 238.612 346.352 238.612 347.136C238.612 347.911 238.453 348.601 238.136 349.208C237.819 349.815 237.38 350.286 236.82 350.622C236.269 350.958 235.653 351.126 234.972 351.126C234.319 351.126 233.74 350.981 233.236 350.692C232.741 350.393 232.363 350.025 232.102 349.586V354.64H230.828V343.328H232.102V344.742ZM237.31 347.136C237.31 346.557 237.193 346.053 236.96 345.624C236.727 345.195 236.409 344.868 236.008 344.644C235.616 344.42 235.182 344.308 234.706 344.308C234.239 344.308 233.805 344.425 233.404 344.658C233.012 344.882 232.695 345.213 232.452 345.652C232.219 346.081 232.102 346.581 232.102 347.15C232.102 347.729 232.219 348.237 232.452 348.676C232.695 349.105 233.012 349.437 233.404 349.67C233.805 349.894 234.239 350.006 234.706 350.006C235.182 350.006 235.616 349.894 236.008 349.67C236.409 349.437 236.727 349.105 236.96 348.676C237.193 348.237 237.31 347.724 237.31 347.136ZM239.813 347.136C239.813 346.352 239.972 345.666 240.289 345.078C240.606 344.481 241.04 344.019 241.591 343.692C242.151 343.365 242.772 343.202 243.453 343.202C244.125 343.202 244.708 343.347 245.203 343.636C245.698 343.925 246.066 344.289 246.309 344.728V343.328H247.597V351H246.309V349.572C246.057 350.02 245.679 350.393 245.175 350.692C244.68 350.981 244.102 351.126 243.439 351.126C242.758 351.126 242.142 350.958 241.591 350.622C241.04 350.286 240.606 349.815 240.289 349.208C239.972 348.601 239.813 347.911 239.813 347.136ZM246.309 347.15C246.309 346.571 246.192 346.067 245.959 345.638C245.726 345.209 245.408 344.882 245.007 344.658C244.615 344.425 244.181 344.308 243.705 344.308C243.229 344.308 242.795 344.42 242.403 344.644C242.011 344.868 241.698 345.195 241.465 345.624C241.232 346.053 241.115 346.557 241.115 347.136C241.115 347.724 241.232 348.237 241.465 348.676C241.698 349.105 242.011 349.437 242.403 349.67C242.795 349.894 243.229 350.006 243.705 350.006C244.181 350.006 244.615 349.894 245.007 349.67C245.408 349.437 245.726 349.105 245.959 348.676C246.192 348.237 246.309 347.729 246.309 347.15ZM256.358 343.328L251.738 354.612H250.422L251.934 350.916L248.84 343.328H250.254L252.662 349.544L255.042 343.328H256.358ZM266.865 343.188C267.462 343.188 267.994 343.314 268.461 343.566C268.927 343.809 269.296 344.177 269.567 344.672C269.837 345.167 269.973 345.769 269.973 346.478V351H268.713V346.66C268.713 345.895 268.521 345.311 268.139 344.91C267.765 344.499 267.257 344.294 266.613 344.294C265.95 344.294 265.423 344.509 265.031 344.938C264.639 345.358 264.443 345.969 264.443 346.772V351H263.183V346.66C263.183 345.895 262.991 345.311 262.609 344.91C262.235 344.499 261.727 344.294 261.083 344.294C260.42 344.294 259.893 344.509 259.501 344.938C259.109 345.358 258.913 345.969 258.913 346.772V351H257.639V343.328H258.913V344.434C259.165 344.033 259.501 343.725 259.921 343.51C260.35 343.295 260.821 343.188 261.335 343.188C261.979 343.188 262.548 343.333 263.043 343.622C263.537 343.911 263.906 344.336 264.149 344.896C264.363 344.355 264.718 343.935 265.213 343.636C265.707 343.337 266.258 343.188 266.865 343.188ZM279.062 346.87C279.062 347.113 279.048 347.369 279.02 347.64H272.888C272.935 348.396 273.192 348.989 273.658 349.418C274.134 349.838 274.708 350.048 275.38 350.048C275.931 350.048 276.388 349.922 276.752 349.67C277.126 349.409 277.387 349.063 277.536 348.634H278.908C278.703 349.371 278.292 349.973 277.676 350.44C277.06 350.897 276.295 351.126 275.38 351.126C274.652 351.126 273.999 350.963 273.42 350.636C272.851 350.309 272.403 349.847 272.076 349.25C271.75 348.643 271.586 347.943 271.586 347.15C271.586 346.357 271.745 345.661 272.062 345.064C272.38 344.467 272.823 344.009 273.392 343.692C273.971 343.365 274.634 343.202 275.38 343.202C276.108 343.202 276.752 343.361 277.312 343.678C277.872 343.995 278.302 344.434 278.6 344.994C278.908 345.545 279.062 346.17 279.062 346.87ZM277.746 346.604C277.746 346.119 277.639 345.703 277.424 345.358C277.21 345.003 276.916 344.737 276.542 344.56C276.178 344.373 275.772 344.28 275.324 344.28C274.68 344.28 274.13 344.485 273.672 344.896C273.224 345.307 272.968 345.876 272.902 346.604H277.746ZM284.482 343.188C285.415 343.188 286.171 343.473 286.75 344.042C287.329 344.602 287.618 345.414 287.618 346.478V351H286.358V346.66C286.358 345.895 286.167 345.311 285.784 344.91C285.401 344.499 284.879 344.294 284.216 344.294C283.544 344.294 283.007 344.504 282.606 344.924C282.214 345.344 282.018 345.955 282.018 346.758V351H280.744V343.328H282.018V344.42C282.27 344.028 282.611 343.725 283.04 343.51C283.479 343.295 283.959 343.188 284.482 343.188ZM291.253 344.378V348.9C291.253 349.273 291.332 349.539 291.491 349.698C291.65 349.847 291.925 349.922 292.317 349.922H293.255V351H292.107C291.398 351 290.866 350.837 290.511 350.51C290.156 350.183 289.979 349.647 289.979 348.9V344.378H288.985V343.328H289.979V341.396H291.253V343.328H293.255V344.378H291.253ZM36.8068 375.126C36.0881 375.126 35.4348 374.963 34.8468 374.636C34.2681 374.309 33.8108 373.847 33.4748 373.25C33.1481 372.643 32.9848 371.943 32.9848 371.15C32.9848 370.366 33.1528 369.675 33.4888 369.078C33.8341 368.471 34.3008 368.009 34.8888 367.692C35.4768 367.365 36.1348 367.202 36.8628 367.202C37.5908 367.202 38.2488 367.365 38.8368 367.692C39.4248 368.009 39.8868 368.467 40.2228 369.064C40.5681 369.661 40.7408 370.357 40.7408 371.15C40.7408 371.943 40.5635 372.643 40.2088 373.25C39.8635 373.847 39.3921 374.309 38.7948 374.636C38.1975 374.963 37.5348 375.126 36.8068 375.126ZM36.8068 374.006C37.2641 374.006 37.6935 373.899 38.0948 373.684C38.4961 373.469 38.8181 373.147 39.0608 372.718C39.3128 372.289 39.4388 371.766 39.4388 371.15C39.4388 370.534 39.3175 370.011 39.0748 369.582C38.8321 369.153 38.5148 368.835 38.1228 368.63C37.7308 368.415 37.3061 368.308 36.8488 368.308C36.3821 368.308 35.9528 368.415 35.5608 368.63C35.1781 368.835 34.8701 369.153 34.6368 369.582C34.4035 370.011 34.2868 370.534 34.2868 371.15C34.2868 371.775 34.3988 372.303 34.6228 372.732C34.8561 373.161 35.1641 373.483 35.5468 373.698C35.9295 373.903 36.3495 374.006 36.8068 374.006ZM43.6899 368.742C43.9419 368.303 44.3152 367.939 44.8099 367.65C45.3139 367.351 45.8972 367.202 46.5599 367.202C47.2412 367.202 47.8572 367.365 48.4079 367.692C48.9679 368.019 49.4066 368.481 49.7239 369.078C50.0412 369.666 50.1999 370.352 50.1999 371.136C50.1999 371.911 50.0412 372.601 49.7239 373.208C49.4066 373.815 48.9679 374.286 48.4079 374.622C47.8572 374.958 47.2412 375.126 46.5599 375.126C45.9066 375.126 45.3279 374.981 44.8239 374.692C44.3292 374.393 43.9512 374.025 43.6899 373.586V378.64H42.4159V367.328H43.6899V368.742ZM48.8979 371.136C48.8979 370.557 48.7812 370.053 48.5479 369.624C48.3146 369.195 47.9972 368.868 47.5959 368.644C47.2039 368.42 46.7699 368.308 46.2939 368.308C45.8272 368.308 45.3932 368.425 44.9919 368.658C44.5999 368.882 44.2826 369.213 44.0399 369.652C43.8066 370.081 43.6899 370.581 43.6899 371.15C43.6899 371.729 43.8066 372.237 44.0399 372.676C44.2826 373.105 44.5999 373.437 44.9919 373.67C45.3932 373.894 45.8272 374.006 46.2939 374.006C46.7699 374.006 47.2039 373.894 47.5959 373.67C47.9972 373.437 48.3146 373.105 48.5479 372.676C48.7812 372.237 48.8979 371.724 48.8979 371.136ZM53.4308 368.378V372.9C53.4308 373.273 53.5102 373.539 53.6688 373.698C53.8275 373.847 54.1028 373.922 54.4948 373.922H55.4328V375H54.2848C53.5755 375 53.0435 374.837 52.6888 374.51C52.3342 374.183 52.1568 373.647 52.1568 372.9V368.378H51.1628V367.328H52.1568V365.396H53.4308V367.328H55.4328V368.378H53.4308ZM57.6344 366.082C57.3918 366.082 57.1864 365.998 57.0184 365.83C56.8504 365.662 56.7664 365.457 56.7664 365.214C56.7664 364.971 56.8504 364.766 57.0184 364.598C57.1864 364.43 57.3918 364.346 57.6344 364.346C57.8678 364.346 58.0638 364.43 58.2224 364.598C58.3904 364.766 58.4744 364.971 58.4744 365.214C58.4744 365.457 58.3904 365.662 58.2224 365.83C58.0638 365.998 57.8678 366.082 57.6344 366.082ZM58.2504 367.328V375H56.9764V367.328H58.2504ZM63.7678 375.126C63.0491 375.126 62.3958 374.963 61.8078 374.636C61.2291 374.309 60.7718 373.847 60.4358 373.25C60.1091 372.643 59.9458 371.943 59.9458 371.15C59.9458 370.366 60.1138 369.675 60.4498 369.078C60.7951 368.471 61.2618 368.009 61.8498 367.692C62.4378 367.365 63.0958 367.202 63.8238 367.202C64.5518 367.202 65.2098 367.365 65.7978 367.692C66.3858 368.009 66.8478 368.467 67.1838 369.064C67.5291 369.661 67.7018 370.357 67.7018 371.15C67.7018 371.943 67.5244 372.643 67.1698 373.25C66.8244 373.847 66.3531 374.309 65.7558 374.636C65.1584 374.963 64.4958 375.126 63.7678 375.126ZM63.7678 374.006C64.2251 374.006 64.6544 373.899 65.0558 373.684C65.4571 373.469 65.7791 373.147 66.0218 372.718C66.2738 372.289 66.3998 371.766 66.3998 371.15C66.3998 370.534 66.2784 370.011 66.0358 369.582C65.7931 369.153 65.4758 368.835 65.0838 368.63C64.6918 368.415 64.2671 368.308 63.8098 368.308C63.3431 368.308 62.9138 368.415 62.5218 368.63C62.1391 368.835 61.8311 369.153 61.5978 369.582C61.3644 370.011 61.2478 370.534 61.2478 371.15C61.2478 371.775 61.3598 372.303 61.5838 372.732C61.8171 373.161 62.1251 373.483 62.5078 373.698C62.8904 373.903 63.3104 374.006 63.7678 374.006ZM73.1148 367.188C74.0482 367.188 74.8042 367.473 75.3828 368.042C75.9615 368.602 76.2508 369.414 76.2508 370.478V375H74.9908V370.66C74.9908 369.895 74.7995 369.311 74.4168 368.91C74.0342 368.499 73.5115 368.294 72.8488 368.294C72.1768 368.294 71.6402 368.504 71.2388 368.924C70.8468 369.344 70.6508 369.955 70.6508 370.758V375H69.3768V367.328H70.6508V368.42C70.9028 368.028 71.2435 367.725 71.6728 367.51C72.1115 367.295 72.5922 367.188 73.1148 367.188ZM81.0479 375.126C80.4599 375.126 79.9326 375.028 79.4659 374.832C78.9992 374.627 78.6306 374.347 78.3599 373.992C78.0892 373.628 77.9399 373.213 77.9119 372.746H79.2279C79.2652 373.129 79.4426 373.441 79.7599 373.684C80.0866 373.927 80.5112 374.048 81.0339 374.048C81.5192 374.048 81.9019 373.941 82.1819 373.726C82.4619 373.511 82.6019 373.241 82.6019 372.914C82.6019 372.578 82.4526 372.331 82.1539 372.172C81.8552 372.004 81.3932 371.841 80.7679 371.682C80.1986 371.533 79.7319 371.383 79.3679 371.234C79.0132 371.075 78.7052 370.847 78.4439 370.548C78.1919 370.24 78.0659 369.839 78.0659 369.344C78.0659 368.952 78.1826 368.593 78.4159 368.266C78.6492 367.939 78.9806 367.683 79.4099 367.496C79.8392 367.3 80.3292 367.202 80.8799 367.202C81.7292 367.202 82.4152 367.417 82.9379 367.846C83.4606 368.275 83.7406 368.863 83.7779 369.61H82.5039C82.4759 369.209 82.3126 368.887 82.0139 368.644C81.7246 368.401 81.3326 368.28 80.8379 368.28C80.3806 368.28 80.0166 368.378 79.7459 368.574C79.4752 368.77 79.3399 369.027 79.3399 369.344C79.3399 369.596 79.4192 369.806 79.5779 369.974C79.7459 370.133 79.9512 370.263 80.1939 370.366C80.4459 370.459 80.7912 370.567 81.2299 370.688C81.7806 370.837 82.2286 370.987 82.5739 371.136C82.9192 371.276 83.2132 371.491 83.4559 371.78C83.7079 372.069 83.8386 372.447 83.8479 372.914C83.8479 373.334 83.7312 373.712 83.4979 374.048C83.2646 374.384 82.9332 374.65 82.5039 374.846C82.0839 375.033 81.5986 375.126 81.0479 375.126ZM88.9028 371.136C88.9028 370.352 89.0614 369.666 89.3788 369.078C89.6961 368.481 90.1301 368.019 90.6808 367.692C91.2408 367.365 91.8614 367.202 92.5428 367.202C93.2148 367.202 93.7981 367.347 94.2928 367.636C94.7874 367.925 95.1561 368.289 95.3988 368.728V367.328H96.6868V375H95.3988V373.572C95.1468 374.02 94.7688 374.393 94.2648 374.692C93.7701 374.981 93.1914 375.126 92.5288 375.126C91.8474 375.126 91.2314 374.958 90.6808 374.622C90.1301 374.286 89.6961 373.815 89.3788 373.208C89.0614 372.601 88.9028 371.911 88.9028 371.136ZM95.3988 371.15C95.3988 370.571 95.2821 370.067 95.0488 369.638C94.8154 369.209 94.4981 368.882 94.0968 368.658C93.7048 368.425 93.2708 368.308 92.7948 368.308C92.3188 368.308 91.8848 368.42 91.4928 368.644C91.1008 368.868 90.7881 369.195 90.5548 369.624C90.3214 370.053 90.2048 370.557 90.2048 371.136C90.2048 371.724 90.3214 372.237 90.5548 372.676C90.7881 373.105 91.1008 373.437 91.4928 373.67C91.8848 373.894 92.3188 374.006 92.7948 374.006C93.2708 374.006 93.7048 373.894 94.0968 373.67C94.4981 373.437 94.8154 373.105 95.0488 372.676C95.2821 372.237 95.3988 371.729 95.3988 371.15ZM101.696 373.824L104.076 367.328H105.434L102.424 375H100.94L97.9297 367.328H99.3017L101.696 373.824ZM106.211 371.136C106.211 370.352 106.37 369.666 106.687 369.078C107.005 368.481 107.439 368.019 107.989 367.692C108.549 367.365 109.17 367.202 109.851 367.202C110.523 367.202 111.107 367.347 111.601 367.636C112.096 367.925 112.465 368.289 112.707 368.728V367.328H113.995V375H112.707V373.572C112.455 374.02 112.077 374.393 111.573 374.692C111.079 374.981 110.5 375.126 109.837 375.126C109.156 375.126 108.54 374.958 107.989 374.622C107.439 374.286 107.005 373.815 106.687 373.208C106.37 372.601 106.211 371.911 106.211 371.136ZM112.707 371.15C112.707 370.571 112.591 370.067 112.357 369.638C112.124 369.209 111.807 368.882 111.405 368.658C111.013 368.425 110.579 368.308 110.103 368.308C109.627 368.308 109.193 368.42 108.801 368.644C108.409 368.868 108.097 369.195 107.863 369.624C107.63 370.053 107.513 370.557 107.513 371.136C107.513 371.724 107.63 372.237 107.863 372.676C108.097 373.105 108.409 373.437 108.801 373.67C109.193 373.894 109.627 374.006 110.103 374.006C110.579 374.006 111.013 373.894 111.405 373.67C111.807 373.437 112.124 373.105 112.357 372.676C112.591 372.237 112.707 371.729 112.707 371.15ZM116.806 366.082C116.564 366.082 116.358 365.998 116.19 365.83C116.022 365.662 115.938 365.457 115.938 365.214C115.938 364.971 116.022 364.766 116.19 364.598C116.358 364.43 116.564 364.346 116.806 364.346C117.04 364.346 117.236 364.43 117.394 364.598C117.562 364.766 117.646 364.971 117.646 365.214C117.646 365.457 117.562 365.662 117.394 365.83C117.236 365.998 117.04 366.082 116.806 366.082ZM117.422 367.328V375H116.148V367.328H117.422ZM120.868 364.64V375H119.594V364.64H120.868ZM122.563 371.136C122.563 370.352 122.722 369.666 123.039 369.078C123.356 368.481 123.79 368.019 124.341 367.692C124.901 367.365 125.522 367.202 126.203 367.202C126.875 367.202 127.458 367.347 127.953 367.636C128.448 367.925 128.816 368.289 129.059 368.728V367.328H130.347V375H129.059V373.572C128.807 374.02 128.429 374.393 127.925 374.692C127.43 374.981 126.852 375.126 126.189 375.126C125.508 375.126 124.892 374.958 124.341 374.622C123.79 374.286 123.356 373.815 123.039 373.208C122.722 372.601 122.563 371.911 122.563 371.136ZM129.059 371.15C129.059 370.571 128.942 370.067 128.709 369.638C128.476 369.209 128.158 368.882 127.757 368.658C127.365 368.425 126.931 368.308 126.455 368.308C125.979 368.308 125.545 368.42 125.153 368.644C124.761 368.868 124.448 369.195 124.215 369.624C123.982 370.053 123.865 370.557 123.865 371.136C123.865 371.724 123.982 372.237 124.215 372.676C124.448 373.105 124.761 373.437 125.153 373.67C125.545 373.894 125.979 374.006 126.455 374.006C126.931 374.006 127.365 373.894 127.757 373.67C128.158 373.437 128.476 373.105 128.709 372.676C128.942 372.237 129.059 371.729 129.059 371.15ZM133.774 368.756C134.035 368.299 134.418 367.925 134.922 367.636C135.426 367.347 136 367.202 136.644 367.202C137.335 367.202 137.955 367.365 138.506 367.692C139.057 368.019 139.491 368.481 139.808 369.078C140.125 369.666 140.284 370.352 140.284 371.136C140.284 371.911 140.125 372.601 139.808 373.208C139.491 373.815 139.052 374.286 138.492 374.622C137.941 374.958 137.325 375.126 136.644 375.126C135.981 375.126 135.398 374.981 134.894 374.692C134.399 374.403 134.026 374.034 133.774 373.586V375H132.5V364.64H133.774V368.756ZM138.982 371.136C138.982 370.557 138.865 370.053 138.632 369.624C138.399 369.195 138.081 368.868 137.68 368.644C137.288 368.42 136.854 368.308 136.378 368.308C135.911 368.308 135.477 368.425 135.076 368.658C134.684 368.882 134.367 369.213 134.124 369.652C133.891 370.081 133.774 370.581 133.774 371.15C133.774 371.729 133.891 372.237 134.124 372.676C134.367 373.105 134.684 373.437 135.076 373.67C135.477 373.894 135.911 374.006 136.378 374.006C136.854 374.006 137.288 373.894 137.68 373.67C138.081 373.437 138.399 373.105 138.632 372.676C138.865 372.237 138.982 371.724 138.982 371.136ZM143.235 364.64V375H141.961V364.64H143.235ZM152.406 370.87C152.406 371.113 152.392 371.369 152.364 371.64H146.232C146.279 372.396 146.535 372.989 147.002 373.418C147.478 373.838 148.052 374.048 148.724 374.048C149.275 374.048 149.732 373.922 150.096 373.67C150.469 373.409 150.731 373.063 150.88 372.634H152.252C152.047 373.371 151.636 373.973 151.02 374.44C150.404 374.897 149.639 375.126 148.724 375.126C147.996 375.126 147.343 374.963 146.764 374.636C146.195 374.309 145.747 373.847 145.42 373.25C145.093 372.643 144.93 371.943 144.93 371.15C144.93 370.357 145.089 369.661 145.406 369.064C145.723 368.467 146.167 368.009 146.736 367.692C147.315 367.365 147.977 367.202 148.724 367.202C149.452 367.202 150.096 367.361 150.656 367.678C151.216 367.995 151.645 368.434 151.944 368.994C152.252 369.545 152.406 370.17 152.406 370.87ZM151.09 370.604C151.09 370.119 150.983 369.703 150.768 369.358C150.553 369.003 150.259 368.737 149.886 368.56C149.522 368.373 149.116 368.28 148.668 368.28C148.024 368.28 147.473 368.485 147.016 368.896C146.568 369.307 146.311 369.876 146.246 370.604H151.09ZM154.494 375.084C154.251 375.084 154.046 375 153.878 374.832C153.71 374.664 153.626 374.459 153.626 374.216C153.626 373.973 153.71 373.768 153.878 373.6C154.046 373.432 154.251 373.348 154.494 373.348C154.727 373.348 154.923 373.432 155.082 373.6C155.25 373.768 155.334 373.973 155.334 374.216C155.334 374.459 155.25 374.664 155.082 374.832C154.923 375 154.727 375.084 154.494 375.084Z" fill="#555555"/>
<path d="M33.6036 427V415.8H35.6516V425.4H40.6116V427H33.6036ZM45.8648 427.192C45.0648 427.192 44.3554 427.021 43.7368 426.68C43.1181 426.339 42.6328 425.859 42.2808 425.24C41.9288 424.621 41.7528 423.907 41.7528 423.096C41.7528 422.275 41.9234 421.544 42.2648 420.904C42.6168 420.264 43.0968 419.768 43.7048 419.416C44.3234 419.053 45.0488 418.872 45.8808 418.872C46.6594 418.872 47.3474 419.043 47.9448 419.384C48.5421 419.725 49.0061 420.195 49.3368 420.792C49.6781 421.379 49.8488 422.035 49.8488 422.76C49.8488 422.877 49.8434 423 49.8328 423.128C49.8328 423.256 49.8274 423.389 49.8168 423.528H43.7848C43.8274 424.147 44.0408 424.632 44.4248 424.984C44.8194 425.336 45.2941 425.512 45.8488 425.512C46.2648 425.512 46.6114 425.421 46.8888 425.24C47.1768 425.048 47.3901 424.803 47.5288 424.504H49.6088C49.4594 425.005 49.2088 425.464 48.8568 425.88C48.5154 426.285 48.0888 426.605 47.5768 426.84C47.0754 427.075 46.5048 427.192 45.8648 427.192ZM45.8808 420.536C45.3794 420.536 44.9368 420.68 44.5528 420.968C44.1688 421.245 43.9234 421.672 43.8168 422.248H47.7688C47.7368 421.725 47.5448 421.309 47.1928 421C46.8408 420.691 46.4034 420.536 45.8808 420.536ZM54.3073 427.192C53.6246 427.192 53.0646 427.085 52.6273 426.872C52.1899 426.648 51.8646 426.355 51.6513 425.992C51.4379 425.629 51.3313 425.229 51.3313 424.792C51.3313 424.056 51.6193 423.459 52.1953 423C52.7713 422.541 53.6353 422.312 54.7873 422.312H56.8033V422.12C56.8033 421.576 56.6486 421.176 56.3393 420.92C56.0299 420.664 55.6459 420.536 55.1873 420.536C54.7713 420.536 54.4086 420.637 54.0993 420.84C53.7899 421.032 53.5979 421.32 53.5233 421.704H51.5233C51.5766 421.128 51.7686 420.627 52.0993 420.2C52.4406 419.773 52.8779 419.448 53.4113 419.224C53.9446 418.989 54.5419 418.872 55.2033 418.872C56.3339 418.872 57.2246 419.155 57.8753 419.72C58.5259 420.285 58.8513 421.085 58.8513 422.12V427H57.1073L56.9153 425.72C56.6806 426.147 56.3499 426.499 55.9233 426.776C55.5073 427.053 54.9686 427.192 54.3073 427.192ZM54.7713 425.592C55.3579 425.592 55.8113 425.4 56.1313 425.016C56.4619 424.632 56.6699 424.157 56.7553 423.592H55.0113C54.4673 423.592 54.0779 423.693 53.8433 423.896C53.6086 424.088 53.4913 424.328 53.4913 424.616C53.4913 424.925 53.6086 425.165 53.8433 425.336C54.0779 425.507 54.3873 425.592 54.7713 425.592ZM60.8056 427V419.064H62.6296L62.8216 420.552C63.1096 420.04 63.499 419.635 63.9896 419.336C64.491 419.027 65.0776 418.872 65.7496 418.872V421.032H65.1736C64.7256 421.032 64.3256 421.101 63.9736 421.24C63.6216 421.379 63.3443 421.619 63.1416 421.96C62.9496 422.301 62.8536 422.776 62.8536 423.384V427H60.8056ZM67.1494 427V419.064H68.9574L69.1174 420.408C69.3627 419.939 69.7147 419.565 70.1734 419.288C70.6427 419.011 71.192 418.872 71.8214 418.872C72.8027 418.872 73.5654 419.181 74.1094 419.8C74.6534 420.419 74.9254 421.325 74.9254 422.52V427H72.8774V422.712C72.8774 422.029 72.7387 421.507 72.4614 421.144C72.184 420.781 71.752 420.6 71.1654 420.6C70.5894 420.6 70.1147 420.803 69.7414 421.208C69.3787 421.613 69.1974 422.179 69.1974 422.904V427H67.1494ZM80.7443 427V415.8H83.1763L86.7443 422.904L90.2643 415.8H92.6963V427H90.6483V419.272L87.5283 425.4H85.9123L82.7923 419.272V427H80.7443ZM98.6293 427.192C97.8613 427.192 97.1679 427.016 96.5493 426.664C95.9413 426.312 95.4559 425.827 95.0933 425.208C94.7413 424.579 94.5653 423.853 94.5653 423.032C94.5653 422.211 94.7466 421.491 95.1093 420.872C95.4719 420.243 95.9573 419.752 96.5653 419.4C97.1839 419.048 97.8773 418.872 98.6453 418.872C99.4026 418.872 100.085 419.048 100.693 419.4C101.312 419.752 101.797 420.243 102.149 420.872C102.512 421.491 102.693 422.211 102.693 423.032C102.693 423.853 102.512 424.579 102.149 425.208C101.797 425.827 101.312 426.312 100.693 426.664C100.075 427.016 99.3866 427.192 98.6293 427.192ZM98.6293 425.416C99.1626 425.416 99.6266 425.219 100.021 424.824C100.416 424.419 100.613 423.821 100.613 423.032C100.613 422.243 100.416 421.651 100.021 421.256C99.6266 420.851 99.1679 420.648 98.6453 420.648C98.1013 420.648 97.6319 420.851 97.2373 421.256C96.8533 421.651 96.6613 422.243 96.6613 423.032C96.6613 423.821 96.8533 424.419 97.2373 424.824C97.6319 425.219 98.0959 425.416 98.6293 425.416ZM104.524 427V419.064H106.348L106.54 420.552C106.828 420.04 107.218 419.635 107.708 419.336C108.21 419.027 108.796 418.872 109.468 418.872V421.032H108.892C108.444 421.032 108.044 421.101 107.692 421.24C107.34 421.379 107.063 421.619 106.86 421.96C106.668 422.301 106.572 422.776 106.572 423.384V427H104.524ZM114.584 427.192C113.784 427.192 113.074 427.021 112.456 426.68C111.837 426.339 111.352 425.859 111 425.24C110.648 424.621 110.472 423.907 110.472 423.096C110.472 422.275 110.642 421.544 110.984 420.904C111.336 420.264 111.816 419.768 112.424 419.416C113.042 419.053 113.768 418.872 114.6 418.872C115.378 418.872 116.066 419.043 116.664 419.384C117.261 419.725 117.725 420.195 118.056 420.792C118.397 421.379 118.568 422.035 118.568 422.76C118.568 422.877 118.562 423 118.552 423.128C118.552 423.256 118.546 423.389 118.536 423.528H112.504C112.546 424.147 112.76 424.632 113.144 424.984C113.538 425.336 114.013 425.512 114.568 425.512C114.984 425.512 115.33 425.421 115.608 425.24C115.896 425.048 116.109 424.803 116.248 424.504H118.328C118.178 425.005 117.928 425.464 117.576 425.88C117.234 426.285 116.808 426.605 116.296 426.84C115.794 427.075 115.224 427.192 114.584 427.192ZM114.6 420.536C114.098 420.536 113.656 420.68 113.272 420.968C112.888 421.245 112.642 421.672 112.536 422.248H116.488C116.456 421.725 116.264 421.309 115.912 421C115.56 420.691 115.122 420.536 114.6 420.536Z" fill="#23262F"/>
<rect x="131.383" y="414" width="16" height="16" rx="8" fill="#AF5FFC"/>
<path fill-rule="evenodd" clip-rule="evenodd" d="M140.428 419.633C140.631 419.445 140.948 419.458 141.135 419.661L142.75 421.411C142.927 421.602 142.927 421.898 142.75 422.089L141.135 423.839C140.948 424.042 140.631 424.055 140.428 423.867C140.225 423.68 140.213 423.364 140.4 423.161L141.241 422.25L136.383 422.25C136.107 422.25 135.883 422.026 135.883 421.75C135.883 421.474 136.107 421.25 136.383 421.25L141.241 421.25L140.4 420.339C140.213 420.136 140.225 419.82 140.428 419.633Z" fill="#FCFCFD"/>
<g clip-path="url(#clip0_4390_5803)">
<path d="M60.9967 78.0805H57.711V69.6913H59.5487C60.0361 69.6913 60.5036 69.4968 60.8482 69.1507C61.1928 68.8046 61.3865 68.3352 61.3865 67.8457C61.3865 67.3562 61.1928 66.8867 60.8482 66.5406C60.5036 66.1945 60.0361 66 59.5487 66H42.6198C42.1324 66 41.665 66.1945 41.3203 66.5406C40.9757 66.8867 40.7821 67.3561 40.7821 67.8456C40.7821 68.3351 40.9757 68.8046 41.3203 69.1507C41.665 69.4968 42.1324 69.6913 42.6198 69.6913H44.4576V78.0805H41.1721C39.9019 78.0805 38.6838 78.5873 37.7856 79.4893C36.8875 80.3913 36.3828 81.6147 36.3828 82.8904V106.604C36.3825 107.47 36.6153 108.321 37.0564 109.065C37.4975 109.809 38.1307 110.42 38.889 110.833V113.707C38.889 114.315 39.1295 114.898 39.5576 115.328C39.9858 115.758 40.5665 116 41.1721 116C41.7776 116 42.3583 115.758 42.7865 115.328C43.2146 114.898 43.4552 114.315 43.4552 113.707V111.414H58.7136V113.707C58.7136 114.315 58.9542 114.898 59.3823 115.328C59.8105 115.758 60.3912 116 60.9967 116C61.6022 116 62.1829 115.758 62.6111 115.328C63.0393 114.898 63.2798 114.315 63.2798 113.707V110.833C64.0381 110.42 64.6711 109.809 65.1122 109.065C65.5533 108.321 65.786 107.47 65.7857 106.604V82.8904C65.7857 82.2588 65.6619 81.6333 65.4212 81.0497C65.1806 80.4662 64.8278 79.936 64.3831 79.4893C63.9384 79.0427 63.4104 78.6884 62.8294 78.4467C62.2484 78.2049 61.6256 78.0805 60.9967 78.0805ZM47.0842 69.6913H55.0844V78.0805H47.0842V69.6913Z" fill="#D3C1E6"/>
</g>
<path opacity="0.9" d="M70.3828 69C67.6139 69 64.9071 69.8211 62.6049 71.3594C60.3026 72.8978 58.5081 75.0843 57.4485 77.6424C56.3889 80.2006 56.1116 83.0155 56.6518 85.7313C57.192 88.447 58.5254 90.9415 60.4833 92.8995C62.4412 94.8574 64.9358 96.1908 67.6516 96.731C70.3673 97.2712 73.1822 96.9939 75.7404 95.9343C78.2985 94.8747 80.485 93.0803 82.0233 90.778C83.5617 88.4757 84.3828 85.7689 84.3828 83C84.3828 79.287 82.9078 75.726 80.2823 73.1005C77.6568 70.475 74.0958 69 70.3828 69ZM76.6727 78.4993L68.3262 88.2557C68.2336 88.3639 68.1187 88.4508 67.9894 88.5103C67.8601 88.5699 67.7194 88.6008 67.577 88.6008C67.5614 88.6008 67.5457 88.6004 67.5301 88.5996C67.3799 88.5925 67.2334 88.5512 67.1017 88.4787C66.97 88.4063 66.8566 88.3047 66.7701 88.1818L63.6313 83.7169C63.5566 83.611 63.5035 83.4914 63.4751 83.3649C63.4467 83.2384 63.4435 83.1076 63.4656 82.9799C63.4878 82.8522 63.535 82.7301 63.6044 82.6206C63.6738 82.5112 63.7641 82.4164 63.8701 82.3419C63.9761 82.2673 64.0958 82.2144 64.2223 82.1862C64.3488 82.158 64.4797 82.1549 64.6073 82.1773C64.735 82.1996 64.857 82.247 64.9664 82.3165C65.0758 82.3861 65.1704 82.4765 65.2448 82.5827L67.6531 86.0085L75.174 77.2172C75.344 77.0184 75.5861 76.8954 75.8468 76.8751C76.1076 76.8548 76.3657 76.9389 76.5644 77.1089C76.7632 77.279 76.8862 77.521 76.9065 77.7817C76.9268 78.0425 76.8427 78.3006 76.6727 78.4993Z" fill="#870AFF" fill-opacity="0.7"/>
<defs>
<clipPath id="clip0_4390_5803">
<rect width="43" height="50" fill="white" transform="translate(36.3828 66)"/>
</clipPath>
</defs>
</svg>
