<svg width="274" height="151" viewBox="0 0 274 151" fill="none" xmlns="http://www.w3.org/2000/svg">
<g filter="url(#filter0_d_4390_5935)">
<rect x="10.3828" y="6.87012" width="253" height="130" rx="16.7642" fill="white"/>
<rect x="16.8789" y="13.3662" width="240.008" height="117.008" rx="10.2681" stroke="#F3F5F7" stroke-width="12.9923"/>
<circle cx="43.0732" cy="43.3319" r="12.5731" fill="#3772FF" fill-opacity="0.1"/>
<path d="M41.6216 40.5592C41.6216 39.6334 43.0289 38.8828 44.7648 38.8828C46.5008 38.8828 47.9081 39.6334 47.9081 40.5592C47.9081 41.485 46.5008 42.2357 44.7648 42.2357C43.0289 42.2357 41.6216 41.485 41.6216 40.5592ZM44.7648 43.0739C44.3344 43.0739 43.9262 43.0257 43.5532 42.9418C42.9836 42.5148 42.0503 42.2357 40.9929 42.2357C39.257 42.2357 37.8496 42.9863 37.8496 43.9121C37.8496 44.8379 39.257 45.5885 40.9929 45.5885C42.7288 45.5885 44.1362 44.8379 44.1362 43.9121C44.1362 43.8999 44.1333 43.8882 44.1328 43.876H44.1362V44.7503C44.1362 45.6761 42.7288 46.4267 40.9929 46.4267C39.257 46.4267 37.8496 45.6761 37.8496 44.7503V45.5885C37.8496 46.5143 39.257 47.2649 40.9929 47.2649C42.7288 47.2649 44.1362 46.5143 44.1362 45.5885V46.4267C44.1362 47.3525 42.7288 48.1031 40.9929 48.1031C39.257 48.1031 37.8496 47.3525 37.8496 46.4267V47.2649C37.8496 48.1907 39.257 48.9413 40.9929 48.9413C42.7288 48.9413 44.1362 48.1907 44.1362 47.2649V47.2314C44.3395 47.2532 44.5494 47.2649 44.7648 47.2649C46.5008 47.2649 47.9081 46.5143 47.9081 45.5885V44.7503C47.9081 45.6384 46.6123 46.3634 44.9744 46.4213V45.583C46.6123 45.5252 47.9081 44.8006 47.9081 43.9121V43.0739C47.9081 43.9619 46.6123 44.687 44.9744 44.7448V43.9066C46.6123 43.8488 47.9081 43.1242 47.9081 42.2357V41.3974C47.9081 42.3232 46.5008 43.0739 44.7648 43.0739Z" fill="#0767ED"/>
<path d="M64.8093 47.332V39.632H65.9753V47.332H64.8093ZM67.4938 47.332V41.876H68.5278L68.6158 42.833C68.7845 42.4957 69.0302 42.2317 69.3528 42.041C69.6828 41.843 70.0605 41.744 70.4858 41.744C71.1458 41.744 71.6628 41.9494 72.0368 42.36C72.4182 42.7707 72.6088 43.383 72.6088 44.197V47.332H71.4538V44.318C71.4538 43.262 71.0212 42.734 70.1558 42.734C69.7232 42.734 69.3638 42.888 69.0778 43.196C68.7992 43.504 68.6598 43.944 68.6598 44.516V47.332H67.4938ZM76.2701 47.332C75.7348 47.332 75.3095 47.2037 74.9941 46.947C74.6788 46.683 74.5211 46.2174 74.5211 45.55V42.855H73.5861V41.876H74.5211L74.6641 40.49H75.6871V41.876H77.2271V42.855H75.6871V45.55C75.6871 45.8507 75.7495 46.0597 75.8741 46.177C76.0061 46.287 76.2298 46.342 76.5451 46.342H77.1721V47.332H76.2701ZM80.8417 47.464C80.3064 47.464 79.8297 47.3467 79.4117 47.112C79.0011 46.87 78.6784 46.5364 78.4437 46.111C78.2091 45.6857 78.0917 45.1907 78.0917 44.626C78.0917 44.054 78.2054 43.5517 78.4327 43.119C78.6674 42.6864 78.9901 42.349 79.4007 42.107C79.8187 41.865 80.3027 41.744 80.8527 41.744C81.3881 41.744 81.8537 41.865 82.2497 42.107C82.6457 42.3417 82.9537 42.657 83.1737 43.053C83.3937 43.449 83.5037 43.8854 83.5037 44.362C83.5037 44.4354 83.5001 44.516 83.4927 44.604C83.4927 44.6847 83.4891 44.7764 83.4817 44.879H79.2357C79.2724 45.407 79.4447 45.8104 79.7527 46.089C80.0681 46.3604 80.4311 46.496 80.8417 46.496C81.1717 46.496 81.4467 46.4227 81.6667 46.276C81.8941 46.122 82.0627 45.9167 82.1727 45.66H83.3387C83.1921 46.1734 82.8987 46.6024 82.4587 46.947C82.0261 47.2917 81.4871 47.464 80.8417 47.464ZM80.8417 42.701C80.4531 42.701 80.1084 42.8184 79.8077 43.053C79.5071 43.2804 79.3237 43.625 79.2577 44.087H82.3377C82.3157 43.6617 82.1654 43.3244 81.8867 43.075C81.6081 42.8257 81.2597 42.701 80.8417 42.701ZM84.7136 47.332V41.876H85.7586L85.8576 42.91C86.0482 42.5507 86.3122 42.2684 86.6496 42.063C86.9942 41.8504 87.4086 41.744 87.8926 41.744V42.965H87.5736C87.2509 42.965 86.9612 43.02 86.7046 43.13C86.4552 43.2327 86.2536 43.4124 86.0996 43.669C85.9529 43.9184 85.8796 44.2667 85.8796 44.714V47.332H84.7136ZM91.2939 47.464C90.7585 47.464 90.2819 47.3467 89.8639 47.112C89.4532 46.87 89.1305 46.5364 88.8959 46.111C88.6612 45.6857 88.5439 45.1907 88.5439 44.626C88.5439 44.054 88.6575 43.5517 88.8849 43.119C89.1195 42.6864 89.4422 42.349 89.8529 42.107C90.2709 41.865 90.7549 41.744 91.3049 41.744C91.8402 41.744 92.3059 41.865 92.7019 42.107C93.0979 42.3417 93.4059 42.657 93.6259 43.053C93.8459 43.449 93.9559 43.8854 93.9559 44.362C93.9559 44.4354 93.9522 44.516 93.9449 44.604C93.9449 44.6847 93.9412 44.7764 93.9339 44.879H89.6879C89.7245 45.407 89.8969 45.8104 90.2049 46.089C90.5202 46.3604 90.8832 46.496 91.2939 46.496C91.6239 46.496 91.8989 46.4227 92.1189 46.276C92.3462 46.122 92.5149 45.9167 92.6249 45.66H93.7909C93.6442 46.1734 93.3509 46.6024 92.9109 46.947C92.4782 47.2917 91.9392 47.464 91.2939 47.464ZM91.2939 42.701C90.9052 42.701 90.5605 42.8184 90.2599 43.053C89.9592 43.2804 89.7759 43.625 89.7099 44.087H92.7899C92.7679 43.6617 92.6175 43.3244 92.3389 43.075C92.0602 42.8257 91.7119 42.701 91.2939 42.701ZM97.3437 47.464C96.6544 47.464 96.086 47.2954 95.6387 46.958C95.1914 46.6207 94.9347 46.1734 94.8687 45.616H96.0457C96.1044 45.8654 96.2437 46.0817 96.4637 46.265C96.6837 46.441 96.9734 46.529 97.3327 46.529C97.6847 46.529 97.9414 46.4557 98.1027 46.309C98.264 46.1624 98.3447 45.9937 98.3447 45.803C98.3447 45.5244 98.231 45.3374 98.0037 45.242C97.7837 45.1394 97.4757 45.0477 97.0797 44.967C96.7717 44.901 96.4637 44.813 96.1557 44.703C95.855 44.593 95.602 44.439 95.3967 44.241C95.1987 44.0357 95.0997 43.7607 95.0997 43.416C95.0997 42.9394 95.283 42.5434 95.6497 42.228C96.0164 41.9054 96.5297 41.744 97.1897 41.744C97.7984 41.744 98.2897 41.8907 98.6637 42.184C99.045 42.4774 99.2687 42.8917 99.3347 43.427H98.2127C98.176 43.1924 98.066 43.009 97.8827 42.877C97.7067 42.745 97.4684 42.679 97.1677 42.679C96.8744 42.679 96.647 42.7414 96.4857 42.866C96.3244 42.9834 96.2437 43.1374 96.2437 43.328C96.2437 43.5187 96.3537 43.669 96.5737 43.779C96.801 43.889 97.098 43.988 97.4647 44.076C97.8314 44.1567 98.1687 44.252 98.4767 44.362C98.792 44.4647 99.045 44.6187 99.2357 44.824C99.4264 45.0294 99.5217 45.33 99.5217 45.726C99.529 46.2247 99.3347 46.639 98.9387 46.969C98.55 47.299 98.0184 47.464 97.3437 47.464ZM102.879 47.332C102.343 47.332 101.918 47.2037 101.603 46.947C101.287 46.683 101.13 46.2174 101.13 45.55V42.855H100.195V41.876H101.13L101.273 40.49H102.296V41.876H103.836V42.855H102.296V45.55C102.296 45.8507 102.358 46.0597 102.483 46.177C102.615 46.287 102.838 46.342 103.154 46.342H103.781V47.332H102.879ZM109.822 47.464C109.162 47.464 108.642 47.2587 108.26 46.848C107.886 46.4374 107.699 45.825 107.699 45.011V41.876H108.865V44.89C108.865 45.946 109.298 46.474 110.163 46.474C110.596 46.474 110.952 46.32 111.23 46.012C111.509 45.704 111.648 45.264 111.648 44.692V41.876H112.814V47.332H111.78L111.692 46.375C111.524 46.7124 111.274 46.98 110.944 47.178C110.622 47.3687 110.248 47.464 109.822 47.464ZM114.298 49.752V41.876H115.343L115.464 42.723C115.64 42.4664 115.882 42.239 116.19 42.041C116.498 41.843 116.894 41.744 117.378 41.744C117.906 41.744 118.371 41.8687 118.775 42.118C119.178 42.3674 119.493 42.7084 119.721 43.141C119.955 43.5737 120.073 44.065 120.073 44.615C120.073 45.165 119.955 45.6564 119.721 46.089C119.493 46.5144 119.178 46.8517 118.775 47.101C118.371 47.343 117.902 47.464 117.367 47.464C116.941 47.464 116.564 47.3797 116.234 47.211C115.911 47.0424 115.654 46.804 115.464 46.496V49.752H114.298ZM117.169 46.452C117.667 46.452 118.078 46.2834 118.401 45.946C118.723 45.6014 118.885 45.154 118.885 44.604C118.885 44.2447 118.811 43.9257 118.665 43.647C118.518 43.3684 118.316 43.152 118.06 42.998C117.803 42.8367 117.506 42.756 117.169 42.756C116.67 42.756 116.259 42.9284 115.937 43.273C115.621 43.6177 115.464 44.0614 115.464 44.604C115.464 45.154 115.621 45.6014 115.937 45.946C116.259 46.2834 116.67 46.452 117.169 46.452ZM121.609 47.332V42.855H120.828V41.876H121.609V41.084C121.609 40.49 121.755 40.0647 122.049 39.808C122.349 39.544 122.771 39.412 123.314 39.412H123.886V40.402H123.49C123.233 40.402 123.05 40.457 122.94 40.567C122.83 40.6697 122.775 40.8457 122.775 41.095V41.876H124.029V42.855H122.775V47.332H121.609ZM125.136 47.332V41.876H126.181L126.28 42.91C126.471 42.5507 126.735 42.2684 127.072 42.063C127.417 41.8504 127.831 41.744 128.315 41.744V42.965H127.996C127.674 42.965 127.384 43.02 127.127 43.13C126.878 43.2327 126.676 43.4124 126.522 43.669C126.376 43.9184 126.302 44.2667 126.302 44.714V47.332H125.136ZM131.717 47.464C131.196 47.464 130.727 47.3467 130.309 47.112C129.898 46.87 129.572 46.5364 129.33 46.111C129.088 45.6784 128.967 45.176 128.967 44.604C128.967 44.032 129.088 43.5334 129.33 43.108C129.579 42.6754 129.913 42.3417 130.331 42.107C130.749 41.865 131.214 41.744 131.728 41.744C132.248 41.744 132.714 41.865 133.125 42.107C133.543 42.3417 133.873 42.6754 134.115 43.108C134.364 43.5334 134.489 44.032 134.489 44.604C134.489 45.176 134.364 45.6784 134.115 46.111C133.873 46.5364 133.543 46.87 133.125 47.112C132.707 47.3467 132.237 47.464 131.717 47.464ZM131.717 46.463C131.995 46.463 132.252 46.3934 132.487 46.254C132.729 46.1147 132.923 45.9094 133.07 45.638C133.216 45.3594 133.29 45.0147 133.29 44.604C133.29 44.1934 133.216 43.8524 133.07 43.581C132.93 43.3024 132.74 43.0934 132.498 42.954C132.263 42.8147 132.006 42.745 131.728 42.745C131.449 42.745 131.189 42.8147 130.947 42.954C130.712 43.0934 130.521 43.3024 130.375 43.581C130.228 43.8524 130.155 44.1934 130.155 44.604C130.155 45.0147 130.228 45.3594 130.375 45.638C130.521 45.9094 130.712 46.1147 130.947 46.254C131.181 46.3934 131.438 46.463 131.717 46.463ZM135.75 47.332V41.876H136.784L136.872 42.833C137.04 42.4957 137.286 42.2317 137.609 42.041C137.939 41.843 138.316 41.744 138.742 41.744C139.402 41.744 139.919 41.9494 140.293 42.36C140.674 42.7707 140.865 43.383 140.865 44.197V47.332H139.71V44.318C139.71 43.262 139.277 42.734 138.412 42.734C137.979 42.734 137.62 42.888 137.334 43.196C137.055 43.504 136.916 43.944 136.916 44.516V47.332H135.75ZM144.526 47.332C143.991 47.332 143.565 47.2037 143.25 46.947C142.935 46.683 142.777 46.2174 142.777 45.55V42.855H141.842V41.876H142.777L142.92 40.49H143.943V41.876H145.483V42.855H143.943V45.55C143.943 45.8507 144.005 46.0597 144.13 46.177C144.262 46.287 144.486 46.342 144.801 46.342H145.428V47.332H144.526Z" fill="black"/>
<g clip-path="url(#clip0_4390_5935)">
<rect width="28.4991" height="17.6423" transform="translate(188.777 34.5107)" fill="white"/>
<rect x="189.455" y="35.1689" width="27.142" height="16.2852" rx="8.14261" fill="#3772FF"/>
<g filter="url(#filter1_d_4390_5935)">
<rect x="201.67" y="36.5264" width="13.571" height="13.571" rx="6.78551" fill="white"/>
</g>
</g>
<circle cx="43.0732" cy="88.5956" r="12.5731" fill="#3772FF" fill-opacity="0.1"/>
<path fill-rule="evenodd" clip-rule="evenodd" d="M42.4555 85.0208C42.3328 84.898 42.1337 84.898 42.011 85.0208C41.8882 85.1435 41.8882 85.3426 42.011 85.4653L42.3126 85.7669H41.1855C40.2018 85.7669 39.4043 86.5644 39.4043 87.5481C39.4043 88.5318 40.2018 89.3293 41.1855 89.3293H44.9574C45.594 89.3293 46.11 89.8453 46.11 90.4819C46.11 91.1184 45.594 91.6344 44.9574 91.6344H41.666C41.5292 91.1506 41.0844 90.7961 40.5568 90.7961C39.9203 90.7961 39.4043 91.3121 39.4043 91.9487C39.4043 92.5852 39.9203 93.1012 40.5568 93.1012C41.0844 93.1012 41.5291 92.7468 41.666 92.263H44.9574C45.9412 92.263 46.7386 91.4656 46.7386 90.4819C46.7386 89.4981 45.9412 88.7007 44.9574 88.7007H41.1855C40.549 88.7007 40.033 88.1846 40.033 87.5481C40.033 86.9116 40.549 86.3956 41.1855 86.3956H42.3126L42.011 86.6972C41.8882 86.8199 41.8882 87.019 42.011 87.1417C42.1337 87.2645 42.3328 87.2645 42.4555 87.1417L43.2937 86.3035C43.4165 86.1808 43.4165 85.9817 43.2937 85.859L42.4555 85.0208ZM44.4335 86.0812C44.4335 85.4447 44.9495 84.9287 45.5861 84.9287C46.2226 84.9287 46.7386 85.4447 46.7386 86.0812C46.7386 86.7178 46.2226 87.2338 45.5861 87.2338C44.9495 87.2338 44.4335 86.7178 44.4335 86.0812Z" fill="#3772FF"/>
<path d="M64.8093 92.5957V84.8957H67.4603C68.069 84.8957 68.5677 84.9984 68.9563 85.2037C69.3523 85.409 69.6457 85.6877 69.8363 86.0397C70.027 86.3844 70.1223 86.7694 70.1223 87.1947C70.1223 87.6714 69.994 88.104 69.7373 88.4927C69.488 88.8814 69.0957 89.16 68.5603 89.3287L70.1993 92.5957H68.8463L67.3503 89.4937H65.9753V92.5957H64.8093ZM65.9753 88.6137H67.3943C67.9223 88.6137 68.3073 88.4854 68.5493 88.2287C68.7987 87.972 68.9233 87.6384 68.9233 87.2277C68.9233 86.817 68.8023 86.4907 68.5603 86.2487C68.3183 85.9994 67.926 85.8747 67.3833 85.8747H65.9753V88.6137ZM73.6767 92.7277C73.1414 92.7277 72.6647 92.6104 72.2467 92.3757C71.836 92.1337 71.5134 91.8 71.2787 91.3747C71.044 90.9494 70.9267 90.4544 70.9267 89.8897C70.9267 89.3177 71.0404 88.8154 71.2677 88.3827C71.5024 87.95 71.825 87.6127 72.2357 87.3707C72.6537 87.1287 73.1377 87.0077 73.6877 87.0077C74.223 87.0077 74.6887 87.1287 75.0847 87.3707C75.4807 87.6054 75.7887 87.9207 76.0087 88.3167C76.2287 88.7127 76.3387 89.149 76.3387 89.6257C76.3387 89.699 76.335 89.7797 76.3277 89.8677C76.3277 89.9484 76.324 90.04 76.3167 90.1427H72.0707C72.1074 90.6707 72.2797 91.074 72.5877 91.3527C72.903 91.624 73.266 91.7597 73.6767 91.7597C74.0067 91.7597 74.2817 91.6864 74.5017 91.5397C74.729 91.3857 74.8977 91.1804 75.0077 90.9237H76.1737C76.027 91.437 75.7337 91.866 75.2937 92.2107C74.861 92.5554 74.322 92.7277 73.6767 92.7277ZM73.6767 87.9647C73.288 87.9647 72.9434 88.082 72.6427 88.3167C72.342 88.544 72.1587 88.8887 72.0927 89.3507H75.1727C75.1507 88.9254 75.0004 88.588 74.7217 88.3387C74.443 88.0894 74.0947 87.9647 73.6767 87.9647ZM80.1335 92.7277C79.5982 92.7277 79.1179 92.6067 78.6925 92.3647C78.2745 92.1227 77.9445 91.789 77.7025 91.3637C77.4679 90.931 77.3505 90.4324 77.3505 89.8677C77.3505 89.303 77.4679 88.808 77.7025 88.3827C77.9445 87.95 78.2745 87.6127 78.6925 87.3707C79.1179 87.1287 79.5982 87.0077 80.1335 87.0077C80.8082 87.0077 81.3729 87.1837 81.8275 87.5357C82.2895 87.8877 82.5865 88.3644 82.7185 88.9657H81.4975C81.4242 88.665 81.2629 88.4304 81.0135 88.2617C80.7642 88.093 80.4709 88.0087 80.1335 88.0087C79.8475 88.0087 79.5835 88.082 79.3415 88.2287C79.0995 88.368 78.9052 88.577 78.7585 88.8557C78.6119 89.127 78.5385 89.4644 78.5385 89.8677C78.5385 90.271 78.6119 90.612 78.7585 90.8907C78.9052 91.162 79.0995 91.371 79.3415 91.5177C79.5835 91.6644 79.8475 91.7377 80.1335 91.7377C80.4709 91.7377 80.7642 91.6534 81.0135 91.4847C81.2629 91.316 81.4242 91.0777 81.4975 90.7697H82.7185C82.5939 91.3564 82.3005 91.8294 81.8385 92.1887C81.3765 92.548 80.8082 92.7277 80.1335 92.7277ZM85.9961 92.7277C85.3361 92.7277 84.8154 92.5224 84.4341 92.1117C84.0601 91.701 83.8731 91.0887 83.8731 90.2747V87.1397H85.0391V90.1537C85.0391 91.2097 85.4718 91.7377 86.3371 91.7377C86.7698 91.7377 87.1254 91.5837 87.4041 91.2757C87.6828 90.9677 87.8221 90.5277 87.8221 89.9557V87.1397H88.9881V92.5957H87.9541L87.8661 91.6387C87.6974 91.976 87.4481 92.2437 87.1181 92.4417C86.7954 92.6324 86.4214 92.7277 85.9961 92.7277ZM90.4714 92.5957V87.1397H91.5164L91.6154 88.1737C91.806 87.8144 92.07 87.532 92.4074 87.3267C92.752 87.114 93.1664 87.0077 93.6504 87.0077V88.2287H93.3314C93.0087 88.2287 92.719 88.2837 92.4624 88.3937C92.213 88.4964 92.0114 88.676 91.8574 88.9327C91.7107 89.182 91.6374 89.5304 91.6374 89.9777V92.5957H90.4714ZM94.6501 92.5957V87.1397H95.6951L95.7941 88.1737C95.9848 87.8144 96.2488 87.532 96.5861 87.3267C96.9308 87.114 97.3451 87.0077 97.8291 87.0077V88.2287H97.5101C97.1874 88.2287 96.8978 88.2837 96.6411 88.3937C96.3918 88.4964 96.1901 88.676 96.0361 88.9327C95.8894 89.182 95.8161 89.5304 95.8161 89.9777V92.5957H94.6501ZM99.4888 86.1057C99.2688 86.1057 99.0855 86.0397 98.9388 85.9077C98.7995 85.7684 98.7298 85.596 98.7298 85.3907C98.7298 85.1854 98.7995 85.0167 98.9388 84.8847C99.0855 84.7454 99.2688 84.6757 99.4888 84.6757C99.7088 84.6757 99.8885 84.7454 100.028 84.8847C100.174 85.0167 100.248 85.1854 100.248 85.3907C100.248 85.596 100.174 85.7684 100.028 85.9077C99.8885 86.0397 99.7088 86.1057 99.4888 86.1057ZM98.9058 92.5957V87.1397H100.072V92.5957H98.9058ZM101.611 92.5957V87.1397H102.645L102.733 88.0967C102.902 87.7594 103.147 87.4954 103.47 87.3047C103.8 87.1067 104.178 87.0077 104.603 87.0077C105.263 87.0077 105.78 87.213 106.154 87.6237C106.535 88.0344 106.726 88.6467 106.726 89.4607V92.5957H105.571V89.5817C105.571 88.5257 105.138 87.9977 104.273 87.9977C103.84 87.9977 103.481 88.1517 103.195 88.4597C102.916 88.7677 102.777 89.2077 102.777 89.7797V92.5957H101.611ZM110.332 90.9237C110.046 90.9237 109.782 90.8907 109.54 90.8247L109.067 91.2867C109.148 91.338 109.247 91.382 109.364 91.4187C109.482 91.4554 109.647 91.4884 109.859 91.5177C110.072 91.547 110.362 91.5764 110.728 91.6057C111.454 91.6717 111.979 91.8477 112.301 92.1337C112.624 92.4124 112.785 92.7864 112.785 93.2557C112.785 93.5784 112.697 93.8827 112.521 94.1687C112.353 94.462 112.085 94.6967 111.718 94.8727C111.359 95.056 110.897 95.1477 110.332 95.1477C109.57 95.1477 108.95 95.001 108.473 94.7077C108.004 94.4217 107.769 93.9854 107.769 93.3987C107.769 93.1714 107.828 92.944 107.945 92.7167C108.07 92.4967 108.264 92.2877 108.528 92.0897C108.374 92.0237 108.239 91.954 108.121 91.8807C108.011 91.8 107.912 91.7194 107.824 91.6387V91.3747L108.77 90.4067C108.345 90.04 108.132 89.5597 108.132 88.9657C108.132 88.6064 108.217 88.28 108.385 87.9867C108.561 87.686 108.814 87.4477 109.144 87.2717C109.474 87.0957 109.87 87.0077 110.332 87.0077C110.64 87.0077 110.926 87.0517 111.19 87.1397H113.225V87.9097L112.257 87.9647C112.433 88.2654 112.521 88.599 112.521 88.9657C112.521 89.3324 112.433 89.6624 112.257 89.9557C112.089 90.249 111.839 90.4837 111.509 90.6597C111.187 90.8357 110.794 90.9237 110.332 90.9237ZM110.332 90.0107C110.67 90.0107 110.941 89.9227 111.146 89.7467C111.359 89.5634 111.465 89.3067 111.465 88.9767C111.465 88.6394 111.359 88.3827 111.146 88.2067C110.941 88.0307 110.67 87.9427 110.332 87.9427C109.988 87.9427 109.709 88.0307 109.496 88.2067C109.291 88.3827 109.188 88.6394 109.188 88.9767C109.188 89.3067 109.291 89.5634 109.496 89.7467C109.709 89.9227 109.988 90.0107 110.332 90.0107ZM108.869 93.2887C108.869 93.604 109.009 93.8387 109.287 93.9927C109.566 94.154 109.914 94.2347 110.332 94.2347C110.736 94.2347 111.062 94.1467 111.311 93.9707C111.561 93.802 111.685 93.5747 111.685 93.2887C111.685 93.076 111.601 92.8927 111.432 92.7387C111.264 92.592 110.945 92.5004 110.475 92.4637C110.123 92.4417 109.812 92.4087 109.54 92.3647C109.284 92.504 109.108 92.6544 109.012 92.8157C108.917 92.977 108.869 93.1347 108.869 93.2887ZM119.215 92.7277C118.525 92.7277 117.957 92.559 117.51 92.2217C117.062 91.8844 116.806 91.437 116.74 90.8797H117.917C117.975 91.129 118.115 91.3454 118.335 91.5287C118.555 91.7047 118.844 91.7927 119.204 91.7927C119.556 91.7927 119.812 91.7194 119.974 91.5727C120.135 91.426 120.216 91.2574 120.216 91.0667C120.216 90.788 120.102 90.601 119.875 90.5057C119.655 90.403 119.347 90.3114 118.951 90.2307C118.643 90.1647 118.335 90.0767 118.027 89.9667C117.726 89.8567 117.473 89.7027 117.268 89.5047C117.07 89.2994 116.971 89.0244 116.971 88.6797C116.971 88.203 117.154 87.807 117.521 87.4917C117.887 87.169 118.401 87.0077 119.061 87.0077C119.669 87.0077 120.161 87.1544 120.535 87.4477C120.916 87.741 121.14 88.1554 121.206 88.6907H120.084C120.047 88.456 119.937 88.2727 119.754 88.1407C119.578 88.0087 119.339 87.9427 119.039 87.9427C118.745 87.9427 118.518 88.005 118.357 88.1297C118.195 88.247 118.115 88.401 118.115 88.5917C118.115 88.7824 118.225 88.9327 118.445 89.0427C118.672 89.1527 118.969 89.2517 119.336 89.3397C119.702 89.4204 120.04 89.5157 120.348 89.6257C120.663 89.7284 120.916 89.8824 121.107 90.0877C121.297 90.293 121.393 90.5937 121.393 90.9897C121.4 91.4884 121.206 91.9027 120.81 92.2327C120.421 92.5627 119.889 92.7277 119.215 92.7277ZM124.514 92.7277C124.052 92.7277 123.67 92.6507 123.37 92.4967C123.069 92.3427 122.845 92.141 122.699 91.8917C122.552 91.635 122.479 91.3564 122.479 91.0557C122.479 90.5277 122.684 90.1097 123.095 89.8017C123.505 89.4937 124.092 89.3397 124.855 89.3397H126.285V89.2407C126.285 88.8154 126.167 88.4964 125.933 88.2837C125.705 88.071 125.408 87.9647 125.042 87.9647C124.719 87.9647 124.437 88.0454 124.195 88.2067C123.96 88.3607 123.817 88.5917 123.766 88.8997H122.6C122.636 88.5037 122.768 88.1664 122.996 87.8877C123.23 87.6017 123.524 87.3854 123.876 87.2387C124.235 87.0847 124.627 87.0077 125.053 87.0077C125.815 87.0077 126.406 87.2094 126.824 87.6127C127.242 88.0087 127.451 88.5514 127.451 89.2407V92.5957H126.439L126.34 91.6607C126.186 91.9614 125.962 92.2144 125.669 92.4197C125.375 92.625 124.99 92.7277 124.514 92.7277ZM124.745 91.7817C125.06 91.7817 125.324 91.7084 125.537 91.5617C125.757 91.4077 125.925 91.206 126.043 90.9567C126.167 90.7074 126.244 90.4324 126.274 90.1317H124.976C124.514 90.1317 124.184 90.2124 123.986 90.3737C123.795 90.535 123.7 90.7367 123.7 90.9787C123.7 91.228 123.791 91.426 123.975 91.5727C124.165 91.712 124.422 91.7817 124.745 91.7817ZM130.157 92.5957L128.111 87.1397H129.332L130.85 91.4847L132.368 87.1397H133.578L131.543 92.5957H130.157ZM135.196 86.1057C134.976 86.1057 134.792 86.0397 134.646 85.9077C134.506 85.7684 134.437 85.596 134.437 85.3907C134.437 85.1854 134.506 85.0167 134.646 84.8847C134.792 84.7454 134.976 84.6757 135.196 84.6757C135.416 84.6757 135.595 84.7454 135.735 84.8847C135.881 85.0167 135.955 85.1854 135.955 85.3907C135.955 85.596 135.881 85.7684 135.735 85.9077C135.595 86.0397 135.416 86.1057 135.196 86.1057ZM134.613 92.5957V87.1397H135.779V92.5957H134.613ZM137.318 92.5957V87.1397H138.352L138.44 88.0967C138.609 87.7594 138.854 87.4954 139.177 87.3047C139.507 87.1067 139.885 87.0077 140.31 87.0077C140.97 87.0077 141.487 87.213 141.861 87.6237C142.242 88.0344 142.433 88.6467 142.433 89.4607V92.5957H141.278V89.5817C141.278 88.5257 140.845 87.9977 139.98 87.9977C139.547 87.9977 139.188 88.1517 138.902 88.4597C138.623 88.7677 138.484 89.2077 138.484 89.7797V92.5957H137.318ZM146.039 90.9237C145.753 90.9237 145.489 90.8907 145.247 90.8247L144.774 91.2867C144.855 91.338 144.954 91.382 145.071 91.4187C145.189 91.4554 145.354 91.4884 145.566 91.5177C145.779 91.547 146.069 91.5764 146.435 91.6057C147.161 91.6717 147.686 91.8477 148.008 92.1337C148.331 92.4124 148.492 92.7864 148.492 93.2557C148.492 93.5784 148.404 93.8827 148.228 94.1687C148.06 94.462 147.792 94.6967 147.425 94.8727C147.066 95.056 146.604 95.1477 146.039 95.1477C145.277 95.1477 144.657 95.001 144.18 94.7077C143.711 94.4217 143.476 93.9854 143.476 93.3987C143.476 93.1714 143.535 92.944 143.652 92.7167C143.777 92.4967 143.971 92.2877 144.235 92.0897C144.081 92.0237 143.946 91.954 143.828 91.8807C143.718 91.8 143.619 91.7194 143.531 91.6387V91.3747L144.477 90.4067C144.052 90.04 143.839 89.5597 143.839 88.9657C143.839 88.6064 143.924 88.28 144.092 87.9867C144.268 87.686 144.521 87.4477 144.851 87.2717C145.181 87.0957 145.577 87.0077 146.039 87.0077C146.347 87.0077 146.633 87.0517 146.897 87.1397H148.932V87.9097L147.964 87.9647C148.14 88.2654 148.228 88.599 148.228 88.9657C148.228 89.3324 148.14 89.6624 147.964 89.9557C147.796 90.249 147.546 90.4837 147.216 90.6597C146.894 90.8357 146.501 90.9237 146.039 90.9237ZM146.039 90.0107C146.377 90.0107 146.648 89.9227 146.853 89.7467C147.066 89.5634 147.172 89.3067 147.172 88.9767C147.172 88.6394 147.066 88.3827 146.853 88.2067C146.648 88.0307 146.377 87.9427 146.039 87.9427C145.695 87.9427 145.416 88.0307 145.203 88.2067C144.998 88.3827 144.895 88.6394 144.895 88.9767C144.895 89.3067 144.998 89.5634 145.203 89.7467C145.416 89.9227 145.695 90.0107 146.039 90.0107ZM144.576 93.2887C144.576 93.604 144.716 93.8387 144.994 93.9927C145.273 94.154 145.621 94.2347 146.039 94.2347C146.443 94.2347 146.769 94.1467 147.018 93.9707C147.268 93.802 147.392 93.5747 147.392 93.2887C147.392 93.076 147.308 92.8927 147.139 92.7387C146.971 92.592 146.652 92.5004 146.182 92.4637C145.83 92.4417 145.519 92.4087 145.247 92.3647C144.991 92.504 144.815 92.6544 144.719 92.8157C144.624 92.977 144.576 93.1347 144.576 93.2887ZM152.15 92.7277C151.461 92.7277 150.893 92.559 150.445 92.2217C149.998 91.8844 149.741 91.437 149.675 90.8797H150.852C150.911 91.129 151.05 91.3454 151.27 91.5287C151.49 91.7047 151.78 91.7927 152.139 91.7927C152.491 91.7927 152.748 91.7194 152.909 91.5727C153.071 91.426 153.151 91.2574 153.151 91.0667C153.151 90.788 153.038 90.601 152.81 90.5057C152.59 90.403 152.282 90.3114 151.886 90.2307C151.578 90.1647 151.27 90.0767 150.962 89.9667C150.662 89.8567 150.409 89.7027 150.203 89.5047C150.005 89.2994 149.906 89.0244 149.906 88.6797C149.906 88.203 150.09 87.807 150.456 87.4917C150.823 87.169 151.336 87.0077 151.996 87.0077C152.605 87.0077 153.096 87.1544 153.47 87.4477C153.852 87.741 154.075 88.1554 154.141 88.6907H153.019C152.983 88.456 152.873 88.2727 152.689 88.1407C152.513 88.0087 152.275 87.9427 151.974 87.9427C151.681 87.9427 151.454 88.005 151.292 88.1297C151.131 88.247 151.05 88.401 151.05 88.5917C151.05 88.7824 151.16 88.9327 151.38 89.0427C151.608 89.1527 151.905 89.2517 152.271 89.3397C152.638 89.4204 152.975 89.5157 153.283 89.6257C153.599 89.7284 153.852 89.8824 154.042 90.0877C154.233 90.293 154.328 90.5937 154.328 90.9897C154.336 91.4884 154.141 91.9027 153.745 92.2327C153.357 92.5627 152.825 92.7277 152.15 92.7277Z" fill="black"/>
<g clip-path="url(#clip1_4390_5935)">
<rect width="28.4991" height="17.6423" transform="translate(188.976 79.7744)" fill="white"/>
<rect x="189.654" y="80.4326" width="27.142" height="16.2852" rx="8.14261" fill="#3772FF"/>
<g filter="url(#filter2_d_4390_5935)">
<rect x="201.869" y="81.79" width="13.571" height="13.571" rx="6.78551" fill="white"/>
</g>
</g>
</g>
<defs>
<filter id="filter0_d_4390_5935" x="0.382812" y="0.870117" width="273" height="150" filterUnits="userSpaceOnUse" color-interpolation-filters="sRGB">
<feFlood flood-opacity="0" result="BackgroundImageFix"/>
<feColorMatrix in="SourceAlpha" type="matrix" values="0 0 0 0 0 0 0 0 0 0 0 0 0 0 0 0 0 0 127 0" result="hardAlpha"/>
<feMorphology radius="5" operator="dilate" in="SourceAlpha" result="effect1_dropShadow_4390_5935"/>
<feOffset dy="4"/>
<feGaussianBlur stdDeviation="2.5"/>
<feComposite in2="hardAlpha" operator="out"/>
<feColorMatrix type="matrix" values="0 0 0 0 0 0 0 0 0 0 0 0 0 0 0 0 0 0 0.03 0"/>
<feBlend mode="normal" in2="BackgroundImageFix" result="effect1_dropShadow_4390_5935"/>
<feBlend mode="normal" in="SourceGraphic" in2="effect1_dropShadow_4390_5935" result="shape"/>
</filter>
<filter id="filter1_d_4390_5935" x="198.956" y="35.8478" width="18.9992" height="18.9997" filterUnits="userSpaceOnUse" color-interpolation-filters="sRGB">
<feFlood flood-opacity="0" result="BackgroundImageFix"/>
<feColorMatrix in="SourceAlpha" type="matrix" values="0 0 0 0 0 0 0 0 0 0 0 0 0 0 0 0 0 0 127 0" result="hardAlpha"/>
<feOffset dy="2.03565"/>
<feGaussianBlur stdDeviation="1.3571"/>
<feColorMatrix type="matrix" values="0 0 0 0 0.273889 0 0 0 0 0.2771 0 0 0 0 0.283333 0 0 0 0.3 0"/>
<feBlend mode="normal" in2="BackgroundImageFix" result="effect1_dropShadow_4390_5935"/>
<feBlend mode="normal" in="SourceGraphic" in2="effect1_dropShadow_4390_5935" result="shape"/>
</filter>
<filter id="filter2_d_4390_5935" x="199.154" y="81.1115" width="18.9992" height="18.9997" filterUnits="userSpaceOnUse" color-interpolation-filters="sRGB">
<feFlood flood-opacity="0" result="BackgroundImageFix"/>
<feColorMatrix in="SourceAlpha" type="matrix" values="0 0 0 0 0 0 0 0 0 0 0 0 0 0 0 0 0 0 127 0" result="hardAlpha"/>
<feOffset dy="2.03565"/>
<feGaussianBlur stdDeviation="1.3571"/>
<feColorMatrix type="matrix" values="0 0 0 0 0.273889 0 0 0 0 0.2771 0 0 0 0 0.283333 0 0 0 0.3 0"/>
<feBlend mode="normal" in2="BackgroundImageFix" result="effect1_dropShadow_4390_5935"/>
<feBlend mode="normal" in="SourceGraphic" in2="effect1_dropShadow_4390_5935" result="shape"/>
</filter>
<clipPath id="clip0_4390_5935">
<rect width="28.4991" height="17.6423" fill="white" transform="translate(188.777 34.5107)"/>
</clipPath>
<clipPath id="clip1_4390_5935">
<rect width="28.4991" height="17.6423" fill="white" transform="translate(188.976 79.7744)"/>
</clipPath>
</defs>
</svg>
