<svg width="370" height="370" viewBox="0 0 370 370" fill="none" xmlns="http://www.w3.org/2000/svg">
<path d="M366.768 203.424H368.075C368.797 203.424 369.383 204.045 369.383 204.811V295.427C369.383 296.193 368.797 296.814 368.075 296.814H366.768V203.424Z" fill="#303030"/>
<path d="M3.25 316.23L1.94237 316.23C1.2202 316.23 0.634755 315.609 0.634755 314.843L0.63476 260.289C0.63476 259.523 1.2202 258.902 1.94238 258.902L3.25 258.902L3.25 316.23Z" fill="#303030"/>
<path d="M3.25 240.409L1.94237 240.409C1.2202 240.409 0.634755 239.788 0.634755 239.022L0.63476 184.468C0.63476 183.702 1.2202 183.081 1.94238 183.081L3.25 183.081L3.25 240.409Z" fill="#333333"/>
<path d="M3.25 155.342L1.94238 155.342C1.2202 155.342 0.634759 154.721 0.634759 153.955L0.634761 127.14C0.634761 126.374 1.2202 125.753 1.94238 125.753L3.25 125.753L3.25 155.342Z" fill="#333333"/>
<path fill-rule="evenodd" clip-rule="evenodd" d="M6.40488 41.5113C3.63672 50.5607 3.63672 61.7425 3.63672 84.1061V708.894C3.63672 731.258 3.63672 742.439 6.40488 751.489C11.9995 769.778 25.499 784.117 42.7175 790.06C51.237 793 61.7641 793 82.8183 793H287.298C308.352 793 318.879 793 327.399 790.06C344.617 784.117 358.117 769.778 363.711 751.489C366.48 742.439 366.48 731.258 366.48 708.894V84.1061C366.48 61.7425 366.48 50.5607 363.711 41.5113C358.117 23.222 344.617 8.88288 327.399 2.94032C318.879 0 308.352 0 287.298 0H82.8183C61.7641 0 51.237 0 42.7175 2.94032C25.499 8.88288 11.9995 23.222 6.40488 41.5113ZM95.8709 22.644V26.803L95.933 26.801L95.8706 27.2651C95.8706 38.2397 104.246 47.1364 114.578 47.1364H255.539C265.871 47.1364 274.247 38.2397 274.247 27.2651L274.184 26.801L274.246 26.803V22.644C274.246 19.8365 276.389 17.5606 279.032 17.5606L290.24 17.5606C307.76 17.5606 316.521 17.5606 323.507 20.3649C334.489 24.7726 343.158 33.9806 347.308 45.6453C349.948 53.0666 349.948 62.3717 349.948 80.9821V712.018C349.948 730.628 349.948 739.934 347.308 747.355C343.158 759.019 334.489 768.227 323.507 772.635C316.521 775.439 307.76 775.439 290.24 775.439H79.8776C62.3569 775.439 53.5966 775.439 46.6098 772.635C35.6281 768.227 26.9593 759.019 22.8096 747.355C20.1695 739.934 20.1695 730.628 20.1695 712.018V80.9821C20.1695 62.3717 20.1695 53.0666 22.8096 45.6453C26.9593 33.9806 35.6281 24.7726 46.6098 20.3649C53.5966 17.5606 62.3569 17.5606 79.8777 17.5606L91.0852 17.5606C93.7282 17.5606 95.8709 19.8365 95.8709 22.644Z" fill="#333333"/>
<path fill-rule="evenodd" clip-rule="evenodd" d="M287.382 1.92407H81.7669C60.9244 1.92407 50.71 1.93547 42.4681 4.77337C25.7437 10.532 12.6315 24.4272 7.19743 42.1504C4.51947 50.8846 4.50871 61.709 4.50871 83.7962V709.204C4.50871 731.291 4.51947 742.115 7.19743 750.85C12.6315 768.573 25.7437 782.468 42.4681 788.227C50.71 791.065 60.9244 791.076 81.7669 791.076H287.382C308.224 791.076 318.439 791.065 326.681 788.227C343.405 782.468 356.517 768.573 361.951 750.85C364.629 742.115 364.64 731.291 364.64 709.204V83.7963C364.64 61.709 364.629 50.8846 361.951 42.1504C356.517 24.4272 343.405 10.532 326.681 4.77337C318.439 1.93547 308.224 1.92407 287.382 1.92407ZM6.36812 41.8649C3.63672 50.7733 3.63672 61.7809 3.63672 83.7962V709.204C3.63672 731.219 3.63672 742.227 6.36812 751.135C11.8885 769.14 25.2087 783.255 42.1986 789.105C50.605 792 60.9923 792 81.7669 792H287.382C308.156 792 318.544 792 326.95 789.105C343.94 783.255 357.26 769.14 362.781 751.135C365.512 742.227 365.512 731.219 365.512 709.204V83.7963C365.512 61.781 365.512 50.7733 362.781 41.8649C357.26 23.8603 343.94 9.74455 326.95 3.89453C318.544 1 308.156 1 287.382 1H81.7669C60.9923 1 50.605 1 42.1986 3.89453C25.2087 9.74455 11.8885 23.8603 6.36812 41.8649Z" fill="#303030"/>
<path fill-rule="evenodd" clip-rule="evenodd" d="M10.07 43.33C7.50781 51.6858 7.50781 62.0107 7.50781 82.6604V711.34C7.50781 731.989 7.50781 742.314 10.07 750.67C15.2482 767.558 27.7431 780.798 43.6802 786.285C51.5657 789 61.3094 789 80.7968 789H289.321C308.809 789 318.552 789 326.438 786.285C342.375 780.798 354.87 767.558 360.048 750.67C362.61 742.314 362.61 731.989 362.61 711.34V82.6604C362.61 62.0107 362.61 51.6858 360.048 43.33C354.87 26.4423 342.375 13.2021 326.438 7.71498C318.552 5 308.809 5 289.321 5H80.7967C61.3094 5 51.5657 5 43.6802 7.71498C27.7431 13.2021 15.2482 26.4423 10.07 43.33ZM95.6287 23.0283V27.1887L95.691 27.1866L95.6284 27.6509C95.6284 38.6289 104.027 47.5283 114.387 47.5283H255.73C266.09 47.5283 274.488 38.6289 274.488 27.6509L274.426 27.1866L274.488 27.1887V23.0283C274.488 20.22 276.636 17.9434 279.287 17.9434L290.525 17.9434C308.093 17.9434 316.877 17.9434 323.883 20.7485C334.894 25.1576 343.587 34.3684 347.748 46.0367C350.395 53.4603 350.395 62.7684 350.395 81.3845V712.616C350.395 731.232 350.395 740.54 347.748 747.963C343.587 759.632 334.894 768.842 323.883 773.252C316.877 776.057 308.093 776.057 290.525 776.057H79.5921C62.0239 776.057 53.2398 776.057 46.234 773.252C35.2225 768.842 26.5302 759.632 22.3693 747.963C19.722 740.54 19.722 731.232 19.722 712.616V81.3845C19.722 62.7684 19.722 53.4603 22.3693 46.0367C26.5302 34.3684 35.2225 25.1576 46.234 20.7485C53.2398 17.9434 62.0239 17.9434 79.5921 17.9434L90.83 17.9434C93.4803 17.9434 95.6287 20.22 95.6287 23.0283Z" fill="#121515"/>
<rect x="289.074" width="5.80549" height="5" fill="#414141"/>
<rect x="362.609" y="80" width="3.87032" height="5" fill="#414141"/>
<rect x="3.63672" y="80" width="3.87032" height="5" fill="#414141"/>
<path fill-rule="evenodd" clip-rule="evenodd" d="M221.721 36.9858C225.567 36.9858 228.685 33.674 228.685 29.5886C228.685 25.5032 225.567 22.1914 221.721 22.1914C217.875 22.1914 214.758 25.5032 214.758 29.5886C214.758 33.674 217.875 36.9858 221.721 36.9858Z" fill="#262C2D"/>
<path fill-rule="evenodd" clip-rule="evenodd" d="M221.723 34.2114C224.127 34.2114 226.075 32.1415 226.075 29.5881C226.075 27.0347 224.127 24.9648 221.723 24.9648C219.32 24.9648 217.371 27.0347 217.371 29.5881C217.371 32.1415 219.32 34.2114 221.723 34.2114Z" fill="#121515"/>
<path opacity="0.4" fill-rule="evenodd" clip-rule="evenodd" d="M221.724 28.6646C222.205 28.6646 222.595 28.2504 222.595 27.7395C222.595 27.2286 222.205 26.8145 221.724 26.8145C221.243 26.8145 220.854 27.2286 220.854 27.7395C220.854 28.2504 221.243 28.6646 221.724 28.6646Z" fill="#636F73"/>
<path fill-rule="evenodd" clip-rule="evenodd" d="M163.406 29.5884C163.406 28.0564 164.648 26.8145 166.18 26.8145H203.284C204.816 26.8145 206.057 28.0564 206.057 29.5884C206.057 31.1204 204.816 32.3624 203.284 32.3624H166.18C164.648 32.3624 163.406 31.1204 163.406 29.5884Z" fill="#262C2D"/>
</svg>
