<svg width="339" height="104" viewBox="0 0 339 104" fill="none" xmlns="http://www.w3.org/2000/svg">
<rect x="0.382812" width="338.181" height="103.207" rx="19.473" fill="white"/>
<path d="M258.941 46.5776H261.215V57.8408H259.167L253.816 50.0906V57.8408H251.549V46.5776H253.8L258.941 54.0319V46.5776ZM263.229 50.0438C263.229 49.2338 263.418 48.5613 263.797 48.0264C264.181 47.4916 264.698 47.0917 265.347 46.8269C265.996 46.5569 266.718 46.4218 267.513 46.4218C268.354 46.4218 269.102 46.5309 269.756 46.749C270.415 46.9671 270.935 47.2994 271.314 47.746C271.693 48.1926 271.882 48.7586 271.882 49.4441C271.882 49.9997 271.721 50.4904 271.399 50.9162C271.077 51.3368 270.553 51.6718 269.826 51.921C270.241 52.0353 270.626 52.2092 270.979 52.4429C271.332 52.6766 271.615 52.9752 271.828 53.3387C272.041 53.7022 272.147 54.1384 272.147 54.6472C272.147 55.1977 272.025 55.6832 271.781 56.1038C271.537 56.5244 271.199 56.8776 270.768 57.1632C270.337 57.4488 269.839 57.6617 269.273 57.8019C268.707 57.9421 268.102 58.0122 267.458 58.0122C266.554 58.007 265.783 57.859 265.145 57.5682C264.511 57.2722 264.023 56.8516 263.68 56.3063C263.343 55.7611 263.169 55.112 263.158 54.359H265.347C265.456 54.9978 265.705 55.4599 266.095 55.7455C266.484 56.0311 266.947 56.1739 267.481 56.1739C267.949 56.1739 268.349 56.1064 268.681 55.9714C269.018 55.8364 269.276 55.6495 269.452 55.4106C269.634 55.1665 269.725 54.8887 269.725 54.5771C269.725 54.2552 269.631 53.9774 269.444 53.7437C269.263 53.51 269.008 53.3283 268.681 53.1985C268.354 53.0634 267.98 52.9907 267.559 52.9804L266.484 52.9414V51.1343L267.45 51.0798C267.855 51.0642 268.208 50.9889 268.51 50.8539C268.811 50.7189 269.044 50.5397 269.211 50.3165C269.382 50.088 269.468 49.8309 269.468 49.5453C269.468 49.2701 269.382 49.0312 269.211 48.8287C269.039 48.6262 268.803 48.4678 268.502 48.3536C268.201 48.2393 267.855 48.1822 267.466 48.1822C267.108 48.1822 266.778 48.2419 266.477 48.3614C266.175 48.4808 265.929 48.6781 265.737 48.9533C265.544 49.2234 265.433 49.5869 265.402 50.0438H263.229ZM278.575 46.5776H280.811V53.4399H282.548V55.3483H280.811V57.8408H278.622L278.63 55.3483H273.442V53.4789L278.575 46.5776ZM275.545 53.4399H278.63V49.3116L275.545 53.4399ZM283.728 60.0218L284.631 57.9031L283.837 57.833V55.6287H286.135V57.5682L284.569 60.0218H283.728ZM292.348 46.4218C293.688 46.4218 294.745 46.923 295.518 47.9252C296.292 48.9222 296.679 50.358 296.679 52.2326C296.679 54.0968 296.297 55.5274 295.534 56.5244C294.771 57.5163 293.709 58.0122 292.348 58.0122C290.982 58.0122 289.915 57.5163 289.147 56.5244C288.383 55.5326 288.002 54.1046 288.002 52.2404C288.002 50.9941 288.178 49.9374 288.531 49.0702C288.884 48.203 289.386 47.5461 290.035 47.0995C290.684 46.6477 291.455 46.4218 292.348 46.4218ZM292.348 56.1506C293.018 56.1506 293.509 55.852 293.82 55.2548C294.132 54.6524 294.288 53.6476 294.288 52.2404C294.288 50.802 294.129 49.7712 293.812 49.1481C293.496 48.5249 293.005 48.2134 292.34 48.2134C291.676 48.2134 291.18 48.5275 290.853 49.1559C290.531 49.7842 290.37 50.8124 290.37 52.2404C290.37 53.6424 290.531 54.6447 290.853 55.247C291.175 55.8494 291.673 56.1506 292.348 56.1506ZM302.343 46.4218C303.683 46.4218 304.74 46.923 305.513 47.9252C306.287 48.9222 306.674 50.358 306.674 52.2326C306.674 54.0968 306.292 55.5274 305.529 56.5244C304.766 57.5163 303.704 58.0122 302.343 58.0122C300.977 58.0122 299.91 57.5163 299.142 56.5244C298.378 55.5326 297.997 54.1046 297.997 52.2404C297.997 50.9941 298.173 49.9374 298.526 49.0702C298.88 48.203 299.381 47.5461 300.03 47.0995C300.679 46.6477 301.45 46.4218 302.343 46.4218ZM302.343 56.1506C303.013 56.1506 303.504 55.852 303.815 55.2548C304.127 54.6524 304.283 53.6476 304.283 52.2404C304.283 50.802 304.124 49.7712 303.808 49.1481C303.491 48.5249 303 48.2134 302.335 48.2134C301.671 48.2134 301.175 48.5275 300.848 49.1559C300.526 49.7842 300.365 50.8124 300.365 52.2404C300.365 53.6424 300.526 54.6447 300.848 55.247C301.17 55.8494 301.668 56.1506 302.343 56.1506ZM312.338 46.4218C313.678 46.4218 314.735 46.923 315.509 47.9252C316.282 48.9222 316.669 50.358 316.669 52.2326C316.669 54.0968 316.287 55.5274 315.524 56.5244C314.761 57.5163 313.699 58.0122 312.338 58.0122C310.973 58.0122 309.906 57.5163 309.137 56.5244C308.374 55.5326 307.992 54.1046 307.992 52.2404C307.992 50.9941 308.169 49.9374 308.522 49.0702C308.875 48.203 309.376 47.5461 310.025 47.0995C310.674 46.6477 311.445 46.4218 312.338 46.4218ZM312.338 56.1506C313.008 56.1506 313.499 55.852 313.81 55.2548C314.122 54.6524 314.278 53.6476 314.278 52.2404C314.278 50.802 314.119 49.7712 313.803 49.1481C313.486 48.5249 312.995 48.2134 312.331 48.2134C311.666 48.2134 311.17 48.5275 310.843 49.1559C310.521 49.7842 310.36 50.8124 310.36 52.2404C310.36 53.6424 310.521 54.6447 310.843 55.247C311.165 55.8494 311.663 56.1506 312.338 56.1506Z" fill="#171721"/>
<path d="M250.287 53.0115H262.469V54.102H250.287V53.0115Z" fill="#171721"/>
<circle cx="43.8733" cy="52.3333" r="13.6311" fill="#1ED760"/>
<path d="M50.0689 57.8079C49.836 58.1774 49.3392 58.2809 48.951 58.0592C45.8925 56.2855 42.0577 55.8864 37.5243 56.8619C37.0895 56.9506 36.6548 56.6993 36.5617 56.2855C36.4685 55.8716 36.7325 55.4578 37.1672 55.3691C42.1198 54.2901 46.3738 54.7483 49.7894 56.7437C50.1776 56.9654 50.3018 57.4384 50.0689 57.8079ZM51.6525 54.4379C51.3575 54.8961 50.7365 55.0291 50.2552 54.7631C46.7619 52.7085 41.4367 52.1173 37.3069 53.3145C36.7635 53.4623 36.2046 53.1815 36.0493 52.679C35.8941 52.1616 36.1891 51.6295 36.7325 51.4817C41.4522 50.1219 47.3209 50.7722 51.342 53.1224C51.7922 53.3884 51.9475 53.9797 51.6525 54.4379ZM51.7922 50.92C47.6003 48.5551 40.6915 48.3334 36.6859 49.4863C36.0493 49.6784 35.3662 49.3385 35.1644 48.7177C34.9625 48.1117 35.3352 47.4613 35.9717 47.2692C40.5673 45.9389 48.2058 46.205 53.0187 48.9246C53.5932 49.2498 53.7795 49.9593 53.4379 50.5062C53.1119 51.0678 52.3666 51.26 51.7922 50.92Z" fill="white"/>
<circle cx="43.8728" cy="52.3333" r="22.394" stroke="#F1F5FF" stroke-width="0.6491"/>
<path d="M83.3538 49.8098C82.2876 49.8098 81.3459 49.6298 80.5289 49.2697C79.7119 48.8959 79.068 48.3697 78.5972 47.6911C78.1264 46.9988 77.8841 46.161 77.8702 45.1778H80.6743C80.702 45.8563 80.9444 46.431 81.4013 46.9018C81.8721 47.3588 82.516 47.5873 83.333 47.5873C84.0393 47.5873 84.6001 47.4211 85.0155 47.0888C85.4309 46.7426 85.6386 46.2856 85.6386 45.7179C85.6386 45.1224 85.4517 44.6585 85.0778 44.3262C84.7178 43.9939 84.2331 43.7238 83.6238 43.5161C83.0145 43.3084 82.3637 43.0869 81.6713 42.8514C80.5497 42.4637 79.6912 41.9652 79.0957 41.3559C78.5141 40.7466 78.2233 39.9366 78.2233 38.9257C78.2095 38.0671 78.4103 37.3332 78.8257 36.7239C79.255 36.1008 79.8366 35.6231 80.5705 35.2907C81.3044 34.9445 82.1491 34.7714 83.1046 34.7714C84.0739 34.7714 84.9255 34.9445 85.6594 35.2907C86.4072 35.6369 86.9888 36.1216 87.4042 36.7447C87.8335 37.3678 88.062 38.1087 88.0896 38.9672H85.244C85.2301 38.4549 85.0294 38.0048 84.6416 37.6171C84.2677 37.2155 83.7415 37.0147 83.063 37.0147C82.4814 37.0009 81.9898 37.1463 81.5883 37.4509C81.2005 37.7417 81.0067 38.171 81.0067 38.7387C81.0067 39.2234 81.159 39.6111 81.4636 39.9019C81.7683 40.1789 82.1837 40.4143 82.7099 40.6082C83.2361 40.802 83.8385 41.0097 84.517 41.2313C85.2371 41.4805 85.8948 41.7713 86.4903 42.1037C87.0857 42.436 87.5634 42.8791 87.9235 43.433C88.2835 43.9731 88.4635 44.6724 88.4635 45.5309C88.4635 46.2925 88.2697 46.9988 87.8819 47.6496C87.4942 48.3004 86.9195 48.8266 86.1579 49.2282C85.3963 49.6159 84.4616 49.8098 83.3538 49.8098ZM90.7209 54.1302V39.258H93.0889L93.3797 40.7328C93.712 40.2758 94.1482 39.8742 94.6882 39.5281C95.2421 39.1819 95.9553 39.0088 96.8277 39.0088C97.797 39.0088 98.6625 39.2442 99.4241 39.715C100.186 40.1858 100.788 40.8297 101.231 41.6467C101.674 42.4637 101.896 43.3915 101.896 44.4301C101.896 45.4686 101.674 46.3964 101.231 47.2134C100.788 48.0166 100.186 48.6535 99.4241 49.1244C98.6625 49.5813 97.797 49.8098 96.8277 49.8098C96.0522 49.8098 95.3737 49.6644 94.7921 49.3736C94.2105 49.0828 93.7397 48.6743 93.3797 48.1481V54.1302H90.7209ZM96.2668 47.4834C97.1115 47.4834 97.8108 47.1996 98.3647 46.6318C98.9186 46.0641 99.1956 45.3301 99.1956 44.4301C99.1956 43.53 98.9186 42.7891 98.3647 42.2075C97.8108 41.6259 97.1115 41.3351 96.2668 41.3351C95.4083 41.3351 94.7021 41.6259 94.1482 42.2075C93.6081 42.7753 93.3381 43.5092 93.3381 44.4093C93.3381 45.3094 93.6081 46.0502 94.1482 46.6318C94.7021 47.1996 95.4083 47.4834 96.2668 47.4834ZM109.214 49.8098C108.217 49.8098 107.317 49.5813 106.514 49.1244C105.725 48.6674 105.095 48.0373 104.624 47.2342C104.167 46.4172 103.939 45.4755 103.939 44.4093C103.939 43.343 104.174 42.4083 104.645 41.6052C105.116 40.7882 105.746 40.1512 106.535 39.6942C107.338 39.2373 108.238 39.0088 109.235 39.0088C110.218 39.0088 111.105 39.2373 111.894 39.6942C112.697 40.1512 113.327 40.7882 113.784 41.6052C114.255 42.4083 114.49 43.343 114.49 44.4093C114.49 45.4755 114.255 46.4172 113.784 47.2342C113.327 48.0373 112.697 48.6674 111.894 49.1244C111.091 49.5813 110.198 49.8098 109.214 49.8098ZM109.214 47.5042C109.907 47.5042 110.509 47.248 111.022 46.7357C111.534 46.2095 111.79 45.434 111.79 44.4093C111.79 43.3846 111.534 42.616 111.022 42.1037C110.509 41.5775 109.914 41.3144 109.235 41.3144C108.529 41.3144 107.92 41.5775 107.407 42.1037C106.909 42.616 106.66 43.3846 106.66 44.4093C106.66 45.434 106.909 46.2095 107.407 46.7357C107.92 47.248 108.522 47.5042 109.214 47.5042ZM121.052 49.5605C119.972 49.5605 119.107 49.2974 118.456 48.7712C117.805 48.245 117.48 47.3103 117.48 45.9671V41.4805H115.714V39.258H117.48L117.791 36.4955H120.138V39.258H122.922V41.4805H120.138V45.9879C120.138 46.4864 120.242 46.8326 120.45 47.0265C120.671 47.2065 121.045 47.2965 121.572 47.2965H122.859V49.5605H121.052ZM126.638 37.6586C126.153 37.6586 125.751 37.5132 125.433 37.2224C125.128 36.9317 124.976 36.5647 124.976 36.1216C124.976 35.6785 125.128 35.3184 125.433 35.0415C125.751 34.7507 126.153 34.6053 126.638 34.6053C127.122 34.6053 127.517 34.7507 127.822 35.0415C128.14 35.3184 128.299 35.6785 128.299 36.1216C128.299 36.5647 128.14 36.9317 127.822 37.2224C127.517 37.5132 127.122 37.6586 126.638 37.6586ZM125.308 49.5605V39.258H127.967V49.5605H125.308ZM131.22 49.5605V41.4805H129.807V39.258H131.22V38.0533C131.22 36.807 131.531 35.9208 132.154 35.3946C132.791 34.8684 133.65 34.6053 134.73 34.6053H135.873V36.8693H135.146C134.689 36.8693 134.363 36.9593 134.169 37.1394C133.975 37.3194 133.878 37.624 133.878 38.0533V39.258H136.101V41.4805H133.878V49.5605H131.22ZM139.494 54.1302L141.883 48.8751H141.26L137.251 39.258H140.138L143.026 46.5072L146.037 39.258H148.862L142.319 54.1302H139.494Z" fill="#121212"/>
<path d="M77.2426 64.4986H78.29L80.3848 68.0244H80.4733L82.5682 64.4986H83.6156L80.8864 68.939V72.0518H79.9718V68.939L77.2426 64.4986ZM86.2544 72.1698C85.7086 72.1698 85.2377 72.0493 84.8419 71.8083C84.4485 71.5649 84.1448 71.2256 83.9309 70.7904C83.7195 70.3528 83.6137 69.8438 83.6137 69.2636C83.6137 68.6833 83.7195 68.1719 83.9309 67.7293C84.1448 67.2843 84.4423 66.9376 84.8234 66.6893C85.207 66.4385 85.6545 66.3131 86.1659 66.3131C86.4609 66.3131 86.7523 66.3623 87.0399 66.4606C87.3276 66.559 87.5895 66.7188 87.8255 66.9401C88.0615 67.1589 88.2496 67.449 88.3898 67.8105C88.5299 68.1719 88.6 68.6169 88.6 69.1456V69.5144H84.2333V68.762H87.7149C87.7149 68.4424 87.6509 68.1572 87.5231 67.9064C87.3977 67.6556 87.2182 67.4577 86.9846 67.3126C86.7535 67.1675 86.4806 67.095 86.1659 67.095C85.8192 67.095 85.5192 67.181 85.266 67.3532C85.0152 67.5228 84.8222 67.7441 84.687 68.017C84.5517 68.2899 84.4841 68.5825 84.4841 68.8948V69.3963C84.4841 69.8242 84.5579 70.1868 84.7054 70.4843C84.8554 70.7794 85.0631 71.0043 85.3287 71.1592C85.5942 71.3117 85.9028 71.3879 86.2544 71.3879C86.4831 71.3879 86.6896 71.3559 86.874 71.292C87.0608 71.2256 87.2219 71.1273 87.3571 70.997C87.4924 70.8642 87.5968 70.6995 87.6706 70.5028L88.5115 70.7388C88.423 71.024 88.2742 71.2748 88.0652 71.4912C87.8562 71.7051 87.5981 71.8723 87.2907 71.9927C86.9834 72.1108 86.6379 72.1698 86.2544 72.1698ZM93.9366 67.6556L93.1548 67.8769C93.1056 67.7466 93.0331 67.6199 92.9372 67.497C92.8437 67.3716 92.7159 67.2683 92.5536 67.1872C92.3913 67.1061 92.1836 67.0655 91.9303 67.0655C91.5837 67.0655 91.2948 67.1454 91.0636 67.3052C90.835 67.4626 90.7206 67.663 90.7206 67.9064C90.7206 68.1227 90.7993 68.2936 90.9567 68.419C91.114 68.5444 91.3599 68.6489 91.6943 68.7325L92.5352 68.939C93.0417 69.062 93.4191 69.2501 93.6674 69.5033C93.9157 69.7541 94.0399 70.0774 94.0399 70.4733C94.0399 70.7978 93.9465 71.0879 93.7596 71.3436C93.5752 71.5994 93.317 71.801 92.9851 71.9485C92.6532 72.096 92.2672 72.1698 91.8271 72.1698C91.2493 72.1698 90.771 72.0444 90.3924 71.7936C90.0138 71.5428 89.774 71.1765 89.6732 70.6945L90.4994 70.488C90.578 70.7929 90.7268 71.0216 90.9456 71.174C91.1669 71.3264 91.4558 71.4027 91.8123 71.4027C92.218 71.4027 92.5401 71.3166 92.7786 71.1445C93.0195 70.9699 93.14 70.7609 93.14 70.5175C93.14 70.3208 93.0712 70.1561 92.9335 70.0233C92.7958 69.8881 92.5843 69.7873 92.2991 69.7209L91.355 69.4996C90.8362 69.3767 90.4551 69.1861 90.2117 68.928C89.9707 68.6673 89.8503 68.3416 89.8503 67.9506C89.8503 67.631 89.94 67.3482 90.1195 67.1024C90.3014 66.8565 90.5485 66.6635 90.8608 66.5233C91.1755 66.3832 91.532 66.3131 91.9303 66.3131C92.4909 66.3131 92.931 66.4361 93.2507 66.6819C93.5727 66.9278 93.8014 67.2523 93.9366 67.6556ZM97.8137 66.3869V67.1245H94.878V66.3869H97.8137ZM95.7337 65.0297H96.604V70.429C96.604 70.6749 96.6397 70.8593 96.711 70.9822C96.7848 71.1027 96.8782 71.1838 96.9913 71.2256C97.1068 71.265 97.2285 71.2846 97.3564 71.2846C97.4523 71.2846 97.531 71.2797 97.5924 71.2699C97.6539 71.2576 97.7031 71.2478 97.74 71.2404L97.917 72.0223C97.858 72.0444 97.7756 72.0665 97.6699 72.0886C97.5642 72.1132 97.4302 72.1255 97.2679 72.1255C97.022 72.1255 96.7811 72.0727 96.545 71.9669C96.3114 71.8612 96.1172 71.7002 95.9623 71.4838C95.8099 71.2674 95.7337 70.9945 95.7337 70.665V65.0297ZM101.437 72.1698C100.891 72.1698 100.421 72.0493 100.025 71.8083C99.6313 71.5649 99.3277 71.2256 99.1138 70.7904C98.9023 70.3528 98.7966 69.8438 98.7966 69.2636C98.7966 68.6833 98.9023 68.1719 99.1138 67.7293C99.3277 67.2843 99.6252 66.9376 100.006 66.6893C100.39 66.4385 100.837 66.3131 101.349 66.3131C101.644 66.3131 101.935 66.3623 102.223 66.4606C102.51 66.559 102.772 66.7188 103.008 66.9401C103.244 67.1589 103.432 67.449 103.573 67.8105C103.713 68.1719 103.783 68.6169 103.783 69.1456V69.5144H99.4162V68.762H102.898C102.898 68.4424 102.834 68.1572 102.706 67.9064C102.581 67.6556 102.401 67.4577 102.167 67.3126C101.936 67.1675 101.663 67.095 101.349 67.095C101.002 67.095 100.702 67.181 100.449 67.3532C100.198 67.5228 100.005 67.7441 99.8698 68.017C99.7346 68.2899 99.667 68.5825 99.667 68.8948V69.3963C99.667 69.8242 99.7407 70.1868 99.8883 70.4843C100.038 70.7794 100.246 71.0043 100.512 71.1592C100.777 71.3117 101.086 71.3879 101.437 71.3879C101.666 71.3879 101.872 71.3559 102.057 71.292C102.244 71.2256 102.405 71.1273 102.54 70.997C102.675 70.8642 102.78 70.6995 102.853 70.5028L103.694 70.7388C103.606 71.024 103.457 71.2748 103.248 71.4912C103.039 71.7051 102.781 71.8723 102.474 71.9927C102.166 72.1108 101.821 72.1698 101.437 72.1698ZM105.107 72.0518V66.3869H105.948V67.2425H106.007C106.11 66.9622 106.297 66.7348 106.567 66.5602C106.838 66.3857 107.143 66.2984 107.482 66.2984C107.546 66.2984 107.626 66.2996 107.722 66.3021C107.818 66.3045 107.89 66.3082 107.939 66.3131V67.1983C107.91 67.1909 107.842 67.1798 107.736 67.1651C107.633 67.1479 107.524 67.1392 107.408 67.1392C107.133 67.1392 106.887 67.197 106.671 67.3126C106.457 67.4257 106.287 67.583 106.162 67.7847C106.039 67.9838 105.977 68.2112 105.977 68.467V72.0518H105.107ZM110.938 72.1698C110.466 72.1698 110.049 72.0505 109.687 71.812C109.326 71.5711 109.043 71.2318 108.839 70.7941C108.635 70.354 108.533 69.834 108.533 69.2341C108.533 68.6391 108.635 68.1227 108.839 67.6851C109.043 67.2474 109.327 66.9094 109.691 66.6709C110.055 66.4324 110.475 66.3131 110.952 66.3131C111.321 66.3131 111.613 66.3746 111.827 66.4975C112.043 66.618 112.208 66.7557 112.321 66.9106C112.436 67.063 112.526 67.1884 112.59 67.2868H112.664V64.4986H113.534V72.0518H112.693V71.1814H112.59C112.526 71.2846 112.435 71.415 112.317 71.5723C112.199 71.7272 112.031 71.8661 111.812 71.9891C111.593 72.1095 111.302 72.1698 110.938 72.1698ZM111.056 71.3879C111.405 71.3879 111.7 71.2969 111.941 71.115C112.182 70.9306 112.365 70.6761 112.49 70.3516C112.616 70.0245 112.678 69.6471 112.678 69.2193C112.678 68.7964 112.617 68.4264 112.494 68.1092C112.371 67.7896 112.189 67.5412 111.948 67.3642C111.707 67.1847 111.41 67.095 111.056 67.095C110.687 67.095 110.38 67.1897 110.134 67.379C109.89 67.5658 109.707 67.8203 109.584 68.1424C109.464 68.462 109.403 68.821 109.403 69.2193C109.403 69.6225 109.465 69.9889 109.588 70.3184C109.713 70.6454 109.898 70.906 110.141 71.1002C110.387 71.292 110.692 71.3879 111.056 71.3879ZM116.916 72.1845C116.557 72.1845 116.231 72.1169 115.939 71.9817C115.646 71.844 115.414 71.6461 115.242 71.3879C115.07 71.1273 114.984 70.8126 114.984 70.4438C114.984 70.1192 115.047 69.8561 115.175 69.6545C115.303 69.4504 115.474 69.2906 115.688 69.1751C115.902 69.0595 116.138 68.9734 116.396 68.9169C116.657 68.8579 116.919 68.8112 117.182 68.7768C117.526 68.7325 117.805 68.6993 118.019 68.6772C118.235 68.6526 118.393 68.612 118.491 68.5555C118.592 68.4989 118.642 68.4006 118.642 68.2604V68.2309C118.642 67.867 118.543 67.5843 118.343 67.3827C118.147 67.181 117.848 67.0802 117.447 67.0802C117.032 67.0802 116.706 67.1712 116.47 67.3532C116.234 67.5351 116.068 67.7293 115.972 67.9359L115.146 67.6408C115.293 67.2966 115.49 67.0286 115.736 66.8368C115.984 66.6426 116.255 66.5074 116.547 66.4311C116.842 66.3525 117.132 66.3131 117.418 66.3131C117.6 66.3131 117.809 66.3352 118.045 66.3795C118.283 66.4213 118.513 66.5086 118.734 66.6414C118.958 66.7741 119.144 66.9745 119.291 67.2425C119.439 67.5105 119.512 67.8695 119.512 68.3194V72.0518H118.642V71.2846H118.598C118.539 71.4076 118.44 71.5391 118.303 71.6793C118.165 71.8194 117.982 71.9387 117.753 72.037C117.525 72.1354 117.246 72.1845 116.916 72.1845ZM117.049 71.4027C117.393 71.4027 117.683 71.335 117.919 71.1998C118.158 71.0646 118.337 70.89 118.458 70.6761C118.581 70.4622 118.642 70.2372 118.642 70.0012V69.2046C118.605 69.2488 118.524 69.2894 118.399 69.3263C118.276 69.3607 118.133 69.3914 117.971 69.4185C117.811 69.4431 117.655 69.4652 117.502 69.4849C117.352 69.5021 117.231 69.5168 117.137 69.5291C116.911 69.5586 116.7 69.6066 116.503 69.673C116.309 69.7369 116.151 69.834 116.031 69.9643C115.913 70.0922 115.854 70.2667 115.854 70.488C115.854 70.7904 115.966 71.0191 116.19 71.174C116.416 71.3264 116.702 71.4027 117.049 71.4027ZM121.459 74.1761C121.311 74.1761 121.18 74.1638 121.064 74.1392C120.949 74.1171 120.869 74.0949 120.825 74.0728L121.046 73.3057C121.257 73.3598 121.444 73.3795 121.606 73.3647C121.769 73.35 121.912 73.2774 122.038 73.1471C122.166 73.0193 122.283 72.8115 122.388 72.5238L122.551 72.0813L120.456 66.3869H121.4L122.964 70.9011H123.023L124.586 66.3869H125.53L123.126 72.8779C123.018 73.1705 122.884 73.4127 122.724 73.6044C122.564 73.7987 122.378 73.9425 122.167 74.0359C121.958 74.1294 121.722 74.1761 121.459 74.1761ZM127.623 71.0191L127.564 71.4174C127.522 71.6977 127.458 71.9977 127.372 72.3173C127.288 72.6369 127.201 72.9381 127.11 73.2209C127.019 73.5036 126.944 73.7286 126.885 73.8958H126.221C126.253 73.7384 126.295 73.5307 126.346 73.2725C126.398 73.0143 126.45 72.7254 126.501 72.4058C126.555 72.0886 126.6 71.7641 126.634 71.4322L126.678 71.0191H127.623ZM134.502 72.155C134.069 72.155 133.679 72.069 133.333 71.8969C132.986 71.7247 132.708 71.4887 132.499 71.1887C132.29 70.8888 132.176 70.547 132.156 70.1635H133.041C133.076 70.5052 133.231 70.788 133.506 71.0117C133.784 71.233 134.116 71.3436 134.502 71.3436C134.812 71.3436 135.087 71.2711 135.328 71.1261C135.571 70.981 135.762 70.7818 135.899 70.5286C136.04 70.2729 136.11 69.984 136.11 69.6619C136.11 69.3324 136.037 69.0386 135.892 68.7804C135.75 68.5198 135.553 68.3145 135.302 68.1645C135.051 68.0146 134.765 67.9383 134.443 67.9359C134.212 67.9334 133.974 67.9691 133.731 68.0428C133.487 68.1141 133.287 68.2063 133.13 68.3194L132.274 68.2162L132.731 64.4986H136.656V65.31H133.499L133.233 67.5376H133.277C133.432 67.4146 133.626 67.3126 133.86 67.2315C134.094 67.1503 134.337 67.1097 134.59 67.1097C135.052 67.1097 135.464 67.2204 135.826 67.4417C136.19 67.6605 136.475 67.9605 136.681 68.3416C136.89 68.7227 136.995 69.1579 136.995 69.6471C136.995 70.129 136.887 70.5593 136.67 70.938C136.456 71.3141 136.161 71.6116 135.785 71.8305C135.409 72.0468 134.981 72.155 134.502 72.155ZM139.109 71.0855C138.927 71.0855 138.771 71.0203 138.641 70.89C138.51 70.7597 138.445 70.6036 138.445 70.4216C138.445 70.2397 138.51 70.0836 138.641 69.9532C138.771 69.8229 138.927 69.7578 139.109 69.7578C139.291 69.7578 139.447 69.8229 139.577 69.9532C139.708 70.0836 139.773 70.2397 139.773 70.4216C139.773 70.5421 139.742 70.6528 139.681 70.7536C139.622 70.8544 139.542 70.9355 139.441 70.997C139.343 71.056 139.232 71.0855 139.109 71.0855ZM139.109 67.2646C138.927 67.2646 138.771 67.1995 138.641 67.0692C138.51 66.9389 138.445 66.7827 138.445 66.6008C138.445 66.4188 138.51 66.2627 138.641 66.1324C138.771 66.0021 138.927 65.9369 139.109 65.9369C139.291 65.9369 139.447 66.0021 139.577 66.1324C139.708 66.2627 139.773 66.4188 139.773 66.6008C139.773 66.7213 139.742 66.8319 139.681 66.9327C139.622 67.0335 139.542 67.1147 139.441 67.1761C139.343 67.2351 139.232 67.2646 139.109 67.2646ZM143.872 72.155C143.385 72.155 142.951 72.0714 142.57 71.9042C142.192 71.737 141.89 71.5047 141.667 71.2072C141.445 70.9072 141.325 70.5593 141.305 70.1635H142.235C142.254 70.4069 142.338 70.6171 142.485 70.7941C142.633 70.9687 142.826 71.1039 143.064 71.1998C143.303 71.2957 143.567 71.3436 143.857 71.3436C144.182 71.3436 144.47 71.2871 144.72 71.174C144.971 71.0609 145.168 70.9035 145.311 70.7019C145.453 70.5003 145.524 70.2667 145.524 70.0012C145.524 69.7234 145.456 69.4787 145.318 69.2673C145.18 69.0534 144.979 68.8862 144.713 68.7657C144.448 68.6452 144.123 68.585 143.739 68.585H143.135V67.7736H143.739C144.039 67.7736 144.302 67.7195 144.529 67.6113C144.757 67.5031 144.936 67.3507 145.063 67.154C145.194 66.9573 145.259 66.7262 145.259 66.4606C145.259 66.2049 145.202 65.9824 145.089 65.7931C144.976 65.6038 144.816 65.4563 144.61 65.3505C144.406 65.2448 144.165 65.1919 143.887 65.1919C143.626 65.1919 143.38 65.2399 143.149 65.3358C142.921 65.4292 142.734 65.5657 142.589 65.7452C142.444 65.9222 142.365 66.1361 142.353 66.3869H141.468C141.482 65.991 141.602 65.6444 141.825 65.3468C142.049 65.0469 142.342 64.8133 142.703 64.6461C143.067 64.4789 143.466 64.3953 143.902 64.3953C144.369 64.3953 144.77 64.49 145.104 64.6793C145.438 64.8662 145.695 65.1133 145.875 65.4206C146.054 65.7279 146.144 66.0599 146.144 66.4164C146.144 66.8417 146.032 67.2044 145.808 67.5044C145.587 67.8043 145.286 68.0121 144.905 68.1277V68.1867C145.382 68.2653 145.754 68.4682 146.022 68.7952C146.29 69.1197 146.424 69.5217 146.424 70.0012C146.424 70.4118 146.312 70.7806 146.089 71.1076C145.867 71.4322 145.565 71.6879 145.181 71.8747C144.798 72.0616 144.361 72.155 143.872 72.155ZM150.396 72.155C149.841 72.155 149.367 72.0038 148.976 71.7014C148.586 71.3965 148.287 70.9552 148.08 70.3774C147.874 69.7971 147.77 69.0964 147.77 68.2752C147.77 67.4589 147.874 66.7618 148.08 66.184C148.289 65.6038 148.589 65.1612 148.98 64.8563C149.374 64.549 149.846 64.3953 150.396 64.3953C150.947 64.3953 151.418 64.549 151.809 64.8563C152.202 65.1612 152.502 65.6038 152.709 66.184C152.918 66.7618 153.022 67.4589 153.022 68.2752C153.022 69.0964 152.919 69.7971 152.712 70.3774C152.506 70.9552 152.207 71.3965 151.816 71.7014C151.425 72.0038 150.952 72.155 150.396 72.155ZM150.396 71.3436C150.947 71.3436 151.375 71.0781 151.68 70.547C151.985 70.0159 152.137 69.2587 152.137 68.2752C152.137 67.6212 152.067 67.0643 151.927 66.6045C151.789 66.1447 151.59 65.7943 151.329 65.5534C151.071 65.3124 150.76 65.1919 150.396 65.1919C149.851 65.1919 149.424 65.4612 149.117 65.9996C148.809 66.5356 148.656 67.2941 148.656 68.2752C148.656 68.9292 148.724 69.4849 148.862 69.9422C149 70.3995 149.198 70.7474 149.456 70.9859C149.717 71.2244 150.03 71.3436 150.396 71.3436ZM157.477 72.0518V64.4986H160.03C160.622 64.4986 161.107 64.6055 161.483 64.8195C161.861 65.0309 162.142 65.3173 162.324 65.6788C162.506 66.0402 162.597 66.4434 162.597 66.8885C162.597 67.3335 162.506 67.7379 162.324 68.1018C162.144 68.4657 161.866 68.7559 161.49 68.9722C161.114 69.1861 160.632 69.2931 160.044 69.2931H158.215V68.4817H160.015C160.421 68.4817 160.746 68.4116 160.992 68.2715C161.238 68.1313 161.416 67.942 161.527 67.7035C161.64 67.4626 161.697 67.1909 161.697 66.8885C161.697 66.586 161.64 66.3156 161.527 66.0771C161.416 65.8386 161.237 65.6517 160.989 65.5165C160.74 65.3788 160.411 65.31 160 65.31H158.392V72.0518H157.477ZM164.07 64.4986H165.162L167.728 70.7683H167.817L170.384 64.4986H171.476V72.0518H170.62V66.3131H170.546L168.186 72.0518H167.36L164.999 66.3131H164.926V72.0518H164.07V64.4986Z" fill="#777777"/>
</svg>
