<svg width="339" height="104" viewBox="0 0 339 104" fill="none" xmlns="http://www.w3.org/2000/svg">
<rect x="0.382812" width="338.181" height="103.207" rx="12" fill="white"/>
<g style="mix-blend-mode:multiply">
<rect x="278.383" y="36" width="32" height="32" rx="6.4" fill="#45B36B"/>
<path d="M283.239 56.3272C283.01 56.562 283.015 56.9376 283.25 57.1662C283.485 57.3948 283.861 57.3898 284.089 57.155L283.239 56.3272ZM305.101 47.2593L298.508 49.1205L303.417 53.8997L305.101 47.2593ZM297.003 55.5769L296.578 55.163L297.003 55.5769ZM284.089 57.155L289.058 52.0516L288.208 51.2238L283.239 56.3272L284.089 57.155ZM290.475 52.0516L294.311 55.9908L295.161 55.163L291.325 51.2238L290.475 52.0516ZM297.428 55.9908L301.801 51.4989L300.951 50.6711L296.578 55.163L297.428 55.9908ZM294.311 55.9908C295.165 56.8679 296.574 56.8679 297.428 55.9908L296.578 55.163C296.189 55.5617 295.549 55.5617 295.161 55.163L294.311 55.9908ZM289.058 52.0516C289.446 51.6529 290.087 51.6529 290.475 52.0516L291.325 51.2238C290.471 50.3467 289.062 50.3467 288.208 51.2238L289.058 52.0516Z" fill="white"/>
</g>
<path d="M21.7813 25.3438V24.3295H28.8624V25.3438H25.8935V33.771H24.7502V25.3438H21.7813ZM32.3291 33.9185C31.6899 33.9185 31.129 33.7664 30.6465 33.4621C30.167 33.1579 29.7921 32.7322 29.5216 32.1851C29.2542 31.6381 29.1205 30.9988 29.1205 30.2673C29.1205 29.5297 29.2542 28.8858 29.5216 28.3357C29.7921 27.7856 30.167 27.3584 30.6465 27.0541C31.129 26.7498 31.6899 26.5977 32.3291 26.5977C32.9684 26.5977 33.5278 26.7498 34.0072 27.0541C34.4897 27.3584 34.8647 27.7856 35.1321 28.3357C35.4025 28.8858 35.5378 29.5297 35.5378 30.2673C35.5378 30.9988 35.4025 31.6381 35.1321 32.1851C34.8647 32.7322 34.4897 33.1579 34.0072 33.4621C33.5278 33.7664 32.9684 33.9185 32.3291 33.9185ZM32.3291 32.9412C32.8147 32.9412 33.2143 32.8167 33.5278 32.5678C33.8413 32.3188 34.0733 31.9915 34.2239 31.5858C34.3745 31.1801 34.4498 30.7406 34.4498 30.2673C34.4498 29.794 34.3745 29.353 34.2239 28.9442C34.0733 28.5355 33.8413 28.2051 33.5278 27.9531C33.2143 27.701 32.8147 27.575 32.3291 27.575C31.8436 27.575 31.444 27.701 31.1305 27.9531C30.817 28.2051 30.585 28.5355 30.4344 28.9442C30.2838 29.353 30.2085 29.794 30.2085 30.2673C30.2085 30.7406 30.2838 31.1801 30.4344 31.5858C30.585 31.9915 30.817 32.3188 31.1305 32.5678C31.444 32.8167 31.8436 32.9412 32.3291 32.9412ZM40.2781 26.6899V27.6119H36.6085V26.6899H40.2781ZM37.678 24.9934H38.766V31.7426C38.766 32.0499 38.8105 32.2804 38.8997 32.4341C38.9919 32.5847 39.1087 32.6861 39.25 32.7383C39.3945 32.7875 39.5466 32.8121 39.7064 32.8121C39.8263 32.8121 39.9247 32.806 40.0015 32.7937C40.0783 32.7783 40.1398 32.766 40.1859 32.7568L40.4072 33.7341C40.3334 33.7618 40.2305 33.7894 40.0983 33.8171C39.9661 33.8478 39.7986 33.8632 39.5958 33.8632C39.2885 33.8632 38.9873 33.7971 38.6922 33.665C38.4002 33.5328 38.1575 33.3315 37.9638 33.061C37.7733 32.7906 37.678 32.4494 37.678 32.0376V24.9934ZM43.9984 33.937C43.5497 33.937 43.1425 33.8524 42.7768 33.6834C42.411 33.5113 42.1206 33.2639 41.9055 32.9412C41.6903 32.6154 41.5827 32.222 41.5827 31.761C41.5827 31.3553 41.6627 31.0265 41.8225 30.7744C41.9823 30.5193 42.1959 30.3196 42.4633 30.1751C42.7307 30.0307 43.0257 29.9231 43.3484 29.8524C43.6742 29.7787 44.0015 29.7203 44.3304 29.6772C44.7606 29.6219 45.1095 29.5804 45.3768 29.5528C45.6473 29.522 45.844 29.4713 45.9669 29.4006C46.0929 29.3299 46.156 29.207 46.156 29.0318V28.9949C46.156 28.5401 46.0315 28.1866 45.7825 27.9346C45.5367 27.6826 45.1632 27.5566 44.6623 27.5566C44.1429 27.5566 43.7357 27.6703 43.4406 27.8977C43.1456 28.1252 42.9381 28.368 42.8182 28.6261L41.7856 28.2573C41.97 27.8271 42.2159 27.4921 42.5232 27.2523C42.8336 27.0095 43.1717 26.8405 43.5374 26.7452C43.9062 26.6469 44.2689 26.5977 44.6254 26.5977C44.8528 26.5977 45.1141 26.6254 45.4091 26.6807C45.7072 26.7329 45.9946 26.842 46.2712 27.008C46.5509 27.174 46.7829 27.4244 46.9673 27.7594C47.1517 28.0944 47.2439 28.5432 47.2439 29.1056V33.771H46.156V32.8121H46.1006C46.0269 32.9658 45.9039 33.1302 45.7318 33.3054C45.5597 33.4806 45.3307 33.6296 45.0449 33.7526C44.7591 33.8755 44.4103 33.937 43.9984 33.937ZM44.1644 32.9596C44.5947 32.9596 44.9573 32.8751 45.2524 32.7061C45.5505 32.537 45.7749 32.3188 45.9254 32.0514C46.0791 31.784 46.156 31.5028 46.156 31.2078V30.212C46.1099 30.2673 46.0084 30.318 45.8517 30.3641C45.698 30.4072 45.5198 30.4456 45.3169 30.4794C45.1171 30.5101 44.922 30.5378 44.7314 30.5624C44.544 30.5839 44.3918 30.6023 44.275 30.6177C43.9923 30.6546 43.728 30.7145 43.4821 30.7975C43.2393 30.8774 43.0426 30.9988 42.892 31.1617C42.7445 31.3215 42.6707 31.5397 42.6707 31.8163C42.6707 32.1943 42.8106 32.4802 43.0902 32.6738C43.373 32.8643 43.731 32.9596 44.1644 32.9596ZM50.3177 24.3295V33.771H49.2297V24.3295H50.3177ZM56.1091 33.771V24.3295H61.8072V25.3438H57.2524V28.5339H61.5122V29.5482H57.2524V32.7568H61.881V33.771H56.1091ZM65.8041 33.937C65.3554 33.937 64.9482 33.8524 64.5825 33.6834C64.2167 33.5113 63.9263 33.2639 63.7112 32.9412C63.496 32.6154 63.3885 32.222 63.3885 31.761C63.3885 31.3553 63.4684 31.0265 63.6282 30.7744C63.788 30.5193 64.0016 30.3196 64.269 30.1751C64.5364 30.0307 64.8314 29.9231 65.1541 29.8524C65.4799 29.7787 65.8072 29.7203 66.1361 29.6772C66.5663 29.6219 66.9152 29.5804 67.1826 29.5528C67.453 29.522 67.6497 29.4713 67.7727 29.4006C67.8987 29.3299 67.9617 29.207 67.9617 29.0318V28.9949C67.9617 28.5401 67.8372 28.1866 67.5882 27.9346C67.3424 27.6826 66.969 27.5566 66.468 27.5566C65.9486 27.5566 65.5414 27.6703 65.2463 27.8977C64.9513 28.1252 64.7438 28.368 64.624 28.6261L63.5913 28.2573C63.7757 27.8271 64.0216 27.4921 64.3289 27.2523C64.6393 27.0095 64.9774 26.8405 65.3431 26.7452C65.7119 26.6469 66.0746 26.5977 66.4311 26.5977C66.6585 26.5977 66.9198 26.6254 67.2148 26.6807C67.5129 26.7329 67.8003 26.842 68.0769 27.008C68.3566 27.174 68.5886 27.4244 68.773 27.7594C68.9574 28.0944 69.0496 28.5432 69.0496 29.1056V33.771H67.9617V32.8121H67.9063C67.8326 32.9658 67.7096 33.1302 67.5375 33.3054C67.3654 33.4806 67.1365 33.6296 66.8506 33.7526C66.5648 33.8755 66.216 33.937 65.8041 33.937ZM65.9701 32.9596C66.4004 32.9596 66.763 32.8751 67.0581 32.7061C67.3562 32.537 67.5806 32.3188 67.7312 32.0514C67.8848 31.784 67.9617 31.5028 67.9617 31.2078V30.212C67.9156 30.2673 67.8141 30.318 67.6574 30.3641C67.5037 30.4072 67.3255 30.4456 67.1226 30.4794C66.9229 30.5101 66.7277 30.5378 66.5371 30.5624C66.3497 30.5839 66.1975 30.6023 66.0807 30.6177C65.798 30.6546 65.5337 30.7145 65.2878 30.7975C65.045 30.8774 64.8483 30.9988 64.6977 31.1617C64.5502 31.3215 64.4764 31.5397 64.4764 31.8163C64.4764 32.1943 64.6163 32.4802 64.896 32.6738C65.1787 32.8643 65.5368 32.9596 65.9701 32.9596ZM71.0354 33.771V26.6899H72.0865V27.7594H72.1603C72.2894 27.4091 72.523 27.1248 72.861 26.9066C73.1991 26.6884 73.5802 26.5793 74.0043 26.5793C74.0842 26.5793 74.1841 26.5808 74.304 26.5839C74.4239 26.5869 74.5145 26.5916 74.576 26.5977V27.7041C74.5391 27.6949 74.4546 27.6811 74.3224 27.6626C74.1934 27.6411 74.0566 27.6304 73.9121 27.6304C73.5679 27.6304 73.2606 27.7026 72.9901 27.847C72.7227 27.9884 72.5107 28.1851 72.3539 28.4371C72.2003 28.6861 72.1234 28.9704 72.1234 29.29V33.771H71.0354ZM76.9536 29.5113V33.771H75.8657V26.6899H76.9168V27.7963H77.009C77.1749 27.4367 77.4269 27.1478 77.765 26.9296C78.1031 26.7083 78.5395 26.5977 79.0743 26.5977C79.5537 26.5977 79.9732 26.696 80.3328 26.8927C80.6924 27.0864 80.9721 27.3814 81.1719 27.7779C81.3716 28.1713 81.4715 28.6692 81.4715 29.2716V33.771H80.3835V29.3453C80.3835 28.789 80.2391 28.3557 79.9502 28.0453C79.6613 27.7318 79.2648 27.575 78.7608 27.575C78.4135 27.575 78.1031 27.6503 77.8296 27.8009C77.5591 27.9515 77.3455 28.1713 77.1888 28.4602C77.032 28.7491 76.9536 29.0994 76.9536 29.5113ZM83.4596 33.771V26.6899H84.5476V33.771H83.4596ZM84.0128 25.5097C83.8008 25.5097 83.6179 25.4375 83.4642 25.293C83.3136 25.1486 83.2383 24.975 83.2383 24.7721C83.2383 24.5693 83.3136 24.3956 83.4642 24.2512C83.6179 24.1067 83.8008 24.0345 84.0128 24.0345C84.2249 24.0345 84.4062 24.1067 84.5568 24.2512C84.7105 24.3956 84.7873 24.5693 84.7873 24.7721C84.7873 24.975 84.7105 25.1486 84.5568 25.293C84.4062 25.4375 84.2249 25.5097 84.0128 25.5097ZM87.6283 29.5113V33.771H86.5403V26.6899H87.5914V27.7963H87.6836C87.8496 27.4367 88.1016 27.1478 88.4397 26.9296C88.7777 26.7083 89.2142 26.5977 89.7489 26.5977C90.2284 26.5977 90.6479 26.696 91.0075 26.8927C91.3671 27.0864 91.6468 27.3814 91.8465 27.7779C92.0463 28.1713 92.1462 28.6692 92.1462 29.2716V33.771H91.0582V29.3453C91.0582 28.789 90.9137 28.3557 90.6248 28.0453C90.336 27.7318 89.9395 27.575 89.4354 27.575C89.0882 27.575 88.7777 27.6503 88.5042 27.8009C88.2338 27.9515 88.0201 28.1713 87.8634 28.4602C87.7067 28.7491 87.6283 29.0994 87.6283 29.5113ZM96.9925 36.5739C96.467 36.5739 96.0152 36.5063 95.6372 36.3711C95.2591 36.2389 94.9441 36.0637 94.6921 35.8455C94.4432 35.6304 94.2449 35.3999 94.0974 35.154L94.9641 34.5455C95.0624 34.6746 95.1869 34.8221 95.3375 34.9881C95.4881 35.1571 95.694 35.3031 95.9553 35.426C96.2196 35.552 96.5653 35.615 96.9925 35.615C97.5642 35.615 98.036 35.4767 98.4078 35.2001C98.7797 34.9235 98.9657 34.4902 98.9657 33.9001V32.4617H98.8735C98.7935 32.5908 98.6798 32.7506 98.5323 32.9412C98.3879 33.1287 98.1789 33.2962 97.9053 33.4437C97.6349 33.5881 97.2691 33.6604 96.8081 33.6604C96.2365 33.6604 95.7232 33.5251 95.2684 33.2547C94.8166 32.9842 94.4585 32.5908 94.1942 32.0745C93.933 31.5582 93.8024 30.9312 93.8024 30.1936C93.8024 29.4682 93.9299 28.8367 94.185 28.2988C94.4401 27.7579 94.7951 27.3399 95.2499 27.0449C95.7048 26.7468 96.2303 26.5977 96.8266 26.5977C97.2876 26.5977 97.6533 26.6745 97.9238 26.8282C98.1973 26.9788 98.4063 27.1509 98.5507 27.3445C98.6983 27.5351 98.812 27.6918 98.8919 27.8148H99.0025V26.6899H100.054V33.9738C100.054 34.5824 99.9153 35.0772 99.6387 35.4583C99.3652 35.8425 98.9964 36.1237 98.5323 36.3019C98.0713 36.4833 97.558 36.5739 96.9925 36.5739ZM96.9557 32.683C97.3921 32.683 97.7609 32.5831 98.0621 32.3834C98.3633 32.1836 98.5922 31.8962 98.749 31.5213C98.9057 31.1463 98.9841 30.6976 98.9841 30.1751C98.9841 29.6649 98.9073 29.2147 98.7536 28.8244C98.5999 28.4341 98.3725 28.1282 98.0713 27.907C97.7701 27.6857 97.3982 27.575 96.9557 27.575C96.4946 27.575 96.1105 27.6918 95.8031 27.9254C95.4989 28.159 95.2699 28.4725 95.1162 28.8659C94.9656 29.2593 94.8903 29.6957 94.8903 30.1751C94.8903 30.6669 94.9672 31.1018 95.1208 31.4798C95.2776 31.8547 95.5081 32.1498 95.8124 32.3649C96.1197 32.577 96.5008 32.683 96.9557 32.683ZM107.061 28.2758L106.084 28.5524C106.022 28.3895 105.931 28.2312 105.812 28.0775C105.695 27.9208 105.535 27.7917 105.332 27.6903C105.129 27.5889 104.87 27.5382 104.553 27.5382C104.12 27.5382 103.759 27.638 103.47 27.8378C103.184 28.0345 103.041 28.285 103.041 28.5893C103.041 28.8597 103.139 29.0733 103.336 29.2301C103.533 29.3868 103.84 29.5174 104.258 29.6219L105.309 29.8801C105.942 30.0338 106.414 30.2689 106.724 30.5854C107.035 30.8989 107.19 31.3031 107.19 31.7979C107.19 32.2036 107.073 32.5662 106.84 32.8859C106.609 33.2055 106.286 33.4575 105.872 33.6419C105.457 33.8263 104.974 33.9185 104.424 33.9185C103.702 33.9185 103.104 33.7618 102.631 33.4483C102.157 33.1348 101.858 32.6769 101.732 32.0745L102.764 31.8163C102.863 32.1974 103.049 32.4832 103.322 32.6738C103.599 32.8643 103.96 32.9596 104.406 32.9596C104.913 32.9596 105.315 32.8521 105.613 32.6369C105.915 32.4187 106.065 32.1575 106.065 31.8532C106.065 31.6073 105.979 31.4014 105.807 31.2354C105.635 31.0664 105.371 30.9404 105.014 30.8574L103.834 30.5808C103.185 30.4271 102.709 30.189 102.405 29.8663C102.104 29.5405 101.953 29.1332 101.953 28.6446C101.953 28.245 102.065 27.8916 102.29 27.5843C102.517 27.2769 102.826 27.0357 103.216 26.8605C103.61 26.6853 104.055 26.5977 104.553 26.5977C105.254 26.5977 105.804 26.7514 106.203 27.0587C106.606 27.366 106.892 27.7717 107.061 28.2758Z" fill="#777777"/>
<path d="M23.273 74.2622V52.4524H27.261L37.5116 67.8127V52.4524H41.4997V74.2622H37.5116L27.261 58.9331V74.2622H23.273ZM52.8627 74.6361C51.4295 74.6361 50.1313 74.3868 48.9681 73.8883C47.8049 73.369 46.8702 72.5797 46.164 71.5204C45.4577 70.4611 45.0839 69.1317 45.0423 67.5323H48.9681C48.9889 68.5917 49.3316 69.4848 49.9963 70.2118C50.6817 70.918 51.6372 71.2712 52.8627 71.2712C54.0259 71.2712 54.919 70.9492 55.5422 70.3053C56.1653 69.6614 56.4769 68.8513 56.4769 67.8751C56.4769 66.7326 56.0614 65.8706 55.2306 65.289C54.4205 64.6867 53.3716 64.3855 52.0838 64.3855H50.4636V61.114H52.1149C53.1742 61.114 54.057 60.8648 54.7632 60.3663C55.4695 59.8678 55.8226 59.1304 55.8226 58.1541C55.8226 57.3441 55.5526 56.7001 55.0125 56.2224C54.4932 55.7239 53.7662 55.4746 52.8315 55.4746C51.8137 55.4746 51.014 55.7758 50.4324 56.3782C49.8716 56.9806 49.5601 57.7179 49.4977 58.5903H45.6031C45.6862 56.5755 46.3821 54.9865 47.6907 53.8233C49.02 52.6602 50.7336 52.0786 52.8315 52.0786C54.3271 52.0786 55.5837 52.3486 56.6015 52.8886C57.6401 53.4079 58.419 54.1038 58.9383 54.9761C59.4783 55.8485 59.7483 56.8144 59.7483 57.8737C59.7483 59.0992 59.4056 60.1378 58.7202 60.9894C58.0555 61.8203 57.2246 62.3811 56.2276 62.6719C57.4531 62.9211 58.4501 63.5235 59.2187 64.479C59.9872 65.4137 60.3715 66.5976 60.3715 68.0308C60.3715 69.2356 60.0807 70.3364 59.4991 71.3335C58.9175 72.3305 58.0659 73.1302 56.9442 73.7325C55.8433 74.3349 54.4828 74.6361 52.8627 74.6361ZM63.7583 74.2622V71.3646C65.0877 70.2637 66.3755 69.1733 67.6218 68.0932C68.8888 67.0131 70.0105 65.9433 70.9867 64.884C71.9837 63.8247 72.773 62.7965 73.3546 61.7995C73.957 60.7817 74.2582 59.7951 74.2582 58.8396C74.2582 57.9464 74.0089 57.1571 73.5104 56.4717C73.0327 55.7862 72.233 55.4435 71.1113 55.4435C69.9689 55.4435 69.1069 55.8174 68.5253 56.5651C67.9437 57.3129 67.6529 58.2164 67.6529 59.2758H63.7895C63.831 57.6764 64.1841 56.347 64.8488 55.2877C65.5135 54.2076 66.3963 53.4079 67.4971 52.8886C68.598 52.3486 69.8339 52.0786 71.2048 52.0786C73.4273 52.0786 75.1513 52.6913 76.3768 53.9168C77.6231 55.1215 78.2462 56.6898 78.2462 58.6215C78.2462 59.8262 77.9658 60.9998 77.405 62.1422C76.8649 63.2846 76.1483 64.3855 75.2552 65.4448C74.362 66.5042 73.3962 67.5012 72.3576 68.4359C71.319 69.3498 70.3116 70.2014 69.3354 70.9907H78.7759V74.2622H63.7583ZM80.4051 77.8764L82.181 70.1184H86.0444L83.0222 77.8764H80.4051ZM96.9944 74.6361C95.4988 74.6361 94.1487 74.3764 92.944 73.8572C91.7392 73.3171 90.7734 72.559 90.0464 71.5827C89.3402 70.6065 88.9871 69.4744 88.9871 68.1866C88.9871 66.8573 89.3298 65.6941 90.0152 64.6971C90.7215 63.7 91.6458 62.9834 92.7882 62.5472C91.7912 62.1111 91.0019 61.4879 90.4203 60.6778C89.8387 59.847 89.5479 58.9227 89.5479 57.9049C89.5479 56.8663 89.8283 55.9108 90.3891 55.0385C90.9499 54.1453 91.7808 53.4287 92.8817 52.8886C94.0033 52.3486 95.3742 52.0786 96.9944 52.0786C98.6145 52.0786 99.975 52.3486 101.076 52.8886C102.177 53.4287 103.008 54.1453 103.568 55.0385C104.129 55.9108 104.41 56.8663 104.41 57.9049C104.41 58.9019 104.108 59.8262 103.506 60.6778C102.925 61.5087 102.146 62.1318 101.169 62.5472C102.333 62.9834 103.257 63.7 103.942 64.6971C104.628 65.6941 104.971 66.8573 104.971 68.1866C104.971 69.4744 104.617 70.6065 103.911 71.5827C103.205 72.559 102.239 73.3171 101.014 73.8572C99.8089 74.3764 98.4691 74.6361 96.9944 74.6361ZM96.9944 61.3633C98.0745 61.3633 98.9261 61.0829 99.5492 60.5221C100.172 59.9612 100.484 59.2446 100.484 58.3722C100.484 57.4168 100.172 56.669 99.5492 56.1289C98.9469 55.5889 98.0952 55.3189 96.9944 55.3189C95.8727 55.3189 95.0107 55.5889 94.4083 56.1289C93.806 56.669 93.5048 57.4168 93.5048 58.3722C93.5048 59.2654 93.806 59.9924 94.4083 60.5532C95.0315 61.0933 95.8935 61.3633 96.9944 61.3633ZM96.9944 71.3023C98.3237 71.3023 99.3311 70.9804 100.017 70.3364C100.702 69.6718 101.045 68.8409 101.045 67.8439C101.045 66.743 100.681 65.881 99.9543 65.2579C99.248 64.6348 98.2614 64.3232 96.9944 64.3232C95.7273 64.3232 94.7199 64.6348 93.9721 65.2579C93.2452 65.881 92.8817 66.743 92.8817 67.8439C92.8817 68.8409 93.2244 69.6718 93.9098 70.3364C94.6161 70.9804 95.6442 71.3023 96.9944 71.3023ZM117.835 74.6361C115.821 74.6361 114.097 74.1687 112.663 73.234C111.23 72.2786 110.119 70.9596 109.33 69.2771C108.561 67.5739 108.177 65.6006 108.177 63.3573C108.177 61.1348 108.561 59.1719 109.33 57.4687C110.119 55.7654 111.23 54.4465 112.663 53.5118C114.097 52.5563 115.821 52.0786 117.835 52.0786C119.85 52.0786 121.574 52.5563 123.007 53.5118C124.441 54.4465 125.541 55.7654 126.31 57.4687C127.099 59.1719 127.494 61.1348 127.494 63.3573C127.494 65.6006 127.099 67.5739 126.31 69.2771C125.541 70.9596 124.441 72.2786 123.007 73.234C121.574 74.1687 119.85 74.6361 117.835 74.6361ZM117.835 71.0531C119.476 71.0531 120.816 70.3676 121.855 68.9967C122.893 67.6258 123.412 65.746 123.412 63.3573C123.412 60.9686 122.893 59.0888 121.855 57.7179C120.816 56.347 119.476 55.6616 117.835 55.6616C116.174 55.6616 114.824 56.347 113.785 57.7179C112.767 59.0888 112.258 60.9686 112.258 63.3573C112.258 65.746 112.767 67.6258 113.785 68.9967C114.824 70.3676 116.174 71.0531 117.835 71.0531ZM140.984 74.2622V70.2118H130.235V67.0338L140.454 52.4524H144.972V66.7534H147.838V70.2118H144.972V74.2622H140.984ZM134.503 66.7534H141.233V56.8455L134.503 66.7534ZM149.291 77.8764L151.067 70.1184H154.93L151.908 77.8764H149.291ZM167.126 74.6361C165.112 74.6361 163.388 74.1687 161.954 73.234C160.521 72.2786 159.41 70.9596 158.621 69.2771C157.852 67.5739 157.468 65.6006 157.468 63.3573C157.468 61.1348 157.852 59.1719 158.621 57.4687C159.41 55.7654 160.521 54.4465 161.954 53.5118C163.388 52.5563 165.112 52.0786 167.126 52.0786C169.141 52.0786 170.865 52.5563 172.298 53.5118C173.732 54.4465 174.833 55.7654 175.601 57.4687C176.39 59.1719 176.785 61.1348 176.785 63.3573C176.785 65.6006 176.39 67.5739 175.601 69.2771C174.833 70.9596 173.732 72.2786 172.298 73.234C170.865 74.1687 169.141 74.6361 167.126 74.6361ZM167.126 71.0531C168.767 71.0531 170.107 70.3676 171.146 68.9967C172.184 67.6258 172.703 65.746 172.703 63.3573C172.703 60.9686 172.184 59.0888 171.146 57.7179C170.107 56.347 168.767 55.6616 167.126 55.6616C165.465 55.6616 164.115 56.347 163.076 57.7179C162.058 59.0888 161.549 60.9686 161.549 63.3573C161.549 65.746 162.058 67.6258 163.076 68.9967C164.115 70.3676 165.465 71.0531 167.126 71.0531ZM189.247 74.6361C187.232 74.6361 185.508 74.1687 184.074 73.234C182.641 72.2786 181.53 70.9596 180.741 69.2771C179.972 67.5739 179.588 65.6006 179.588 63.3573C179.588 61.1348 179.972 59.1719 180.741 57.4687C181.53 55.7654 182.641 54.4465 184.074 53.5118C185.508 52.5563 187.232 52.0786 189.247 52.0786C191.261 52.0786 192.985 52.5563 194.419 53.5118C195.852 54.4465 196.953 55.7654 197.721 57.4687C198.51 59.1719 198.905 61.1348 198.905 63.3573C198.905 65.6006 198.51 67.5739 197.721 69.2771C196.953 70.9596 195.852 72.2786 194.419 73.234C192.985 74.1687 191.261 74.6361 189.247 74.6361ZM189.247 71.0531C190.887 71.0531 192.227 70.3676 193.266 68.9967C194.304 67.6258 194.824 65.746 194.824 63.3573C194.824 60.9686 194.304 59.0888 193.266 57.7179C192.227 56.347 190.887 55.6616 189.247 55.6616C187.585 55.6616 186.235 56.347 185.196 57.7179C184.178 59.0888 183.669 60.9686 183.669 63.3573C183.669 65.746 184.178 67.6258 185.196 68.9967C186.235 70.3676 187.585 71.0531 189.247 71.0531ZM211.367 74.6361C209.352 74.6361 207.628 74.1687 206.195 73.234C204.761 72.2786 203.65 70.9596 202.861 69.2771C202.092 67.5739 201.708 65.6006 201.708 63.3573C201.708 61.1348 202.092 59.1719 202.861 57.4687C203.65 55.7654 204.761 54.4465 206.195 53.5118C207.628 52.5563 209.352 52.0786 211.367 52.0786C213.381 52.0786 215.105 52.5563 216.539 53.5118C217.972 54.4465 219.073 55.7654 219.841 57.4687C220.631 59.1719 221.025 61.1348 221.025 63.3573C221.025 65.6006 220.631 67.5739 219.841 69.2771C219.073 70.9596 217.972 72.2786 216.539 73.234C215.105 74.1687 213.381 74.6361 211.367 74.6361ZM211.367 71.0531C213.008 71.0531 214.347 70.3676 215.386 68.9967C216.424 67.6258 216.944 65.746 216.944 63.3573C216.944 60.9686 216.424 59.0888 215.386 57.7179C214.347 56.347 213.008 55.6616 211.367 55.6616C209.705 55.6616 208.355 56.347 207.316 57.7179C206.298 59.0888 205.79 60.9686 205.79 63.3573C205.79 65.746 206.298 67.6258 207.316 68.9967C208.355 70.3676 209.705 71.0531 211.367 71.0531Z" fill="#121212"/>
<path d="M21.1543 64.9775H43.6184V66.5353H21.1543V64.9775Z" fill="#121212"/>
</svg>
